<?xml version="1.0" encoding="UTF-8"?>
<svg width="24px" height="8px" viewBox="0 0 24 8" version="1.1" xmlns="http://www.w3.org/2000/svg" xmlns:xlink="http://www.w3.org/1999/xlink">
    <title>Kakao_CI_yellow</title>
    <g id="Page-1" stroke="none" stroke-width="1" fill="none" fill-rule="evenodd">
        <g id="Kakao_CI_yellow" transform="translate(0.309203, 0.221800)" fill="#000000" fill-rule="nonzero">
            <path d="M21.4253192,2.1204511 C22.1050622,2.1204511 22.6391802,2.3412088 23.0265082,2.7824224 C23.4144302,3.2239274 23.6083902,3.8561867 23.6083902,4.679211 C23.6083902,5.4902838 23.4161772,6.113819 23.0311712,6.5492028 C22.6467492,6.9843053 22.1108812,7.2021478 21.4253192,7.2021478 C20.7455882,7.2021478 20.2114692,6.9843052 19.8241302,6.5492028 C19.4362192,6.113819 19.2422572,5.4902838 19.2422572,4.679211 C19.2422572,3.8561867 19.4373752,3.2239274 19.8282122,2.7824224 C20.2190472,2.3412088 20.7514182,2.1204511 21.4253192,2.1204511 Z M21.4253192,2.7824224 C20.9960452,2.7824224 20.6663712,2.9434751 20.4368792,3.26557 C20.2068152,3.5876754 20.0920692,4.0588821 20.0920692,4.679211 C20.0920692,5.2937096 20.2068152,5.7573479 20.4368792,6.0704168 C20.6663712,6.3834962 20.9960452,6.5401767 21.4253192,6.5401767 C21.8604212,6.5401767 22.1930102,6.3834961 22.4230852,6.0704168 C22.6525682,5.7573479 22.7673142,5.2937096 22.7673142,4.679211 C22.7673142,4.0588821 22.6525682,3.5876754 22.4230852,3.26557 C22.1930092,2.9434751 21.8604212,2.7824224 21.4253192,2.7824224 Z M14.4369122,5.7797726 C14.4369122,5.2846835 14.6023272,4.907246 14.9331672,4.6480521 C15.2645902,4.3885564 15.7457082,4.2586731 16.3782592,4.2586731 L17.3265012,4.2586731 L17.3265012,3.9455937 C17.3265012,3.1881045 16.9927592,2.8095006 16.3246742,2.8095006 C16.1097462,2.8095006 15.8849082,2.8392126 15.6490132,2.8989176 C15.4131192,2.9586116 15.1970252,3.0331732 15.0007322,3.12258 L14.7590072,2.5409891 C15.0036472,2.4038185 15.2675062,2.2980983 15.5505802,2.2232563 C15.8336552,2.1489973 16.1097462,2.1114251 16.3782592,2.1114251 C17.5350262,2.1114251 18.1139942,2.7288389 18.1139942,3.9633645 L18.1139942,7.0946788 L17.5053242,7.0946788 L17.4068822,6.557937 C17.1622542,6.754813 16.9018932,6.9068397 16.6240532,7.0142983 C16.3468072,7.1217674 16.0829502,7.175351 15.8324922,7.175351 C15.3968062,7.175351 15.0554812,7.0515789 14.8079372,6.8040346 C14.5603932,6.5564898 14.4369122,6.2151664 14.4369122,5.7797726 Z M15.9816032,6.5133794 C16.0940162,6.5133794 16.2116772,6.4985344 16.3334092,6.4685304 C16.4551402,6.4388284 16.5768732,6.4000904 16.6986152,6.3523371 C16.8203462,6.3045731 16.9345082,6.2463257 17.0416882,6.1778857 C17.1482712,6.1091547 17.2432172,6.0360514 17.3265012,5.9585854 L17.3265012,4.8134669 L16.4714542,4.8134669 C16.0375172,4.8134669 15.7212422,4.8880279 15.5226172,5.0371288 C15.3234202,5.1862405 15.2244052,5.4218544 15.2244052,5.7439493 C15.2244052,6.2568091 15.4766032,6.5133794 15.9816032,6.5133794 L15.9816032,6.5133794 Z M10.6124672,7.0946787 L9.7894432,7.0946787 L9.7894432,0.1791048 L10.6124672,0 L10.6124672,7.0946787 Z M12.8130082,2.0758935 L13.4572082,2.540989 L11.8740712,4.5271843 L13.7076672,6.7280262 L13.0727842,7.2201999 L10.9077762,4.5717419 L12.8130082,2.0758935 Z M4.6474689,5.7797726 C4.6474689,5.2846835 4.8128837,4.907246 5.1443065,4.6480521 C5.4751476,4.3885564 5.9568365,4.2586731 6.5888151,4.2586731 L7.5376414,4.2586731 L7.5376414,3.9455937 C7.5376414,3.1881045 7.2033147,2.8095006 6.535221,2.8095006 C6.320876,2.8095006 6.0954651,2.8392126 5.8601531,2.8989176 C5.6242584,2.9586121 5.4081644,3.0331732 5.2112888,3.1225799 L4.9695638,2.540989 C5.2142037,2.4038184 5.478051,2.2980982 5.7617205,2.2232562 C6.0447963,2.1489969 6.320876,2.111425 6.5888151,2.111425 C7.7461666,2.111425 8.324551,2.7288388 8.324551,3.9633644 L8.324551,7.0946787 L7.7164558,7.0946787 L7.6180218,6.557937 C7.3733925,6.754813 7.1124495,6.9068397 6.8351945,7.0142983 C6.557937,7.1217674 6.2940897,7.175351 6.0430483,7.175351 C5.6079449,7.175351 5.266622,7.0515789 5.0190767,6.8040346 C4.7715324,6.5564898 4.6474689,6.2151664 4.6474689,5.7797726 Z M6.192159,6.5133794 C6.3051561,6.5133794 6.4222239,6.4985344 6.5439656,6.4685304 C6.6656974,6.4388288 6.7874292,6.400091 6.9091715,6.3523372 C7.0309032,6.3045734 7.1456493,6.2463258 7.2522334,6.1778859 C7.3594111,6.1091551 7.4543561,6.0360516 7.5376414,5.9585856 L7.5376414,4.8134669 L6.682011,4.8134669 C6.2486585,4.8134669 5.9323829,4.8880279 5.7331742,5.0371288 C5.5345601,5.1862405 5.4349512,5.4218543 5.4349512,5.7439493 C5.4349512,6.2568091 5.6871594,6.5133794 6.192159,6.5133794 Z M0.8230138,7.0946787 L0,7.0946787 L0,0.1791048 L0.8230138,0 L0.8230138,7.0946787 Z M3.0241471,2.0758935 L3.6683475,2.540989 L2.084628,4.5271843 L3.9188069,6.7280262 L3.283341,7.2201999 L1.118322,4.5717419 L3.0241471,2.0758935 Z" id="XMLID_1265_"></path>
        </g>
    </g>
</svg>