<?xml version="1.0" encoding="utf-8"?>
<!-- Generator: Adobe Illustrator 25.2.0, SVG Export Plug-In . SVG Version: 6.00 Build 0)  -->
<svg version="1.1" id="md-infinite" xmlns="http://www.w3.org/2000/svg" xmlns:xlink="http://www.w3.org/1999/xlink" x="0px"
	 y="0px" viewBox="0 0 152 152" style="enable-background:new 0 0 152 152;" xml:space="preserve">
<style type="text/css">
	.st0{fill:none;stroke:#0066FF;stroke-linecap:round;stroke-linejoin:round;}
	.st1{fill:none;stroke:#333C5E;stroke-linecap:round;stroke-linejoin:round;}
	.st2{fill-rule:evenodd;clip-rule:evenodd;fill:#0066FF;}
	.st3{fill-rule:evenodd;clip-rule:evenodd;fill:#007BFC;}
	.st4{fill-rule:evenodd;clip-rule:evenodd;fill:url(#Prostokąt_zaokrąglony_1356_kopia_10_1_);}
	.st5{fill-rule:evenodd;clip-rule:evenodd;fill:url(#Prostokąt_zaokrąglony_1356_kopia_13_1_);}
	.st6{fill-rule:evenodd;clip-rule:evenodd;fill:url(#Prostokąt_zaokrąglony_1356_kopia_16_1_);}
	
		.st7{fill-rule:evenodd;clip-rule:evenodd;fill:#007BFC;stroke:#007BFC;stroke-width:2;stroke-linecap:round;stroke-linejoin:round;}
	.st8{fill-rule:evenodd;clip-rule:evenodd;fill:url(#Prostokąt_zaokrąglony_1356_kopia_8_1_);}
	.st9{fill-rule:evenodd;clip-rule:evenodd;fill:url(#Prostokąt_zaokrąglony_1356_kopia_9_1_);}
	.st10{fill-rule:evenodd;clip-rule:evenodd;fill:url(#Prostokąt_zaokrąglony_1356_kopia_12_1_);}
	.st11{fill-rule:evenodd;clip-rule:evenodd;fill:url(#Prostokąt_zaokrąglony_1356_kopia_15_1_);}
	.st12{fill-rule:evenodd;clip-rule:evenodd;fill:#FFFFFF;stroke:#0066FF;stroke-linecap:round;stroke-linejoin:round;}
	.st13{fill:#007BFC;stroke:#007BFC;stroke-linecap:round;stroke-linejoin:round;}
</style>
<g id="button">
	<path id="Kształt_1554" class="st0" d="M133,124.5c0,0,4.3-2.7,6-4s2.4-4.7-3-8c-4.4-2.7-25-14-25-14"/>
	<path id="Kształt_1473" class="st0" d="M117.3,134.8c-0.1,0.1-3,2.2-10.6,6.6c-6.4,3.8-10.9,2.8-15.6,0.3
		c-19-10.2-30-16.4-30-16.4"/>
	<path id="Elipsa_1386" class="st1" d="M117,123.4c4.7-3.1,12.3-3.1,17,0s4.7,8.2,0,11.3s-12.3,3.1-17,0S112.3,126.5,117,123.4z"/>
	<path id="Prostokąt_1389" class="st2" d="M132.2,132.7c-4.2,2.3-9.3,2.3-13.4,0c-1.6-0.8-2.6-2.4-2.8-4.2v-6h19v5.9
		C135,129.9,134.1,131.5,132.2,132.7z"/>
	<path id="Elipsa_1386_kopia_2" class="st3" d="M118.8,118.2c4.2-2.3,9.3-2.3,13.4,0c3.7,2.3,3.7,6.1,0,8.5c-4.2,2.3-9.3,2.3-13.4,0
		C115.1,124.4,115.1,120.6,118.8,118.2z"/>
</g>
<linearGradient id="Prostokąt_zaokrąglony_1356_kopia_10_1_" gradientUnits="userSpaceOnUse" x1="44" y1="118.9426" x2="85.99" y2="118.9426" gradientTransform="matrix(1 0 0 -1 0 154)">
	<stop  offset="0" style="stop-color:#97BEFC"/>
	<stop  offset="1" style="stop-color:#ABCAFF"/>
</linearGradient>
<path id="Prostokąt_zaokrąglony_1356_kopia_10" class="st4" d="M44,53.6V41.5c0.2-1.6,1.1-2.9,2.4-3.7l37.1-20.9
	c1.3-0.8,2.4-0.3,2.4,1v11.7L44,53.6z"/>
<linearGradient id="Prostokąt_zaokrąglony_1356_kopia_13_1_" gradientUnits="userSpaceOnUse" x1="91" y1="136.8375" x2="117.73" y2="136.8375" gradientTransform="matrix(1 0 0 -1 0 154)">
	<stop  offset="0" style="stop-color:#97BEFC"/>
	<stop  offset="1" style="stop-color:#ABCAFF"/>
</linearGradient>
<path id="Prostokąt_zaokrąglony_1356_kopia_13" class="st5" d="M91,26.8V12.5c0,0,1.8-1.1,4.2-2.5c5.7-3.3,14.9-3.3,20.5,0
	c0.7,0.4,1.4,0.9,2,1.5L91,26.8z"/>
<linearGradient id="Prostokąt_zaokrąglony_1356_kopia_16_1_" gradientUnits="userSpaceOnUse" x1="28" y1="73.5574" x2="38.45" y2="73.5574" gradientTransform="matrix(1 0 0 -1 0 154)">
	<stop  offset="0" style="stop-color:#97BEFC"/>
	<stop  offset="1" style="stop-color:#ABCAFF"/>
</linearGradient>
<path id="Prostokąt_zaokrąglony_1356_kopia_16" class="st6" d="M38,62.1v35.8l-7.6,4.3c-1.3,0.8-2.4,0.3-2.4-1V66.5
	c0.2-1.6,1.1-2.9,2.4-3.7l8-4.5C38.1,59.5,37.9,60.8,38,62.1z"/>
<g id="browser">
	<path id="Prostokąt_zaokrąglony_1356" class="st1" d="M40.4,55.4l77.2-44.2c2.7-1.6,4.9-1.6,4.9,1.1v73.6c0,2.7-2.2,5.1-4.9,6.7
		l-77.2,44.2c-2.7,1.6-2.9-0.4-2.9-3.1V62.1C37.5,59.4,37.7,57,40.4,55.4z"/>
	<path id="Elipsa_1360" class="st7" d="M44.7,61c0.7-0.4,1.3-0.1,1.3,0.5c-0.1,0.8-0.6,1.5-1.3,1.8c-0.7,0.4-1.2,0.1-1.2-0.5
		C43.6,62,44.1,61.3,44.7,61z"/>
	<path id="Elipsa_1360_kopia" class="st7" d="M52,56.9c0.7-0.4,1.2-0.1,1.2,0.5c-0.1,0.8-0.6,1.5-1.2,1.8c-0.7,0.4-1.2,0.1-1.2-0.5
		C50.8,58,51.3,57.3,52,56.9z"/>
	<path id="Elipsa_1360_kopia_2" class="st7" d="M59.2,52.9c0.7-0.4,1.2-0.1,1.2,0.5c-0.1,0.8-0.6,1.5-1.2,1.8
		c-0.7,0.4-1.2,0.1-1.2-0.5C58,53.9,58.5,53.3,59.2,52.9z"/>
</g>
<linearGradient id="Prostokąt_zaokrąglony_1356_kopia_8_1_" gradientUnits="userSpaceOnUse" x1="110" y1="105" x2="151.99" y2="105" gradientTransform="matrix(1 0 0 -1 0 154)">
	<stop  offset="0" style="stop-color:#AFCDFD"/>
	<stop  offset="1" style="stop-color:#D7E6FE"/>
</linearGradient>
<path id="Prostokąt_zaokrąglony_1356_kopia_8" class="st8" d="M112.4,39.8l37.1-20.9c1.3-0.8,2.4-0.3,2.4,1v34.6
	c-0.2,1.6-1.1,2.9-2.4,3.7l-37.1,20.9c-1.3,0.8-2.4,0.3-2.4-1V43.5C110.2,41.9,111.1,40.5,112.4,39.8z"/>
<linearGradient id="Prostokąt_zaokrąglony_1356_kopia_9_1_" gradientUnits="userSpaceOnUse" x1="58" y1="76" x2="99.99" y2="76" gradientTransform="matrix(1 0 0 -1 0 154)">
	<stop  offset="0" style="stop-color:#AFCDFD"/>
	<stop  offset="1" style="stop-color:#D7E6FE"/>
</linearGradient>
<path id="Prostokąt_zaokrąglony_1356_kopia_9" class="st9" d="M60.4,68.8l37.1-20.9c1.3-0.8,2.4-0.3,2.4,1v34.6
	c-0.2,1.6-1.1,2.9-2.4,3.7l-37.1,20.9c-1.3,0.8-2.4,0.3-2.4-1V72.5C58.2,70.9,59.1,69.5,60.4,68.8z"/>
<g id="Grupa_62">
	
		<linearGradient id="Prostokąt_zaokrąglony_1356_kopia_12_1_" gradientUnits="userSpaceOnUse" x1="0" y1="54.5301" x2="49" y2="54.5301" gradientTransform="matrix(1 0 0 -1 0 154)">
		<stop  offset="0" style="stop-color:#AFCDFD"/>
		<stop  offset="1" style="stop-color:#D7E6FE"/>
	</linearGradient>
	<path id="Prostokąt_zaokrąglony_1356_kopia_12" class="st10" d="M46.6,117.2c0,0-9.8,5.2-19.5,10.6c-0.5,0.4-0.9,0.7-1.4,1
		c-5.9,3.5-15.4,3.5-21.2,0c-2.5-1.5-3.9-3.4-4.3-5.4H0.1V82.9c0.1-2.7,1.6-5.2,4-6.4c10.9-6.1,14.5-8.6,14.5-8.6
		c1.4-0.8,2.5-0.3,2.5,1l-2,21.8c2.1,0,4.1-0.4,6-1.1C35.4,83.8,46.7,78,46.7,78c1.3-0.8,2.4-0.3,2.4,1v34.6
		C48.9,115.1,47.9,116.5,46.6,117.2z"/>
	
		<linearGradient id="Prostokąt_zaokrąglony_1356_kopia_15_1_" gradientUnits="userSpaceOnUse" x1="-1.000000e-03" y1="74.3335" x2="21" y2="74.3335" gradientTransform="matrix(1 0 0 -1 0 154)">
		<stop  offset="0" style="stop-color:#97BEFC"/>
		<stop  offset="1" style="stop-color:#ABCAFF"/>
	</linearGradient>
	<path id="Prostokąt_zaokrąglony_1356_kopia_15" class="st11" d="M21,90.7c-5.5,1.4-12.1,0.8-16.6-1.9c-5.9-3.5-5.9-9.2,0-12.7
		c3-1.8,10.1-6.1,13.9-7.9c2.4-1.1,2.7,1.1,2.7,2.5V90.7z"/>
</g>
<g id="watch">
	<g id="Grupa_58">
		<path id="Elipsa_1378" class="st0" d="M27,26.1c0,7.7-5.4,17-12,20.8s-12,0.7-12-7s5.4-17,12-20.8c1.4-0.9,3-1.4,4.6-1.6"/>
		<path id="Kształt_1385" class="st12" d="M20.2,17.4l-4.9-1.8"/>
		<path id="Kształt_1386" class="st0" d="M20.1,17.6l-3.2,4.1"/>
	</g>
	<path class="st13" d="M13.6,35.2c0,1,0.5,1.3,1.1,0.9c0.4-0.4,0.7-0.9,0.8-1.4l0.2-2l-1.5,0.6C13.8,33.8,13.6,34.5,13.6,35.2z"/>
	<path class="st13" d="M14.2,33.1c0.1-0.2,0.3-0.4,0.4-0.5c0.6-0.5,1.1-0.1,1.1,0.9c0,0.4-0.1,0.8-0.2,1.1l5.4-11.3L14.2,33.1z"/>
</g>
</svg>
