<?xml version="1.0" encoding="utf-8"?>
<!-- Generator: Adobe Illustrator 25.2.0, SVG Export Plug-In . SVG Version: 6.00 Build 0)  -->
<svg version="1.1" id="Layer_1" xmlns="http://www.w3.org/2000/svg" xmlns:xlink="http://www.w3.org/1999/xlink" x="0px" y="0px"
	 viewBox="0 0 207 86" style="enable-background:new 0 0 207 86;" xml:space="preserve">
<style type="text/css">
	.st0{fill:none;stroke:url(#Oval_1_);stroke-width:12;stroke-miterlimit:10;}
	.st1{fill:#222222;}
	.st2{fill:url(#SVGID_1_);}
</style>
<g id="Layer_2_1_">
	<g id="Layer_1-2">
		<linearGradient id="Oval_1_" gradientUnits="userSpaceOnUse" x1="0" y1="43" x2="66" y2="43">
			<stop  offset="0" style="stop-color:#4482CC"/>
			<stop  offset="3.720858e-02" style="stop-color:#447ECC"/>
			<stop  offset="0.4677" style="stop-color:#4553C7"/>
			<stop  offset="0.5964" style="stop-color:#3B44BC"/>
			<stop  offset="0.8439" style="stop-color:#2B2DAB"/>
			<stop  offset="1" style="stop-color:#2525A5"/>
		</linearGradient>
		<circle id="Oval" class="st0" cx="33" cy="43" r="27"/>
		<path id="ring" class="st1" d="M86.9,68.6V32.4c0-5.4,1.3-7,5.3-7h4.4v-10h-5.4C79.6,15.4,76,20,76,31.8v36.9L86.9,68.6L86.9,68.6
			z M117.9,68.6V15.3h-11.2v53.4h11.2V68.6z M140.5,68.6V31.5c0-4.7,2-6.6,5.1-6.6s5.2,1.9,5.2,6.6v37.1h11.1V30.7
			c0-10.8-6.2-16-16.6-16s-16,5.2-16,16v37.9C129.3,68.6,140.5,68.6,140.5,68.6z M192.5,86c9,0,14.5-4.6,14.5-14.8V31.3
			c0-10.8-6.1-16.6-16.9-16.6c-10.6,0-16.8,5.9-16.8,16.6v20.9c0,10.8,5.7,16.6,15.2,16.6c2.7,0,5.3-0.9,7.3-2.6v4.1
			c0,4.1-1,5.6-5,5.6h-11.4V86H192.5z M188.1,58.8c-4,0-5.6-2.6-5.6-7.3V31.2c0-4.6,2.2-6.5,5.6-6.5s5.7,1.9,5.7,6.5v21.9
			C193.7,56.7,191.5,58.8,188.1,58.8L188.1,58.8z"/>
		
			<linearGradient id="SVGID_1_" gradientUnits="userSpaceOnUse" x1="106.77" y1="-426.3744" x2="118.02" y2="-426.3744" gradientTransform="matrix(1 0 0 -1 0 -420.7244)">
			<stop  offset="0" style="stop-color:#4482CC"/>
			<stop  offset="3.720858e-02" style="stop-color:#447ECC"/>
			<stop  offset="0.4677" style="stop-color:#4553C7"/>
			<stop  offset="0.5964" style="stop-color:#3B44BC"/>
			<stop  offset="0.8439" style="stop-color:#2B2DAB"/>
			<stop  offset="1" style="stop-color:#2525A5"/>
		</linearGradient>
		<rect x="106.8" y="0" class="st2" width="11.2" height="11.3"/>
	</g>
</g>
</svg>
