<?xml version="1.0" encoding="UTF-8"?>
<svg width="460px" height="320px" viewBox="0 0 460 320" version="1.1" xmlns="http://www.w3.org/2000/svg" xmlns:xlink="http://www.w3.org/1999/xlink">
    <title>paris</title>
    <defs>
        <linearGradient x1="50%" y1="0%" x2="50%" y2="100%" id="linearGradient-1">
            <stop stop-color="#2BA0DE" offset="0%"></stop>
            <stop stop-color="#473C9E" offset="100%"></stop>
        </linearGradient>
        <linearGradient x1="50%" y1="100%" x2="50%" y2="0.000120014874%" id="linearGradient-2">
            <stop stop-color="#1D7EE8" offset="0%"></stop>
            <stop stop-color="#2EA7DB" offset="100%"></stop>
        </linearGradient>
        <linearGradient x1="-0.138888889%" y1="50%" x2="99.8611111%" y2="50%" id="linearGradient-3">
            <stop stop-color="#2E60E8" offset="0%"></stop>
            <stop stop-color="#2E74DB" offset="100%"></stop>
        </linearGradient>
        <linearGradient x1="0%" y1="50%" x2="100%" y2="50%" id="linearGradient-4">
            <stop stop-color="#2E60E8" offset="0%"></stop>
            <stop stop-color="#2E74DB" offset="100%"></stop>
        </linearGradient>
        <linearGradient x1="0%" y1="50%" x2="100%" y2="50%" id="linearGradient-5">
            <stop stop-color="#2E60E8" offset="0%"></stop>
            <stop stop-color="#2E74DB" offset="100%"></stop>
        </linearGradient>
        <linearGradient x1="0%" y1="50%" x2="100%" y2="50%" id="linearGradient-6">
            <stop stop-color="#2E3192" offset="0%"></stop>
            <stop stop-color="#4C3EA1" offset="100%"></stop>
        </linearGradient>
        <linearGradient x1="-58.6392857%" y1="50%" x2="159.678571%" y2="50%" id="linearGradient-7">
            <stop stop-color="#2E3192" offset="0%"></stop>
            <stop stop-color="#4C3EA1" offset="100%"></stop>
        </linearGradient>
        <linearGradient x1="-0.273972603%" y1="49.9995191%" x2="99.5273973%" y2="49.9995191%" id="linearGradient-8">
            <stop stop-color="#4C3EA1" offset="0%"></stop>
            <stop stop-color="#2E3192" offset="100%"></stop>
        </linearGradient>
        <linearGradient x1="0%" y1="50%" x2="100%" y2="50%" id="linearGradient-9">
            <stop stop-color="#2E3192" offset="0%"></stop>
            <stop stop-color="#4C3EA1" offset="100%"></stop>
        </linearGradient>
        <linearGradient x1="0%" y1="50%" x2="99.78%" y2="50%" id="linearGradient-10">
            <stop stop-color="#4C3EA1" offset="0%"></stop>
            <stop stop-color="#2E3192" offset="100%"></stop>
        </linearGradient>
        <linearGradient x1="0.193181818%" y1="50%" x2="99.9886364%" y2="50%" id="linearGradient-11">
            <stop stop-color="#2E3192" offset="0%"></stop>
            <stop stop-color="#4C3EA1" offset="100%"></stop>
        </linearGradient>
        <linearGradient x1="0.270833333%" y1="50%" x2="100.0625%" y2="50%" id="linearGradient-12">
            <stop stop-color="#2E59BF" offset="0%"></stop>
            <stop stop-color="#593192" offset="100%"></stop>
        </linearGradient>
        <linearGradient x1="0%" y1="49.9996804%" x2="100%" y2="49.9996804%" id="linearGradient-13">
            <stop stop-color="#2E59BF" offset="0%"></stop>
            <stop stop-color="#593192" offset="100%"></stop>
        </linearGradient>
        <linearGradient x1="101.452487%" y1="50.0834739%" x2="-1.69429556%" y2="50.0834739%" id="linearGradient-14">
            <stop stop-color="#4531A7" offset="0%"></stop>
            <stop stop-color="#423179" offset="100%"></stop>
        </linearGradient>
        <linearGradient x1="-1.59835573%" y1="50.084317%" x2="101.138402%" y2="50.084317%" id="linearGradient-15">
            <stop stop-color="#4531A7" offset="0%"></stop>
            <stop stop-color="#423179" offset="100%"></stop>
        </linearGradient>
        <linearGradient x1="0.119897959%" y1="50%" x2="99.9209184%" y2="50%" id="linearGradient-16">
            <stop stop-color="#2E3192" offset="0%"></stop>
            <stop stop-color="#4C3EA1" offset="100%"></stop>
        </linearGradient>
        <linearGradient x1="0.130952381%" y1="50%" x2="99.9325397%" y2="50%" id="linearGradient-17">
            <stop stop-color="#2E3192" offset="0%"></stop>
            <stop stop-color="#4C3EA1" offset="100%"></stop>
        </linearGradient>
        <linearGradient x1="10.9%" y1="50%" x2="90.7%" y2="50%" id="linearGradient-18">
            <stop stop-color="#4531A7" offset="0%"></stop>
            <stop stop-color="#423179" offset="100%"></stop>
        </linearGradient>
        <linearGradient x1="0%" y1="50%" x2="100%" y2="50%" id="linearGradient-19">
            <stop stop-color="#451088" offset="0%"></stop>
            <stop stop-color="#593179" offset="100%"></stop>
        </linearGradient>
        <linearGradient x1="0%" y1="50%" x2="100%" y2="50%" id="linearGradient-20">
            <stop stop-color="#4C3EA1" offset="0%"></stop>
            <stop stop-color="#2E3192" offset="100%"></stop>
        </linearGradient>
        <linearGradient x1="0%" y1="50%" x2="99.8666667%" y2="50%" id="linearGradient-21">
            <stop stop-color="#4C3EA1" offset="0%"></stop>
            <stop stop-color="#2E3192" offset="100%"></stop>
        </linearGradient>
    </defs>
    <g id="paris" stroke="none" stroke-width="1" fill="none" fill-rule="evenodd">
        <rect id="Rectangle" fill="url(#linearGradient-1)" x="0" y="0" width="460" height="320"></rect>
        <g id="Paris" transform="translate(42.000000, 16.000000)">
            <path d="M24,187.321577 L24,304 L349,304 L349,185.989197 C349,92.7225947 269.894428,17.9189729 174.967742,24.3905331 C89.5718475,30.2910732 24,101.858915 24,187.321577 L24,187.321577 Z" id="Path" fill="url(#linearGradient-2)" fill-rule="nonzero"></path>
            <polygon id="Path" fill="#000000" fill-rule="nonzero" opacity="0.2" points="25 271 373 271 373 304 25 304"></polygon>
            <polyline id="Path" fill="#000000" fill-rule="nonzero" opacity="0.2" points="352 129.635264 278.465416 84 278.465416 177.55229 234.649472 177.55229 234.649472 152.833189 105.106682 152.833189 105.106682 231.934313 89.866354 255.132239 89.866354 168.044944 27 168.044944 27 304 350.856975 304 350.856975 118.606742"></polyline>
            <polygon id="Path" fill="url(#linearGradient-3)" fill-rule="nonzero" points="236 168 304 168 304 273 236 273"></polygon>
            <polygon id="Path" fill="#000000" fill-rule="nonzero" opacity="0.15" points="236 168 304 168 304 274 236 274"></polygon>
            <polygon id="Path" fill="#000000" fill-rule="nonzero" opacity="0.2" points="236 168 304 168 304 174 236 174"></polygon>
            <polyline id="Path" fill="#373E9B" fill-rule="nonzero" points="360 104 366 108.579387 366 241 360 241"></polyline>
            <polygon id="Path" fill="url(#linearGradient-4)" fill-rule="nonzero" points="291 105 359 105 359 211 291 211"></polygon>
            <polygon id="Path" fill="#000000" fill-rule="nonzero" opacity="0.2" points="291 104 359 104 359 110 291 110"></polygon>
            <polygon id="Path" fill="url(#linearGradient-5)" fill-rule="nonzero" points="288 209 356 209 356 277 288 277"></polygon>
            <path d="M215.592677,288.081964 C215.213234,288.081964 214.833792,288.081964 214.454349,288.274868 L214.454349,287.88906 C214.454349,287.503253 214.454349,287.117446 214.264628,286.924542 C214.074907,286.538735 214.074907,286.152928 214.264628,285.767121 C214.264628,285.574217 214.264628,285.381313 214.454349,285.381313 L214.454349,284.802603 L214.264628,284.609699 L214.264628,283.838084 C214.264628,283.838084 214.264628,283.645181 214.074907,283.645181 L213.695465,283.645181 L213.316022,283.259374 L211.798253,280.94453 C211.41881,280.751627 211.229089,280.365819 211.039368,280.172916 C210.849647,279.787108 210.470204,278.82259 210.280483,278.629687 C210.090762,278.436783 210.090762,278.24388 209.901041,278.050976 L209.901041,277.665169 C210.090762,277.472265 210.280483,277.472265 210.280483,277.472265 L210.659926,277.472265 L210.659926,276.507747 L210.849647,276.507747 L210.849647,276.314843 C210.849647,276.12194 210.659926,275.929036 210.659926,275.929036 L210.659926,275.543229 L211.039368,275.350325 L211.229089,275.350325 C211.039368,275.157422 210.849647,274.964518 210.849647,274.771614 C210.470204,274.385807 210.090762,274 209.331877,274 C208.762714,274 208.19355,274 207.814108,274.385807 L207.814108,274.771614 C207.814108,274.771614 207.624387,274.964518 207.624387,275.157422 L207.624387,275.929036 L207.814108,276.12194 L208.003829,276.12194 L208.003829,276.507747 C208.003829,276.507747 208.003829,276.700651 207.814108,276.700651 C207.814108,276.700651 207.434665,276.700651 207.244944,276.893554 L206.865502,277.279361 C206.58021,277.231057 206.315798,277.096633 206.106617,276.893554 C205.727175,276.893554 205.727175,277.086458 205.537454,277.086458 L205.537454,276.700651 C205.347732,276.314843 204.96829,276.700651 204.778569,276.507747 C204.588848,276.507747 204.399126,276.700651 204.399126,276.700651 C204.399126,276.700651 204.019684,276.700651 203.829963,276.893554 L203.829963,277.279361 L203.45052,277.279361 C203.260799,277.279361 203.45052,277.472265 203.260799,277.472265 C203.071078,277.472265 203.260799,277.279361 203.260799,277.279361 C203.071078,277.279361 202.881357,277.472265 202.881357,277.665169 L202.881357,277.858072 C202.881357,278.050976 202.501915,278.24388 202.501915,278.24388 C202.501915,278.436783 202.501915,278.436783 202.312193,278.629687 C202.122472,278.82259 202.122472,279.015494 202.122472,279.208398 C201.932751,279.594205 202.312193,279.980012 202.122472,280.365819 L202.122472,280.558723 C202.122472,280.94453 202.312193,281.523241 202.691636,281.716145 C202.501915,282.101952 202.501915,282.487759 202.312193,282.680663 L202.312193,283.452277 C202.312193,283.838084 202.691636,284.223892 203.071078,284.416795 C203.45052,284.609699 203.640242,284.802603 204.019684,284.802603 C204.161614,285.0929 204.3545,285.354396 204.588848,285.574217 C204.588848,285.767121 204.96829,286.538735 204.96829,286.538735 L204.96829,286.731639 L205.158011,286.731639 C204.96829,286.731639 204.96829,286.731639 204.778569,286.924542 L204.778569,287.117446 L205.347732,287.696157 L205.347732,287.88906 L205.158011,287.88906 C204.96829,287.88906 204.778569,288.081964 204.778569,288.274868 L204.588848,288.274868 C204.399126,288.467771 204.399126,288.660675 204.209405,288.660675 C203.45052,288.081964 202.501915,287.88906 201.553309,287.88906 C199.086933,287.88906 197,289.818097 197,292.325844 C197,294.833591 198.897212,296.95553 201.363587,296.95553 C203.071078,296.95553 204.778569,295.991012 205.537454,294.25488 L206.296338,294.061976 C206.296338,294.061976 206.486059,294.061976 206.675781,294.25488 C207.055223,294.25488 207.434665,294.447783 207.434665,294.447783 L208.003829,294.447783 L208.19355,294.640687 L208.383271,294.447783 C208.572993,294.447783 208.572993,294.25488 208.762714,294.25488 L208.762714,294.061976 L208.952435,294.061976 L209.331877,293.869072 L209.521599,293.869072 C209.521599,293.869072 209.71132,293.483265 209.142156,293.483265 L208.572993,293.483265 C208.572993,293.483265 208.383271,293.483265 208.19355,293.290362 L208.19355,293.097458 L208.003829,293.097458 L208.003829,292.711651 C208.003829,292.711651 208.003829,292.325844 207.814108,292.13294 L207.814108,291.940036 L211.987974,286.345831 C211.987974,286.345831 211.987974,286.538735 212.177695,286.731639 L212.177695,286.924542 C212.367416,287.117446 212.367416,287.31035 212.557138,287.503253 C212.746859,287.696157 212.746859,287.503253 212.93658,287.696157 L213.316022,288.467771 C211.229089,289.625193 210.280483,292.325844 211.608532,294.640687 C212.746859,296.762627 215.402955,297.727145 217.67961,296.376819 C219.766543,295.219398 220.715149,292.518747 219.3871,290.203904 C218.628216,288.660675 217.110446,287.88906 215.592677,288.081964 L215.592677,288.081964 Z M219.197379,291.940036 L217.489888,291.940036 L219.007658,291.168422 C219.007658,291.361325 219.197379,291.554229 219.197379,291.940036 L219.197379,291.940036 Z M219.007658,290.975518 L217.489888,291.940036 L217.110446,291.940036 C217.110446,291.940036 217.110446,291.747133 216.920725,291.554229 L216.920725,291.361325 L217.300167,290.975518 L218.817937,290.203904 C218.628216,290.396807 218.817937,290.782615 219.007658,290.975518 L219.007658,290.975518 Z M217.110446,292.711651 L216.731004,292.711651 L216.731004,292.518747 L217.110446,292.711651 Z M218.438494,290.203904 L217.300167,290.975518 L218.059052,289.818097 C218.248773,289.818097 218.248773,290.011 218.438494,290.203904 L218.438494,290.203904 Z M216.16184,288.853578 C216.351561,288.853578 216.731004,288.853578 216.920725,289.046482 L216.16184,290.396807 L216.16184,288.853578 L216.16184,288.853578 Z M216.16184,290.589711 L216.920725,289.046482 C217.110446,289.046482 217.300167,289.239386 217.67961,289.432289 L216.351561,291.168422 L216.16184,291.168422 L216.16184,290.589711 L216.16184,290.589711 Z M216.731004,293.097458 L216.920725,293.290362 L216.731004,293.097458 C216.541283,293.290362 216.731004,293.290362 216.731004,293.097458 Z M214.644071,291.168422 L213.695465,289.432289 L213.885186,289.239386 C214.074907,290.011 214.454349,290.589711 214.644071,291.168422 Z M214.074907,284.416795 C214.264628,284.609699 214.264628,284.609699 214.264628,284.802603 L214.074907,284.802603 L214.074907,284.416795 Z M214.074907,284.609699 C214.264628,284.802603 214.264628,284.995506 214.264628,284.995506 C214.264628,285.18841 214.074907,285.18841 213.885186,285.381313 C213.885186,285.18841 214.074907,284.995506 213.885186,284.995506 C214.074907,284.995506 213.885186,284.802603 214.074907,284.609699 C213.885186,284.802603 213.885186,284.802603 214.074907,284.609699 L214.074907,284.609699 Z M213.885186,284.416795 L214.074907,284.609699 L213.885186,284.416795 C213.885186,284.609699 213.695465,284.416795 213.885186,284.416795 Z M213.126301,284.802603 L214.074907,284.802603 C214.074907,284.802603 214.074907,284.995506 213.885186,285.18841 L213.695465,285.18841 C213.505744,285.18841 213.505744,284.995506 213.126301,284.802603 C213.316022,284.995506 213.126301,284.802603 213.126301,284.802603 L213.126301,284.802603 Z M205.916896,291.940036 C205.916896,291.554229 205.916896,291.361325 205.727175,290.975518 L206.106617,290.975518 C206.106617,291.168422 206.106617,291.361325 206.296338,291.361325 L206.296338,291.747133 L205.916896,291.747133 L205.916896,291.940036 L205.916896,291.940036 Z M204.778569,286.924542 C204.778569,286.924542 204.96829,286.924542 205.158011,286.731639 L205.158011,286.924542 C205.158011,286.924542 204.96829,286.924542 204.96829,287.117446 C204.778569,287.117446 204.778569,286.924542 204.778569,286.924542 L204.778569,286.924542 Z M204.96829,287.31035 C204.96829,287.31035 205.158011,287.31035 205.158011,287.117446 L204.96829,287.31035 C205.158011,287.503253 205.158011,287.31035 204.96829,287.31035 Z M204.778569,290.782615 L203.260799,291.747133 L202.881357,291.747133 C202.881357,291.747133 202.881357,291.554229 202.691636,291.361325 L202.691636,291.168422 L203.071078,290.782615 L204.588848,290.011 C204.588848,290.396807 204.778569,290.589711 204.778569,290.782615 L204.778569,290.782615 Z M203.45052,291.747133 L204.96829,290.975518 C205.158011,291.168422 205.158011,291.554229 205.158011,291.747133 L203.45052,291.747133 L203.45052,291.747133 Z M205.158011,291.747133 C205.158011,291.747133 205.158011,291.940036 205.158011,291.747133 L203.260799,291.747133 L205.158011,291.747133 Z M204.399126,290.011 L203.260799,290.782615 L204.019684,289.625193 C204.019684,289.818097 204.209405,290.011 204.399126,290.011 L204.399126,290.011 Z M202.122472,288.853578 C202.312193,288.853578 202.691636,289.046482 202.881357,289.046482 L202.122472,290.396807 L202.122472,288.853578 L202.122472,288.853578 Z M202.122472,290.589711 L202.881357,289.046482 C203.071078,289.046482 203.260799,289.239386 203.640242,289.432289 L202.312193,291.168422 L202.122472,291.168422 L202.122472,290.589711 L202.122472,290.589711 Z M203.45052,294.640687 L202.691636,294.833591 L202.691636,294.447783 L202.501915,294.447783 L202.501915,293.483265 L202.881357,293.676169 L203.45052,294.640687 Z M202.881357,293.676169 L204.399126,294.447783 L203.640242,294.640687 L202.881357,293.676169 L202.881357,293.676169 Z M199.466375,289.432289 L200.22526,290.975518 L198.707491,290.203904 C199.086933,289.818097 199.086933,289.625193 199.466375,289.432289 L199.466375,289.432289 Z M198.707491,290.011 L200.22526,290.975518 L200.414981,291.361325 C200.414981,291.361325 200.22526,291.554229 200.22526,291.747133 L199.845818,291.747133 L198.138327,290.782615 C198.328048,290.589711 198.51777,290.396807 198.707491,290.011 L198.707491,290.011 Z M200.414981,292.711651 L200.035539,292.711651 L200.414981,292.711651 C200.22526,292.518747 200.22526,292.711651 200.414981,292.711651 Z M200.035539,291.940036 L200.414981,291.940036 L200.414981,292.13294 L200.035539,291.940036 Z M198.328048,290.782615 L199.845818,291.554229 L197.948606,291.554229 L198.328048,290.782615 Z M197.948606,292.518747 L197.948606,291.940036 L199.845818,291.940036 L200.22526,292.13294 L200.22526,292.518747 L199.845818,292.711651 L197.948606,292.518747 L197.948606,292.518747 Z M197.948606,292.711651 L199.845818,292.711651 L198.138327,293.676169 C197.948606,293.483265 197.948606,293.097458 197.948606,292.711651 Z M198.138327,293.869072 L200.035539,292.711651 L200.414981,292.711651 C200.414981,292.711651 200.414981,292.904554 200.604703,293.097458 L200.414981,293.483265 L198.51777,294.640687 C198.328048,294.25488 198.138327,294.061976 198.138327,293.869072 L198.138327,293.869072 Z M198.51777,294.640687 L200.22526,293.676169 L199.276654,295.412301 L198.51777,294.640687 Z M200.984145,296.183916 C200.604703,296.183916 200.22526,295.991012 200.035539,295.798109 L200.984145,294.061976 L200.984145,296.183916 Z M200.984145,294.061976 L199.845818,295.991012 C199.656097,295.991012 199.466375,295.798109 199.086933,295.605205 L200.22526,293.676169 L200.414981,293.483265 L200.794424,293.483265 L200.794424,294.061976 L200.984145,294.061976 L200.984145,294.061976 Z M200.984145,291.168422 C200.984145,291.168422 200.794424,291.168422 200.604703,291.361325 L200.22526,291.168422 L199.276654,289.625193 C199.466375,289.432289 199.656097,289.239386 200.035539,289.239386 L200.984145,290.782615 L200.984145,291.168422 Z M200.984145,290.396807 L200.22526,289.046482 C200.414981,289.046482 200.794424,288.853578 200.984145,288.853578 L200.984145,290.396807 L200.984145,290.396807 Z M201.932751,296.183916 L201.173866,296.183916 L201.173866,294.061976 L201.363587,293.676169 C201.363587,293.676169 201.553309,293.869072 201.74303,293.869072 L201.932751,293.869072 L201.932751,296.183916 L201.932751,296.183916 Z M201.932751,290.589711 L201.74303,290.975518 L201.363587,290.975518 L201.173866,290.589711 L201.173866,288.853578 L201.932751,288.853578 L201.932751,290.589711 L201.932751,290.589711 Z M202.122472,296.183916 L202.122472,295.219398 C202.122472,295.219398 202.122472,295.412301 202.312193,295.412301 L202.691636,295.219398 L203.071078,295.991012 C202.691636,295.991012 202.312193,296.183916 202.122472,296.183916 Z M203.071078,295.798109 L202.691636,295.026494 L203.45052,294.833591 L203.829963,295.412301 C203.620782,295.615381 203.35637,295.749804 203.071078,295.798109 L203.071078,295.798109 Z M203.829963,295.412301 L203.45052,294.833591 L204.399126,294.640687 C204.399126,294.833591 204.019684,295.026494 203.829963,295.412301 Z M204.588848,294.447783 L202.881357,293.483265 L202.691636,293.097458 C202.691636,293.097458 202.691636,292.904554 202.881357,292.904554 L203.829963,293.097458 L204.96829,293.869072 C204.778569,294.061976 204.778569,294.25488 204.588848,294.447783 L204.588848,294.447783 Z M204.96829,293.676169 L204.019684,293.097458 L204.96829,293.290362 L204.96829,293.676169 L204.96829,293.676169 Z M202.881357,292.325844 L205.158011,292.13294 L205.158011,292.325844 L202.881357,292.325844 Z M204.96829,288.274868 C204.96829,288.081964 205.158011,288.081964 205.347732,287.88906 C205.158011,288.081964 205.158011,288.274868 204.96829,288.274868 Z M205.347732,288.081964 C205.158011,288.081964 204.96829,288.274868 204.96829,288.467771 L204.778569,288.467771 C204.778569,288.274868 204.96829,288.081964 205.347732,288.081964 C205.347732,287.88906 205.347732,287.88906 205.347732,288.081964 Z M205.537454,287.117446 L205.916896,287.31035 C205.916896,287.31035 205.727175,287.31035 205.537454,287.117446 C205.537454,287.31035 205.537454,287.117446 205.537454,287.117446 Z M205.537454,294.25488 C205.727175,293.869072 205.727175,293.676169 205.916896,293.483265 C205.916896,293.676169 206.106617,293.869072 206.296338,293.869072 L206.296338,294.25488 L205.537454,294.25488 L205.537454,294.25488 Z M207.244944,282.487759 C207.244944,282.487759 207.434665,282.101952 207.624387,281.909048 C207.814108,281.716145 208.003829,281.523241 208.003829,281.330337 C208.003829,281.137434 208.003829,280.94453 208.19355,280.751627 C208.295686,280.959932 208.423166,281.154359 208.572993,281.330337 C208.762714,281.523241 208.952435,282.101952 208.952435,282.101952 C209.094365,282.392249 209.287251,282.653745 209.521599,282.873566 L211.039368,284.416795 L211.039368,284.609699 L210.849647,284.609699 C210.849647,284.609699 211.039368,284.609699 211.039368,284.416795 L211.039368,284.223892 L211.41881,284.609699 C211.41881,284.609699 211.608532,284.995506 211.798253,284.995506 L211.987974,284.995506 L208.952435,286.152928 L209.521599,285.574217 C209.901041,285.18841 209.901041,284.802603 209.901041,284.416795 C209.901041,284.030988 209.521599,283.645181 209.142156,283.645181 C208.762714,283.452277 208.383271,283.06647 208.19355,282.873566 C207.814108,282.873566 207.434665,282.873566 207.244944,282.487759 L207.244944,282.487759 Z M208.952435,286.924542 L208.003829,287.31035 L208.952435,286.924542 Z M209.71132,288.853578 L209.71132,288.660675 L209.901041,288.467771 L210.090762,288.081964 L210.090762,287.696157 L209.901041,287.503253 L209.901041,287.31035 L209.71132,287.117446 L209.331877,287.117446 L209.142156,287.503253 L208.003829,289.046482 L208.003829,289.432289 L208.383271,289.818097 L208.762714,289.818097 L208.762714,290.011 L208.952435,290.011 L208.003829,291.168422 C207.814108,291.168422 207.624387,290.975518 207.624387,290.975518 L207.624387,290.589711 C207.624387,290.396807 207.624387,290.203904 207.814108,290.011 L207.814108,288.853578 C207.814108,288.467771 207.814108,288.081964 208.003829,287.88906 L208.003829,287.503253 L209.521599,286.731639 L211.039368,286.152928 L211.798253,286.152928 L209.71132,288.853578 L209.71132,288.853578 Z M211.798253,286.152928 L211.039368,286.152928 L211.987974,285.767121 L211.798253,286.152928 Z M212.367416,284.223892 C212.367416,284.223892 212.367416,284.030988 212.367416,284.223892 C212.557138,284.030988 212.557138,284.030988 212.367416,283.838084 C212.177695,283.645181 211.987974,283.838084 211.987974,283.838084 L211.798253,283.838084 C211.608532,283.838084 211.608532,283.645181 211.41881,283.645181 L211.229089,283.645181 C211.229089,283.645181 210.470204,282.294855 210.280483,281.716145 C210.090762,281.330337 209.71132,280.94453 209.521599,280.558723 C209.331877,280.172916 209.142156,279.980012 209.142156,279.980012 C209.142156,279.980012 209.521599,280.365819 209.521599,280.558723 C209.71132,280.751627 209.901041,281.137434 210.280483,281.330337 C210.470204,281.523241 210.659926,281.716145 210.659926,281.909048 C211.039368,282.294855 211.41881,282.680663 211.798253,282.873566 L212.177695,283.259374 L212.177695,283.452277 L212.367416,283.452277 L212.367416,283.645181 L212.557138,283.838084 C212.746859,284.223892 212.367416,284.223892 212.367416,284.223892 Z M212.557138,285.381313 C212.746859,285.381313 212.93658,285.381313 212.93658,285.18841 L212.93658,284.995506 L213.695465,284.995506 C213.505744,285.381313 213.126301,285.574217 212.557138,285.767121 L212.557138,285.381313 L212.557138,285.381313 Z M212.746859,285.767121 C213.126301,285.767121 213.505744,285.381313 213.885186,284.995506 C213.885186,284.995506 213.885186,285.18841 213.695465,285.381313 C213.505744,285.767121 213.126301,285.767121 212.746859,285.767121 L212.746859,285.767121 Z M212.746859,285.960024 C213.126301,285.960024 213.316022,285.767121 213.695465,285.574217 C213.885186,285.381313 213.885186,285.381313 213.885186,285.18841 C213.885186,285.18841 213.885186,284.995506 214.074907,284.995506 L214.074907,285.18841 C214.074907,285.381313 214.074907,285.574217 213.885186,285.767121 C213.885186,285.767121 213.695465,285.767121 213.695465,285.960024 C213.505744,285.767121 213.126301,285.960024 212.746859,285.960024 L212.746859,285.960024 Z M212.746859,285.960024 C213.126301,285.960024 213.316022,285.767121 213.505744,285.574217 C213.505744,285.960024 213.126301,286.152928 212.746859,285.960024 Z M213.505744,286.924542 L213.126301,286.731639 L212.93658,286.152928 C213.316022,285.960024 213.695465,285.767121 213.885186,285.574217 C214.074907,285.574217 214.074907,285.381313 214.264628,285.18841 L214.264628,285.381313 C214.074907,285.767121 214.074907,286.152928 214.264628,286.538735 C214.264628,286.924542 214.454349,287.117446 214.454349,287.503253 L214.074907,287.503253 L213.505744,286.924542 L213.505744,286.924542 Z M213.505744,289.432289 L214.264628,290.975518 L212.746859,290.203904 L213.505744,289.432289 L213.505744,289.432289 Z M212.746859,290.203904 L214.264628,291.168422 L214.454349,291.554229 C214.454349,291.554229 214.264628,291.747133 214.264628,291.940036 L213.885186,291.940036 L212.177695,290.975518 C212.557138,290.589711 212.746859,290.396807 212.746859,290.203904 L212.746859,290.203904 Z M214.454349,292.711651 L214.074907,292.711651 L214.454349,292.711651 Z M214.264628,291.940036 L214.644071,291.940036 L214.644071,292.13294 L214.264628,291.940036 Z M212.367416,290.975518 L213.885186,291.940036 L211.987974,291.940036 C212.177695,291.554229 212.177695,291.168422 212.367416,290.975518 Z M211.987974,292.518747 L211.987974,291.940036 L213.885186,291.940036 L214.264628,292.13294 L214.264628,292.518747 L213.885186,292.711651 L211.987974,292.518747 C211.987974,292.711651 211.987974,292.518747 211.987974,292.518747 L211.987974,292.518747 Z M211.987974,292.711651 L213.885186,292.711651 L212.177695,293.676169 C211.987974,293.483265 211.987974,293.097458 211.987974,292.711651 Z M212.177695,293.869072 L214.074907,292.904554 L214.454349,292.904554 C214.454349,292.904554 214.454349,293.097458 214.644071,293.290362 L214.454349,293.676169 L212.557138,294.833591 C212.367416,294.447783 212.367416,294.061976 212.177695,293.869072 L212.177695,293.869072 Z M212.746859,294.640687 L214.454349,293.676169 L213.505744,295.412301 C213.166734,295.260711 212.895948,294.985384 212.746859,294.640687 L212.746859,294.640687 Z M215.213234,296.183916 C214.833792,296.183916 214.454349,295.991012 214.264628,295.798109 L215.213234,294.061976 L215.213234,296.183916 Z M215.213234,294.061976 L214.074907,295.991012 C213.885186,295.991012 213.695465,295.798109 213.316022,295.605205 L214.454349,293.676169 L214.833792,293.483265 C214.833792,293.483265 215.023513,293.676169 215.213234,293.676169 L215.213234,294.061976 Z M215.213234,290.782615 L214.833792,289.818097 L215.213234,290.589711 L215.213234,290.782615 Z M215.213234,290.396807 L214.454349,289.046482 L214.454349,288.853578 C214.644071,288.853578 215.023513,288.660675 215.213234,288.660675 L215.213234,290.396807 L215.213234,290.396807 Z M215.972119,296.183916 L215.213234,296.183916 L215.213234,293.869072 L215.402955,293.483265 L215.782398,293.483265 L215.972119,293.869072 L215.972119,296.183916 L215.972119,296.183916 Z M215.972119,290.589711 L215.782398,290.975518 L215.402955,290.975518 L215.213234,290.589711 L215.213234,288.660675 L215.972119,288.660675 L215.972119,290.589711 L215.972119,290.589711 Z M215.972119,296.183916 L215.972119,294.25488 L216.920725,295.991012 C216.731004,296.183916 216.541283,296.183916 215.972119,296.183916 Z M217.110446,295.798109 L215.972119,293.869072 L215.972119,293.483265 C215.972119,293.483265 216.16184,293.483265 216.351561,293.290362 L216.731004,293.483265 L217.67961,295.412301 C217.489888,295.605205 217.300167,295.798109 217.110446,295.798109 L217.110446,295.798109 Z M217.869331,295.412301 L217.110446,293.676169 L218.628216,294.640687 C218.438494,294.833591 218.248773,295.219398 217.869331,295.412301 L217.869331,295.412301 Z M218.628216,294.640687 L216.920725,293.676169 L216.731004,293.290362 C216.731004,293.290362 216.920725,293.097458 216.920725,292.904554 L217.300167,292.904554 L219.007658,293.869072 C218.817937,294.25488 218.628216,294.447783 218.628216,294.640687 L218.628216,294.640687 Z M219.007658,293.869072 L217.489888,292.904554 L219.197379,292.904554 C219.197379,293.097458 219.197379,293.483265 219.007658,293.869072 L219.007658,293.869072 Z M217.300167,292.711651 L216.920725,292.518747 L216.920725,292.13294 L217.300167,291.940036 L219.197379,291.940036 L219.197379,292.711651 L217.300167,292.711651 L217.300167,292.711651 Z" id="Shape" fill="#1D1D1B" fill-rule="nonzero" opacity="0.7"></path>
            <path d="M296.542373,134.987342 L311.864407,134.987342 L311.864407,140.683544 L296.542373,140.683544 L296.542373,134.987342 Z M296.542373,144.481013 L311.864407,144.481013 L311.864407,150.177215 L296.542373,150.177215 L296.542373,144.481013 Z M296.542373,153.974684 L311.864407,153.974684 L311.864407,159.670886 L296.542373,159.670886 L296.542373,153.974684 Z M296.542373,116 L311.864407,116 L311.864407,121.696203 L296.542373,121.696203 L296.542373,116 Z M296.542373,125.493671 L311.864407,125.493671 L311.864407,131.189873 L296.542373,131.189873 L296.542373,125.493671 Z M317.610169,134.987342 L332.932203,134.987342 L332.932203,140.683544 L317.610169,140.683544 L317.610169,134.987342 Z M317.610169,144.481013 L332.932203,144.481013 L332.932203,150.177215 L317.610169,150.177215 L317.610169,144.481013 Z M317.610169,153.974684 L332.932203,153.974684 L332.932203,159.670886 L317.610169,159.670886 L317.610169,153.974684 Z M317.610169,116 L332.932203,116 L332.932203,121.696203 L317.610169,121.696203 L317.610169,116 Z M317.610169,125.493671 L332.932203,125.493671 L332.932203,131.189873 L317.610169,131.189873 L317.610169,125.493671 Z M338.677966,134.987342 L354,134.987342 L354,140.683544 L338.677966,140.683544 L338.677966,134.987342 Z M338.677966,144.481013 L354,144.481013 L354,150.177215 L338.677966,150.177215 L338.677966,144.481013 Z M338.677966,153.974684 L354,153.974684 L354,159.670886 L338.677966,159.670886 L338.677966,153.974684 Z M296.542373,163.468354 L311.864407,163.468354 L311.864407,169.164557 L296.542373,169.164557 L296.542373,163.468354 Z M317.610169,163.468354 L332.932203,163.468354 L332.932203,169.164557 L317.610169,169.164557 L317.610169,163.468354 Z M338.677966,163.468354 L354,163.468354 L354,169.164557 L338.677966,169.164557 L338.677966,163.468354 Z M338.677966,116 L354,116 L354,121.696203 L338.677966,121.696203 L338.677966,116 Z M338.677966,125.493671 L354,125.493671 L354,131.189873 L338.677966,131.189873 L338.677966,125.493671 Z M296.542373,193.848101 L311.864407,193.848101 L311.864407,199.544304 L296.542373,199.544304 L296.542373,193.848101 Z M296.542373,201.443038 L311.864407,201.443038 L311.864407,207.139241 L296.542373,207.139241 L296.542373,201.443038 Z M296.542373,210.936709 L311.864407,210.936709 L311.864407,216.632911 L296.542373,216.632911 L296.542373,210.936709 Z M296.542373,172.962025 L311.864407,172.962025 L311.864407,178.658228 L296.542373,178.658228 L296.542373,172.962025 Z M296.542373,184.35443 L311.864407,184.35443 L311.864407,190.050633 L296.542373,190.050633 L296.542373,184.35443 Z M317.610169,193.848101 L332.932203,193.848101 L332.932203,199.544304 L317.610169,199.544304 L317.610169,193.848101 Z M315.694915,201.443038 L331.016949,201.443038 L331.016949,207.139241 L315.694915,207.139241 L315.694915,201.443038 Z M315.694915,210.936709 L331.016949,210.936709 L331.016949,216.632911 L315.694915,216.632911 L315.694915,210.936709 Z M317.610169,172.962025 L332.932203,172.962025 L332.932203,178.658228 L317.610169,178.658228 L317.610169,172.962025 Z M317.610169,184.35443 L332.932203,184.35443 L332.932203,190.050633 L317.610169,190.050633 L317.610169,184.35443 Z M338.677966,193.848101 L354,193.848101 L354,199.544304 L338.677966,199.544304 L338.677966,193.848101 Z M336.762712,201.443038 L352.084746,201.443038 L352.084746,207.139241 L336.762712,207.139241 L336.762712,201.443038 Z M336.762712,210.936709 L352.084746,210.936709 L352.084746,216.632911 L336.762712,216.632911 L336.762712,210.936709 Z M296.542373,222.329114 L311.864407,222.329114 L311.864407,228.025316 L296.542373,228.025316 L296.542373,222.329114 Z M315.694915,222.329114 L331.016949,222.329114 L331.016949,228.025316 L315.694915,228.025316 L315.694915,222.329114 Z M336.762712,222.329114 L352.084746,222.329114 L352.084746,228.025316 L336.762712,228.025316 L336.762712,222.329114 Z M338.677966,172.962025 L354,172.962025 L354,178.658228 L338.677966,178.658228 L338.677966,172.962025 Z M338.677966,184.35443 L354,184.35443 L354,190.050633 L338.677966,190.050633 L338.677966,184.35443 Z M298.457627,250.810127 L313.779661,250.810127 L313.779661,256.506329 L298.457627,256.506329 L298.457627,250.810127 Z M298.457627,260.303797 L313.779661,260.303797 L313.779661,266 L298.457627,266 L298.457627,260.303797 Z M298.457627,231.822785 L313.779661,231.822785 L313.779661,237.518987 L298.457627,237.518987 L298.457627,231.822785 Z M298.457627,241.316456 L313.779661,241.316456 L313.779661,247.012658 L298.457627,247.012658 L298.457627,241.316456 Z M319.525424,250.810127 L334.847458,250.810127 L334.847458,256.506329 L319.525424,256.506329 L319.525424,250.810127 Z M319.525424,260.303797 L334.847458,260.303797 L334.847458,266 L319.525424,266 L319.525424,260.303797 Z M317.610169,231.822785 L332.932203,231.822785 L332.932203,237.518987 L317.610169,237.518987 L317.610169,231.822785 Z M319.525424,241.316456 L334.847458,241.316456 L334.847458,247.012658 L319.525424,247.012658 L319.525424,241.316456 Z M338.677966,250.810127 L354,250.810127 L354,256.506329 L338.677966,256.506329 L338.677966,250.810127 Z M338.677966,260.303797 L354,260.303797 L354,266 L338.677966,266 L338.677966,260.303797 Z M338.677966,231.822785 L354,231.822785 L354,237.518987 L338.677966,237.518987 L338.677966,231.822785 Z M338.677966,241.316456 L354,241.316456 L354,247.012658 L338.677966,247.012658 L338.677966,241.316456 Z M241,197.64557 L252.491525,197.64557 L252.491525,203.341772 L241,203.341772 L241,197.64557 Z M241,207.139241 L252.491525,207.139241 L252.491525,212.835443 L241,212.835443 L241,207.139241 Z M241,216.632911 L252.491525,216.632911 L252.491525,222.329114 L241,222.329114 L241,216.632911 Z M241,176.759494 L252.491525,176.759494 L252.491525,182.455696 L241,182.455696 L241,176.759494 Z M241,186.253165 L252.491525,186.253165 L252.491525,191.949367 L241,191.949367 L241,186.253165 Z M258.237288,197.64557 L269.728814,197.64557 L269.728814,203.341772 L258.237288,203.341772 L258.237288,197.64557 Z M258.237288,205.240506 L269.728814,205.240506 L269.728814,210.936709 L258.237288,210.936709 L258.237288,205.240506 Z M258.237288,214.734177 L269.728814,214.734177 L269.728814,220.43038 L258.237288,220.43038 L258.237288,214.734177 Z M258.237288,176.759494 L269.728814,176.759494 L269.728814,182.455696 L258.237288,182.455696 L258.237288,176.759494 Z M258.237288,186.253165 L269.728814,186.253165 L269.728814,191.949367 L258.237288,191.949367 L258.237288,186.253165 Z M275.474576,197.64557 L286.966102,197.64557 L286.966102,203.341772 L275.474576,203.341772 L275.474576,197.64557 Z M275.474576,205.240506 L286.966102,205.240506 L286.966102,210.936709 L275.474576,210.936709 L275.474576,205.240506 Z M275.474576,214.734177 L286.966102,214.734177 L286.966102,220.43038 L275.474576,220.43038 L275.474576,214.734177 Z M241,226.126582 L252.491525,226.126582 L252.491525,231.822785 L241,231.822785 L241,226.126582 Z M258.237288,226.126582 L269.728814,226.126582 L269.728814,231.822785 L258.237288,231.822785 L258.237288,226.126582 Z M275.474576,226.126582 L286.966102,226.126582 L286.966102,231.822785 L275.474576,231.822785 L275.474576,226.126582 Z M275.474576,176.759494 L286.966102,176.759494 L286.966102,182.455696 L275.474576,182.455696 L275.474576,176.759494 Z M275.474576,186.253165 L286.966102,186.253165 L286.966102,191.949367 L275.474576,191.949367 L275.474576,186.253165 Z M241,254.607595 L252.491525,254.607595 L252.491525,260.303797 L241,260.303797 L241,254.607595 Z M241,235.620253 L252.491525,235.620253 L252.491525,241.316456 L241,241.316456 L241,235.620253 Z M241,245.113924 L252.491525,245.113924 L252.491525,250.810127 L241,250.810127 L241,245.113924 Z M258.237288,254.607595 L269.728814,254.607595 L269.728814,260.303797 L258.237288,260.303797 L258.237288,254.607595 Z M258.237288,235.620253 L269.728814,235.620253 L269.728814,241.316456 L258.237288,241.316456 L258.237288,235.620253 Z M258.237288,245.113924 L269.728814,245.113924 L269.728814,250.810127 L258.237288,250.810127 L258.237288,245.113924 Z M275.474576,254.607595 L286.966102,254.607595 L286.966102,260.303797 L275.474576,260.303797 L275.474576,254.607595 Z M275.474576,235.620253 L286.966102,235.620253 L286.966102,241.316456 L275.474576,241.316456 L275.474576,235.620253 Z M275.474576,245.113924 L286.966102,245.113924 L286.966102,250.810127 L275.474576,250.810127 L275.474576,245.113924 Z" id="Shape" fill="#FFFFFF" fill-rule="nonzero" opacity="0.1"></path>
            <polygon id="Path" fill="url(#linearGradient-6)" fill-rule="nonzero" points="254 208 254 304 284.4 304 284.4 230.811881 335.7 230.811881 335.7 304 368 304 368 208"></polygon>
            <path d="M283,230 L283,302 L286.785714,302 L286.785714,255.578947 C286.785714,243.263158 296.439286,232.652632 308.932143,232.273684 C321.425,231.894737 331.835714,241.936842 332.214286,254.442105 L332.214286,302 L336,302 L336,230 L283,230 Z" id="Path" fill="url(#linearGradient-7)" fill-rule="nonzero"></path>
            <path d="M282.867925,230 L282.867925,302 L286.679245,302 L286.679245,255.389474 C286.679245,243.073684 296.398113,232.652632 308.975472,232.273684 C321.743396,231.894737 332.224528,241.747368 332.415094,254.252632 L332.415094,302 L334.320755,302 L334.320755,230 L282.867925,230 Z M361,296.315789 L361,271.873684 C361,267.515789 357.569811,264.105263 353.186792,264.105263 L351.662264,264.105263 C347.279245,264.105263 343.849057,267.515789 343.849057,271.873684 L343.849057,296.315789 M277.150943,296.315789 L277.150943,271.873684 C277.150943,267.515789 273.720755,264.105263 269.337736,264.105263 L267.813208,264.105263 C263.430189,264.105263 260,267.515789 260,271.873684 L260,296.315789" id="Shape" fill="#000000" fill-rule="nonzero" opacity="0.15"></path>
            <path d="M316,233.24641 C315.041096,233.24641 314.082192,233.056346 313.123288,233.056346 C299.315068,232.106025 288,243.319817 288,255.864059 L288,303 L293.753425,303 L293.753425,255.864059 C293.753425,244.270138 303.342466,234.57686 316,233.24641 L316,233.24641 Z" id="Path" fill="url(#linearGradient-8)" fill-rule="nonzero"></path>
            <path d="M316,233.268837 C315.041096,233.268837 314.082192,233.078834 313.123288,233.078834 C299.506849,231.938815 288,243.339005 288,255.879214 L288,303 L293.753425,303 L293.753425,255.879214 C293.753425,244.289021 303.342466,234.598859 316,233.268837 L316,233.268837 Z" id="Path" fill="#000000" fill-rule="nonzero" opacity="0.3"></path>
            <path d="M254.901639,254.571429 L283.42623,254.571429 L283.42623,255.879121 L254.901639,255.879121 L254.901639,254.571429 Z M253,223 L367.098361,223 L367.098361,224.868132 L253,224.868132 L253,223 Z M334.770492,254.758242 L369,254.758242 L369,257 L334.770492,257 L334.770492,254.758242 Z" id="Shape" fill="#000000" fill-rule="nonzero" opacity="0.15"></path>
            <polygon id="Path" fill="url(#linearGradient-9)" fill-rule="nonzero" points="249 201 373 201 373 224 249 224"></polygon>
            <polygon id="Path" fill="#000000" fill-rule="nonzero" opacity="0.3" points="250 201 373.053435 201 374 204 250 204"></polygon>
            <polygon id="Path" fill="url(#linearGradient-10)" fill-rule="nonzero" points="373 202 373 222.971963 368 222.971963 368 304 372 304 372 230.598131 378 230.598131 378 207.528972"></polygon>
            <polygon id="Path" fill="#000000" fill-rule="nonzero" opacity="0.3" points="373 202 373 222.971963 368 222.971963 368 304 372 304 372 230.598131 378 230.598131 378 207.528972"></polygon>
            <path d="M260.853403,206 C262.565445,206 263.706806,207.12 263.706806,208.426667 L263.706806,217.573333 C263.706806,219.066667 262.565445,220 260.853403,220 C259.141361,220 258,218.88 258,217.573333 L258,208.426667 C258,206.933333 259.141361,206 260.853403,206 L260.853403,206 Z M273.21815,206 C274.930192,206 276.071553,207.12 276.071553,208.426667 L276.071553,217.573333 C276.071553,219.066667 274.930192,220 273.21815,220 C271.506108,220 270.364747,218.88 270.364747,217.573333 L270.364747,208.426667 C270.364747,206.933333 271.506108,206 273.21815,206 L273.21815,206 Z M285.582897,206 C287.294939,206 288.4363,207.12 288.4363,208.426667 L288.4363,217.573333 C288.4363,219.066667 287.294939,220 285.582897,220 C283.870855,220 282.729494,218.88 282.729494,217.573333 L282.729494,208.426667 C282.729494,206.933333 283.870855,206 285.582897,206 L285.582897,206 Z M298.898778,206 C300.61082,206 301.752182,207.12 301.752182,208.426667 L301.752182,217.573333 C301.752182,219.066667 300.61082,220 298.898778,220 C297.186736,220 296.045375,218.88 296.045375,217.573333 L296.045375,208.426667 C296.235602,206.933333 297.56719,206 298.898778,206 L298.898778,206 Z M312.21466,206 C313.926702,206 315.068063,207.12 315.068063,208.426667 L315.068063,217.573333 C315.068063,219.066667 313.926702,220 312.21466,220 C310.502618,220 309.361257,218.88 309.361257,217.573333 L309.361257,208.426667 C309.551483,206.933333 310.692845,206 312.21466,206 L312.21466,206 Z M325.530541,206 C327.242583,206 328.383944,207.12 328.383944,208.426667 L328.383944,217.573333 C328.383944,219.066667 327.242583,220 325.530541,220 C323.818499,220 322.677138,218.88 322.677138,217.573333 L322.677138,208.426667 C322.867365,206.933333 324.198953,206 325.530541,206 L325.530541,206 Z M338.846422,206 C340.558464,206 341.699825,207.12 341.699825,208.426667 L341.699825,217.573333 C341.699825,219.066667 340.558464,220 338.846422,220 C337.13438,220 335.993019,218.88 335.993019,217.573333 L335.993019,208.426667 C335.993019,206.933333 337.13438,206 338.846422,206 L338.846422,206 Z M352.162304,206 C353.874346,206 355.015707,207.12 355.015707,208.426667 L355.015707,217.573333 C355.015707,219.066667 353.874346,220 352.162304,220 C350.450262,220 349.308901,218.88 349.308901,217.573333 L349.308901,208.426667 C349.308901,206.933333 350.450262,206 352.162304,206 L352.162304,206 Z M364.146597,206 C365.858639,206 367,207.12 367,208.426667 L367,217.573333 C367,219.066667 365.858639,220 364.146597,220 C362.434555,220 361.293194,218.88 361.293194,217.573333 L361.293194,208.426667 C361.293194,206.933333 362.624782,206 364.146597,206 L364.146597,206 Z" id="Shape" fill="#000000" fill-rule="nonzero" opacity="0.15"></path>
            <polygon id="Path" fill="url(#linearGradient-11)" fill-rule="nonzero" points="192.136364 47 182.863636 47 179 50.75 179 61.25 182.863636 65 192.136364 65 196 61.25 196 50.75"></polygon>
            <path d="M191.111111,54 L194,54 L194,57 L191.111111,57 L191.111111,54 Z M186.055556,54 L188.944444,54 L188.944444,57 L186.055556,57 L186.055556,54 Z M181,54 L183.888889,54 L183.888889,57 L181,57 L181,54 Z" id="Shape" fill="#FFFFFF" fill-rule="nonzero"></path>
            <polygon id="Path" fill="url(#linearGradient-12)" fill-rule="nonzero" points="191 47 187.0625 36.1687243 187.25 36.1687243 187.25 0 185.75 0 185.75 36.1687243 185.9375 36.1687243 182 47"></polygon>
            <path d="M215.009302,230.947262 C214.818605,230.947262 191.172093,143.036985 191.172093,65 L182.018605,65 C182.018605,143.036985 158.372093,230.947262 158.372093,230.947262 L157.990698,230.947262 C141.781395,271.579658 125,289.998584 125,289.998584 L149.218605,289.998584 C149.218605,289.998584 154.939535,279.364369 161.804651,263.415204 C164.093023,262.086107 183.353488,241.580038 211.004651,263.225333 C218.060465,279.364369 223.781395,289.998584 223.781395,289.998584 L248,289.998584 C248,290.187017 231.027907,271.579658 215.009302,230.947262 Z M156.083721,270.440432 L156.083721,269.870819 L156.083721,270.440432 Z M186.595349,229.428294 L173.627907,229.428294 C173.627907,229.428294 175.916279,224.87139 180.683721,201.327384 L192.506977,201.327384 C197.274419,224.87139 199.562791,229.428294 199.562791,229.428294 L186.595349,229.428294 Z" id="Shape" fill="url(#linearGradient-13)" fill-rule="nonzero"></path>
            <path d="M184.719898,65 C184.719898,65 191.529276,207.474705 138,290" id="Path" stroke="url(#linearGradient-14)" stroke-width="0.798"></path>
            <path d="M237,290 C183.495114,207.474705 190.277423,65 190.277423,65" id="Path" stroke="url(#linearGradient-15)" stroke-width="0.798"></path>
            <polygon id="Path" fill="url(#linearGradient-16)" fill-rule="nonzero" points="221.168367 246 152.831633 246 150 230 224 230"></polygon>
            <polygon id="Path" fill="#000000" fill-rule="nonzero" opacity="0.2" points="221.168367 246 152.831633 246 150 230 224 230"></polygon>
            <polygon id="Path" fill="url(#linearGradient-17)" fill-rule="nonzero" points="209.333333 201 166.857143 201 164 189 212 189"></polygon>
            <polygon id="Path" fill="#000000" fill-rule="nonzero" opacity="0.2" points="209.333333 201 166.857143 201 164 189 212 189"></polygon>
            <path d="M206,194.888889 C206,195.555556 205.625,196 205.25,196 C204.875,196 204.5,195.555556 204.5,195.111111 L204.5,194.888889 C204.5,194.444444 204.875,194 205.25,194 C205.625,194 206,194.222222 206,194.888889 Z M198.5,194.888889 C198.5,195.555556 198.125,196 197.75,196 C197.375,196 197,195.555556 197,195.111111 L197,194.888889 C197,194.444444 197.375,194 197.75,194 C198.125,194 198.5,194.222222 198.5,194.888889 Z M191,194.888889 C191,195.555556 190.625,196 190.25,196 C189.875,196 189.5,195.555556 189.5,195.111111 L189.5,194.888889 C189.5,194.444444 189.875,194 190.25,194 C190.625,194 191,194.222222 191,194.888889 Z M183.5,194.888889 C183.5,195.555556 183.125,196 182.75,196 C182.375,196 182,195.555556 182,195.111111 L182,194.888889 C182,194.444444 182.375,194 182.75,194 C183.125,194 183.5,194.222222 183.5,194.888889 Z M176,194.888889 C176,195.555556 175.625,196 175.25,196 C174.875,196 174.5,195.555556 174.5,195.111111 L174.5,194.888889 C174.5,194.444444 174.875,194 175.25,194 C175.625,194 176,194.222222 176,194.888889 Z M168.5,194.888889 C168.5,195.555556 168.125,196 167.75,196 C167.375,196 167,195.555556 167,195.111111 L167,194.888889 C167,194.444444 167.375,194 167.75,194 C168.125,194 168.5,194.222222 168.5,194.888889 Z" id="Shape" fill="#FFFFFF" fill-rule="nonzero"></path>
            <line x1="187" y1="65" x2="187" y2="189" id="Path" stroke="url(#linearGradient-18)" stroke-width="0.798"></line>
            <path d="M188.263889,0.763550668 L188.263889,3.81775334 C188.263889,4.19952867 187.881944,4.58130401 187.5,4.58130401 C187.118056,4.58130401 186.736111,4.19952867 186.736111,3.81775334 L186.736111,0.763550668 C186.736111,0.381775334 187.118056,0 187.5,0 C187.881944,0 188.263889,0.381775334 188.263889,0.763550668 Z M215,235.364493 L215,242.236449 C215,242.618225 214.618056,243 214.236111,243 C213.854167,243 213.472222,242.618225 213.472222,242.236449 L213.472222,235.364493 C213.472222,234.982718 213.854167,234.600943 214.236111,234.600943 C214.618056,234.600943 215,234.982718 215,235.364493 Z M207.361111,235.364493 L207.361111,242.236449 C207.361111,242.618225 206.979167,243 206.597222,243 C206.215278,243 205.833333,242.618225 205.833333,242.236449 L205.833333,235.364493 C205.833333,234.982718 206.215278,234.600943 206.597222,234.600943 C206.979167,234.600943 207.361111,234.982718 207.361111,235.364493 Z M199.722222,235.364493 L199.722222,242.236449 C199.722222,242.618225 199.340278,243 198.958333,243 C198.576389,243 198.194444,242.618225 198.194444,242.236449 L198.194444,235.364493 C198.194444,234.982718 198.576389,234.600943 198.958333,234.600943 C199.340278,234.600943 199.722222,234.982718 199.722222,235.364493 Z M192.083333,235.364493 L192.083333,242.236449 C192.083333,242.618225 191.701389,243 191.319444,243 C190.9375,243 190.555556,242.618225 190.555556,242.236449 L190.555556,235.364493 C190.555556,234.982718 190.9375,234.600943 191.319444,234.600943 C191.701389,234.600943 192.083333,234.982718 192.083333,235.364493 Z M184.444444,235.364493 L184.444444,242.236449 C184.444444,242.618225 184.0625,243 183.680556,243 C183.298611,243 182.916667,242.618225 182.916667,242.236449 L182.916667,235.364493 C182.916667,234.982718 183.298611,234.600943 183.680556,234.600943 C184.0625,234.600943 184.444444,234.982718 184.444444,235.364493 Z M176.805556,235.364493 L176.805556,242.236449 C176.805556,242.618225 176.423611,243 176.041667,243 C175.659722,243 175.277778,242.618225 175.277778,242.236449 L175.277778,235.364493 C175.277778,234.982718 175.659722,234.600943 176.041667,234.600943 C176.423611,234.600943 176.805556,234.982718 176.805556,235.364493 Z M169.166667,235.364493 L169.166667,242.236449 C169.166667,242.618225 168.784722,243 168.402778,243 C168.020833,243 167.638889,242.618225 167.638889,242.236449 L167.638889,235.364493 C167.638889,234.982718 168.020833,234.600943 168.402778,234.600943 C168.784722,234.600943 169.166667,234.982718 169.166667,235.364493 Z M161.527778,235.364493 L161.527778,242.236449 C161.527778,242.618225 161.145833,243 160.763889,243 C160.381944,243 160,242.618225 160,242.236449 L160,235.364493 C160,234.982718 160.381944,234.600943 160.763889,234.600943 C161.336806,234.600943 161.527778,234.982718 161.527778,235.364493 Z" id="Shape" fill="#FFFFFF" fill-rule="nonzero"></path>
            <polygon id="Path" fill="url(#linearGradient-19)" fill-rule="nonzero" points="0 138 53 138 53 303 0 303"></polygon>
            <polygon id="Path" fill="url(#linearGradient-20)" fill-rule="nonzero" points="104.761905 138 104.761905 191.12 53.3333333 191.12 53.3333333 138 0 138 0 304 160 304 160 138"></polygon>
            <path d="M104.761905,141 L110.47619,141 L110.47619,303 L104.761905,303 L104.761905,141 Z M154.285714,141 L160,141 L160,303 L154.285714,303 L154.285714,141 Z M0,141 L3.80952381,141 L3.80952381,303 L0,303 L0,141 Z M47.6190476,141 L53.3333333,141 L53.3333333,303 L47.6190476,303 L47.6190476,141 Z" id="Shape" fill="#FFFFFF" fill-rule="nonzero" opacity="0.1"></path>
            <path d="M117.52381,263.721068 L145.714286,263.721068 L145.714286,266 L117.52381,266 L117.52381,263.721068 Z M117.52381,256.124629 L145.714286,256.124629 L145.714286,258.403561 L117.52381,258.403561 L117.52381,256.124629 Z M117.52381,248.52819 L145.714286,248.52819 L145.714286,250.807122 L117.52381,250.807122 L117.52381,248.52819 Z M11.047619,263.721068 L39.2380952,263.721068 L39.2380952,266 L11.047619,266 L11.047619,263.721068 Z M11.047619,256.124629 L39.2380952,256.124629 L39.2380952,258.403561 L11.047619,258.403561 L11.047619,256.124629 Z M11.047619,248.52819 L39.2380952,248.52819 L39.2380952,250.807122 L11.047619,250.807122 L11.047619,248.52819 Z M104.761905,138 L160,138 L160,141.79822 L104.761905,141.79822 L104.761905,138 Z M0,138 L53.3333333,138 L53.3333333,141.79822 L0,141.79822 L0,138 Z" id="Shape" fill="#000000" fill-rule="nonzero" opacity="0.3"></path>
            <path d="M52,233.691542 L103.617647,233.691542 L103.617647,272 L52,272 L52,233.691542 Z M52.3823529,195 L104,195 L104,229.477612 L52.3823529,229.477612 L52.3823529,195 Z" id="Shape" fill="#000000" fill-rule="nonzero" opacity="0.1"></path>
            <path d="M51.8309859,190.005141 L103.169014,190.005141 L103.169014,193.835476 L51.8309859,193.835476 L51.8309859,190.005141 Z M133.591549,303 L133.591549,282.699229 C133.591549,279.443445 136.06338,276.953728 139.295775,276.953728 C142.528169,276.953728 145,279.443445 145,282.699229 L145,303 M116.478873,303 L116.478873,282.699229 C116.478873,279.443445 118.950704,276.953728 122.183099,276.953728 C125.415493,276.953728 127.887324,279.443445 127.887324,282.699229 L127.887324,303 M80.3521127,303 L80.3521127,282.699229 C80.3521127,279.443445 82.8239437,276.953728 86.056338,276.953728 C89.2887324,276.953728 91.7605634,279.443445 91.7605634,282.699229 L91.7605634,303 M63.2394366,303 L63.2394366,282.699229 C63.2394366,279.443445 65.7112676,276.953728 68.943662,276.953728 C72.1760563,276.953728 74.6478873,279.443445 74.6478873,282.699229 L74.6478873,303 M27.1126761,303 L27.1126761,282.699229 C27.1126761,279.443445 29.584507,276.953728 32.8169014,276.953728 C36.0492958,276.953728 38.5211268,279.443445 38.5211268,282.699229 L38.5211268,303 M10,303 L10,282.699229 C10,279.443445 12.471831,276.953728 15.7042254,276.953728 C18.9366197,276.953728 21.4084507,279.443445 21.4084507,282.699229 L21.4084507,303 M133.591549,237.884319 L133.591549,216.242931 C133.591549,212.987147 136.06338,210.497429 139.295775,210.497429 C142.528169,210.497429 145,212.987147 145,216.242931 L145,237.884319 M116.478873,237.884319 L116.478873,216.242931 C116.478873,212.987147 118.950704,210.497429 122.183099,210.497429 C125.415493,210.497429 127.887324,212.987147 127.887324,216.242931 L127.887324,237.884319 M27.1126761,237.884319 L27.1126761,216.242931 C27.1126761,212.987147 29.584507,210.497429 32.8169014,210.497429 C36.0492958,210.497429 38.5211268,212.987147 38.5211268,216.242931 L38.5211268,237.884319 M10,237.884319 L10,216.242931 C10,212.987147 12.471831,210.497429 15.7042254,210.497429 C18.9366197,210.497429 21.4084507,212.987147 21.4084507,216.242931 L21.4084507,237.884319 M133.591549,197.66581 L133.591549,159.745501 C133.591549,156.489717 136.06338,154 139.295775,154 C142.528169,154 145,156.489717 145,159.745501 L145,197.66581 M116.478873,197.66581 L116.478873,159.745501 C116.478873,156.489717 118.950704,154 122.183099,154 C125.415493,154 127.887324,156.489717 127.887324,159.745501 L127.887324,197.66581" id="Shape" fill="#000000" fill-rule="nonzero" opacity="0.3"></path>
            <path d="M58,223 L58,205.973913 C58,203.104348 59.3,201 60.7857143,201 C62.2714286,201 63.5714286,203.295652 63.5714286,205.973913 L63.5714286,223 M69.1428571,223 L69.1428571,205.973913 C69.1428571,203.104348 70.4428571,201 71.9285714,201 C73.4142857,201 74.7142857,203.295652 74.7142857,205.973913 L74.7142857,223 M80.2857143,223 L80.2857143,205.973913 C80.2857143,203.104348 81.5857143,201 83.0714286,201 C84.5571429,201 85.8571429,203.295652 85.8571429,205.973913 L85.8571429,223 M91.4285714,223 L91.4285714,205.973913 C91.4285714,203.104348 92.7285714,201 94.2142857,201 C95.7,201 97,203.295652 97,205.973913 L97,223" id="Shape" fill="#FFFFFF" fill-rule="nonzero" opacity="0.16"></path>
            <path d="M27.8,199 L27.8,161.657895 C27.8,158.451754 30.2266667,156 33.4,156 C36.5733333,156 39,158.451754 39,161.657895 L39,199 M11,199 L11,161.657895 C11,158.451754 13.4266667,156 16.6,156 C19.7733333,156 22.2,158.451754 22.2,161.657895 L22.2,199" id="Shape" fill="#000000" fill-rule="nonzero" opacity="0.3"></path>
            <circle id="Oval" fill="#000000" fill-rule="nonzero" opacity="0.3" cx="76.5" cy="250.5" r="13.5"></circle>
            <polygon id="Path" fill="url(#linearGradient-21)" fill-rule="nonzero" points="100 190 100 147.221429 106 137 106 190"></polygon>
            <polygon id="Path" fill="#000000" fill-rule="nonzero" opacity="0.3" points="100 190 100 147.373665 106 137 106 190"></polygon>
        </g>
    </g>
</svg>