<?xml version="1.0" encoding="UTF-8"?>
<svg width="460px" height="320px" viewBox="0 0 460 320" version="1.1" xmlns="http://www.w3.org/2000/svg" xmlns:xlink="http://www.w3.org/1999/xlink">
    <title>seoul</title>
    <defs>
        <linearGradient x1="50%" y1="0%" x2="50%" y2="100%" id="linearGradient-1">
            <stop stop-color="#2BA0DE" offset="0%"></stop>
            <stop stop-color="#473C9E" offset="100%"></stop>
        </linearGradient>
        <linearGradient x1="-7.80538915e-15%" y1="50.0000244%" x2="100%" y2="50.0000244%" id="linearGradient-2">
            <stop stop-color="#1D7EE8" offset="0%"></stop>
            <stop stop-color="#2EA7DB" offset="100%"></stop>
        </linearGradient>
        <linearGradient x1="-0.297727273%" y1="50%" x2="100.297727%" y2="50%" id="linearGradient-3">
            <stop stop-color="#2E59BF" offset="0%"></stop>
            <stop stop-color="#593192" offset="100%"></stop>
        </linearGradient>
        <linearGradient x1="0.102138172%" y1="50%" x2="100.102136%" y2="50%" id="linearGradient-4">
            <stop stop-color="#2E59BF" offset="0%"></stop>
            <stop stop-color="#593192" offset="100%"></stop>
        </linearGradient>
        <linearGradient x1="0%" y1="50%" x2="100.180769%" y2="50%" id="linearGradient-5">
            <stop stop-color="#2E59BF" offset="0%"></stop>
            <stop stop-color="#593192" offset="100%"></stop>
        </linearGradient>
        <linearGradient x1="-0.188135593%" y1="50%" x2="99.6231638%" y2="50%" id="linearGradient-6">
            <stop stop-color="#4C3EA1" offset="0%"></stop>
            <stop stop-color="#2E3192" offset="100%"></stop>
        </linearGradient>
        <linearGradient x1="0.458001704%" y1="50%" x2="100.457842%" y2="50%" id="linearGradient-7">
            <stop stop-color="#4C3EA1" offset="0%"></stop>
            <stop stop-color="#2E3192" offset="100%"></stop>
        </linearGradient>
        <linearGradient x1="-1.34137931%" y1="50%" x2="100.191954%" y2="50%" id="linearGradient-8">
            <stop stop-color="#4C3EA1" offset="0%"></stop>
            <stop stop-color="#2E3192" offset="100%"></stop>
        </linearGradient>
        <linearGradient x1="-5.67142857%" y1="50%" x2="91.3857143%" y2="50%" id="linearGradient-9">
            <stop stop-color="#3651BF" offset="0%"></stop>
            <stop stop-color="#2E5BDB" offset="100%"></stop>
        </linearGradient>
        <linearGradient x1="99.8260274%" y1="50%" x2="-0.308219178%" y2="50%" id="linearGradient-10">
            <stop stop-color="#4531A7" offset="0%"></stop>
            <stop stop-color="#423179" offset="100%"></stop>
        </linearGradient>
        <linearGradient x1="0%" y1="50%" x2="100.132877%" y2="50%" id="linearGradient-11">
            <stop stop-color="#4531A7" offset="0%"></stop>
            <stop stop-color="#423179" offset="100%"></stop>
        </linearGradient>
        <linearGradient x1="-0.433333333%" y1="50%" x2="112.833333%" y2="50%" id="linearGradient-12">
            <stop stop-color="#451088" offset="0%"></stop>
            <stop stop-color="#593179" offset="100%"></stop>
        </linearGradient>
        <linearGradient x1="1.44186767e-05%" y1="50.00028%" x2="100.000021%" y2="50.00028%" id="linearGradient-13">
            <stop stop-color="#451088" offset="0%"></stop>
            <stop stop-color="#593179" offset="100%"></stop>
        </linearGradient>
        <linearGradient x1="0%" y1="50%" x2="100%" y2="50%" id="linearGradient-14">
            <stop stop-color="#451088" offset="0%"></stop>
            <stop stop-color="#593179" offset="100%"></stop>
        </linearGradient>
        <linearGradient x1="0%" y1="50%" x2="100%" y2="50%" id="linearGradient-15">
            <stop stop-color="#451088" offset="0%"></stop>
            <stop stop-color="#593179" offset="100%"></stop>
        </linearGradient>
        <linearGradient x1="0%" y1="50%" x2="100%" y2="50%" id="linearGradient-16">
            <stop stop-color="#451088" offset="0%"></stop>
            <stop stop-color="#593179" offset="100%"></stop>
        </linearGradient>
        <linearGradient x1="0%" y1="50%" x2="100%" y2="50%" id="linearGradient-17">
            <stop stop-color="#451088" offset="0%"></stop>
            <stop stop-color="#593179" offset="100%"></stop>
        </linearGradient>
        <linearGradient x1="0%" y1="50%" x2="100%" y2="50%" id="linearGradient-18">
            <stop stop-color="#451088" offset="0%"></stop>
            <stop stop-color="#593179" offset="100%"></stop>
        </linearGradient>
        <linearGradient x1="0%" y1="50%" x2="100%" y2="50%" id="linearGradient-19">
            <stop stop-color="#451088" offset="0%"></stop>
            <stop stop-color="#593179" offset="100%"></stop>
        </linearGradient>
        <linearGradient x1="2.19162089e-06%" y1="50.0002869%" x2="100.000019%" y2="50.0002869%" id="linearGradient-20">
            <stop stop-color="#451088" offset="0%"></stop>
            <stop stop-color="#593179" offset="100%"></stop>
        </linearGradient>
        <linearGradient x1="4.81991325e-05%" y1="50%" x2="100.000035%" y2="50%" id="linearGradient-21">
            <stop stop-color="#451088" offset="0%"></stop>
            <stop stop-color="#593179" offset="100%"></stop>
        </linearGradient>
        <linearGradient x1="0%" y1="50%" x2="100%" y2="50%" id="linearGradient-22">
            <stop stop-color="#451088" offset="0%"></stop>
            <stop stop-color="#593179" offset="100%"></stop>
        </linearGradient>
        <linearGradient x1="1.6818551e-14%" y1="50%" x2="100.000001%" y2="50%" id="linearGradient-23">
            <stop stop-color="#451088" offset="0%"></stop>
            <stop stop-color="#593179" offset="100%"></stop>
        </linearGradient>
        <linearGradient x1="0%" y1="50%" x2="100%" y2="50%" id="linearGradient-24">
            <stop stop-color="#3787FF" offset="0%"></stop>
            <stop stop-color="#47BCFF" offset="100%"></stop>
        </linearGradient>
        <linearGradient x1="100%" y1="50%" x2="-0.100271003%" y2="50%" id="linearGradient-25">
            <stop stop-color="#3651BF" offset="0%"></stop>
            <stop stop-color="#2E5BDB" offset="100%"></stop>
        </linearGradient>
        <linearGradient x1="50%" y1="100%" x2="50%" y2="-9.88925172e-15%" id="linearGradient-26">
            <stop stop-color="#3787FF" offset="0%"></stop>
            <stop stop-color="#47BCFF" offset="100%"></stop>
        </linearGradient>
        <linearGradient x1="100%" y1="50%" x2="0%" y2="50%" id="linearGradient-27">
            <stop stop-color="#3651BF" offset="0%"></stop>
            <stop stop-color="#2E5BDB" offset="100%"></stop>
        </linearGradient>
        <linearGradient x1="50%" y1="100%" x2="50%" y2="0%" id="linearGradient-28">
            <stop stop-color="#3787FF" offset="0%"></stop>
            <stop stop-color="#47BCFF" offset="100%"></stop>
        </linearGradient>
    </defs>
    <g id="seoul" stroke="none" stroke-width="1" fill="none" fill-rule="evenodd">
        <rect id="Rectangle" fill="url(#linearGradient-1)" x="0" y="0" width="460" height="320"></rect>
        <g id="Seoul" transform="translate(53.000000, 24.000000)">
            <g id="landscape_1_" transform="translate(0.181601, 68.221426)" fill-rule="nonzero">
                <path d="M130.389486,47.821585 C153.271207,59.8072481 168.525687,49.4559936 171.794504,46.9135802 C175.244922,44.3711669 194.676225,46.9135802 207.388292,51.998407 C215.741935,55.4488252 229.180406,51.2720032 238.078853,46.1871764 C226.456392,33.4751095 216.286738,22.7606531 209.0227,15.4966149 C174.336918,-19.3707686 132.9319,15.4966149 132.9319,15.4966149 L101.151732,42.7367583 C111.321386,41.2839506 121.491039,43.0999602 130.389486,47.821585 Z" id="Path" fill="#BDE6FF" opacity="0.8"></path>
                <path d="M43.2210275,233.236161 L363.020311,233.236161 L363.565114,184.203903 C363.565114,184.203903 282.026284,93.7666268 238.260454,46.3687774 C229.362007,51.4536041 215.741935,55.4488252 207.569892,51.998407 C194.857826,46.9135802 175.426523,44.3711669 171.976105,46.9135802 C168.525687,49.4559936 153.452808,59.6256472 130.571087,47.821585 C121.67264,43.0999602 111.321386,41.4655516 101.333333,42.7367583 L-1.2903524e-14,168.041418 L1.99761051,233.05456 L43.2210275,233.236161 L43.2210275,233.236161" id="Path" fill="url(#linearGradient-2)"></path>
                <polygon id="Path" fill="#000000" opacity="0.2" points="323.0681 155.14775 281.299881 155.14775 281.299881 126.091597 259.507766 126.091597 259.507766 82.5073676 221.371565 65.0736758 221.371565 126.091597 215.923536 126.091597 215.923536 93.4034249 175.971326 93.4034249 175.971326 109.747511 141.467145 109.747511 141.467145 55.2672242 110.594982 55.2672242 110.594982 109.747511 99.6989247 109.747511 99.6989247 91.0426125 76.0908005 74.3353246 76.0908005 124.275587 57.9307049 124.275587 57.9307049 93.4034249 12.5304659 93.4034249 12.5304659 144.978096 12.5304659 185.293509 12.5304659 233.236161 323.0681 233.236161"></polygon>
            </g>
            <g id="left_-_1" transform="translate(0.181601, 0.000000)">
                <polygon id="Kształt_100" fill="url(#linearGradient-3)" points="17.6152927 39.9522103 39.9522103 39.9522103 39.9522103 299.641577 15.9808841 299.641577"></polygon>
                <polygon id="Kształt_100_1_" fill="#000000" fill-rule="nonzero" opacity="0.3" points="17.6152927 39.9522103 39.9522103 39.9522103 39.9522103 299.641577 15.9808841 299.641577"></polygon>
                <path d="M1.6344086,303.273596 C1.6344086,303.273596 -2.62102831e-15,253.514934 -2.62102831e-15,211.928315 C-2.62102831e-15,136.200717 16.8888889,0 16.8888889,0 L20.520908,0 C20.520908,0 27.0585424,114.771804 27.0585424,161.44325 C27.0585424,208.114695 28.3297491,303.273596 28.3297491,303.273596 L1.6344086,303.273596 Z M57.9307049,303.273596 C57.9307049,303.273596 59.3835125,253.514934 59.3835125,211.928315 C59.5651135,136.200717 42.6762246,0 42.6762246,0 L39.0442055,0 C39.0442055,0 32.5065711,114.771804 32.5065711,161.44325 C32.5065711,208.114695 31.4169654,303.273596 31.4169654,303.273596 L57.9307049,303.273596 Z" id="Kształt_99" fill="url(#linearGradient-4)"></path>
                <path d="M8.89844683,290.561529 L12.5304659,290.561529 L12.5304659,294.193548 L8.89844683,294.193548 L8.89844683,290.561529 Z M17.9784946,290.561529 L21.6105137,290.561529 L21.6105137,294.193548 L17.9784946,294.193548 L17.9784946,290.561529 Z M8.89844683,281.481481 L12.5304659,281.481481 L12.5304659,285.113501 L8.89844683,285.113501 L8.89844683,281.481481 Z M17.9784946,281.481481 L21.6105137,281.481481 L21.6105137,285.113501 L17.9784946,285.113501 L17.9784946,281.481481 Z M8.89844683,272.401434 L12.5304659,272.401434 L12.5304659,276.033453 L8.89844683,276.033453 L8.89844683,272.401434 Z M17.9784946,272.401434 L21.6105137,272.401434 L21.6105137,276.033453 L17.9784946,276.033453 L17.9784946,272.401434 Z M8.89844683,263.321386 L12.5304659,263.321386 L12.5304659,266.953405 L8.89844683,266.953405 L8.89844683,263.321386 Z M17.9784946,263.321386 L21.6105137,263.321386 L21.6105137,266.953405 L17.9784946,266.953405 L17.9784946,263.321386 Z M8.89844683,256.057348 L12.5304659,256.057348 L12.5304659,259.689367 L8.89844683,259.689367 L8.89844683,256.057348 Z M17.9784946,256.057348 L21.6105137,256.057348 L21.6105137,259.689367 L17.9784946,259.689367 L17.9784946,256.057348 Z M8.89844683,246.9773 L12.5304659,246.9773 L12.5304659,250.609319 L8.89844683,250.609319 L8.89844683,246.9773 Z M17.9784946,246.9773 L21.6105137,246.9773 L21.6105137,250.609319 L17.9784946,250.609319 L17.9784946,246.9773 Z M8.89844683,237.897252 L12.5304659,237.897252 L12.5304659,241.529271 L8.89844683,241.529271 L8.89844683,237.897252 Z M17.9784946,237.897252 L21.6105137,237.897252 L21.6105137,241.529271 L17.9784946,241.529271 L17.9784946,237.897252 Z M8.89844683,228.817204 L12.5304659,228.817204 L12.5304659,232.449223 L8.89844683,232.449223 L8.89844683,228.817204 Z M17.9784946,228.817204 L21.6105137,228.817204 L21.6105137,232.449223 L17.9784946,232.449223 L17.9784946,228.817204 Z M8.89844683,219.737157 L12.5304659,219.737157 L12.5304659,223.369176 L8.89844683,223.369176 L8.89844683,219.737157 Z M17.9784946,219.737157 L21.6105137,219.737157 L21.6105137,223.369176 L17.9784946,223.369176 L17.9784946,219.737157 Z M8.89844683,210.657109 L12.5304659,210.657109 L12.5304659,214.289128 L8.89844683,214.289128 L8.89844683,210.657109 Z M17.9784946,210.657109 L21.6105137,210.657109 L21.6105137,214.289128 L17.9784946,214.289128 L17.9784946,210.657109 Z M8.89844683,201.577061 L12.5304659,201.577061 L12.5304659,205.20908 L8.89844683,205.20908 L8.89844683,201.577061 Z M17.9784946,201.577061 L21.6105137,201.577061 L21.6105137,205.20908 L17.9784946,205.20908 L17.9784946,201.577061 Z M8.89844683,192.497013 L12.5304659,192.497013 L12.5304659,196.129032 L8.89844683,196.129032 L8.89844683,192.497013 Z M17.9784946,192.497013 L21.6105137,192.497013 L21.6105137,196.129032 L17.9784946,196.129032 L17.9784946,192.497013 Z M8.89844683,183.416965 L12.5304659,183.416965 L12.5304659,187.048984 L8.89844683,187.048984 L8.89844683,183.416965 Z M17.9784946,183.416965 L21.6105137,183.416965 L21.6105137,187.048984 L17.9784946,187.048984 L17.9784946,183.416965 Z M8.89844683,174.336918 L12.5304659,174.336918 L12.5304659,177.968937 L8.89844683,177.968937 L8.89844683,174.336918 Z M17.9784946,174.336918 L21.6105137,174.336918 L21.6105137,177.968937 L17.9784946,177.968937 L17.9784946,174.336918 Z M8.89844683,165.25687 L12.5304659,165.25687 L12.5304659,168.888889 L8.89844683,168.888889 L8.89844683,165.25687 Z M17.9784946,165.25687 L21.6105137,165.25687 L21.6105137,168.888889 L17.9784946,168.888889 L17.9784946,165.25687 Z M8.89844683,157.992832 L12.5304659,157.992832 L12.5304659,161.624851 L8.89844683,161.624851 L8.89844683,157.992832 Z M17.9784946,157.992832 L21.6105137,157.992832 L21.6105137,161.624851 L17.9784946,161.624851 L17.9784946,157.992832 Z M8.89844683,148.912784 L12.5304659,148.912784 L12.5304659,152.544803 L8.89844683,152.544803 L8.89844683,148.912784 Z M17.9784946,148.912784 L21.6105137,148.912784 L21.6105137,152.544803 L17.9784946,152.544803 L17.9784946,148.912784 Z M8.89844683,139.832736 L12.5304659,139.832736 L12.5304659,143.464755 L8.89844683,143.464755 L8.89844683,139.832736 Z M17.9784946,139.832736 L21.6105137,139.832736 L21.6105137,143.464755 L17.9784946,143.464755 L17.9784946,139.832736 Z M8.89844683,130.752688 L12.5304659,130.752688 L12.5304659,134.384707 L8.89844683,134.384707 L8.89844683,130.752688 Z M17.9784946,130.752688 L21.6105137,130.752688 L21.6105137,134.384707 L17.9784946,134.384707 L17.9784946,130.752688 Z M17.9784946,121.67264 L21.6105137,121.67264 L21.6105137,125.304659 L17.9784946,125.304659 L17.9784946,121.67264 Z M17.9784946,112.592593 L21.6105137,112.592593 L21.6105137,116.224612 L17.9784946,116.224612 L17.9784946,112.592593 Z M17.9784946,103.512545 L21.6105137,103.512545 L21.6105137,107.144564 L17.9784946,107.144564 L17.9784946,103.512545 Z M17.9784946,94.432497 L21.6105137,94.432497 L21.6105137,98.0645161 L17.9784946,98.0645161 L17.9784946,94.432497 Z M17.9784946,85.3524492 L21.6105137,85.3524492 L21.6105137,88.9844683 L17.9784946,88.9844683 L17.9784946,85.3524492 Z M17.9784946,76.2724014 L21.6105137,76.2724014 L21.6105137,79.9044205 L17.9784946,79.9044205 L17.9784946,76.2724014 Z M17.9784946,67.1923536 L21.6105137,67.1923536 L21.6105137,70.8243728 L17.9784946,70.8243728 L17.9784946,67.1923536 Z M17.9784946,58.1123059 L21.6105137,58.1123059 L21.6105137,61.744325 L17.9784946,61.744325 L17.9784946,58.1123059 Z M17.9784946,49.0322581 L21.6105137,49.0322581 L21.6105137,52.6642772 L17.9784946,52.6642772 L17.9784946,49.0322581 Z" id="Prostokąt_16_kopia_2" fill="#FFFFFF" opacity="0.2"></path>
                <path d="M17.9784946,281.481481 L21.6105137,281.481481 L21.6105137,285.113501 L17.9784946,285.113501 L17.9784946,281.481481 Z M8.89844683,256.057348 L12.5304659,256.057348 L12.5304659,259.689367 L8.89844683,259.689367 L8.89844683,256.057348 Z M17.9784946,219.737157 L21.6105137,219.737157 L21.6105137,223.369176 L17.9784946,223.369176 L17.9784946,219.737157 Z M17.9784946,210.657109 L21.6105137,210.657109 L21.6105137,214.289128 L17.9784946,214.289128 L17.9784946,210.657109 Z M8.89844683,165.25687 L12.5304659,165.25687 L12.5304659,168.888889 L8.89844683,168.888889 L8.89844683,165.25687 Z M17.9784946,139.832736 L21.6105137,139.832736 L21.6105137,143.464755 L17.9784946,143.464755 L17.9784946,139.832736 Z M17.9784946,94.432497 L21.6105137,94.432497 L21.6105137,98.0645161 L17.9784946,98.0645161 L17.9784946,94.432497 Z M17.9784946,85.3524492 L21.6105137,85.3524492 L21.6105137,88.9844683 L17.9784946,88.9844683 L17.9784946,85.3524492 Z M17.9784946,49.0322581 L21.6105137,49.0322581 L21.6105137,52.6642772 L17.9784946,52.6642772 L17.9784946,49.0322581 Z" id="Prostokąt_16_kopia_3" fill="#FFFFFF"></path>
                <path d="M47.0346476,290.561529 L50.6666667,290.561529 L50.6666667,294.193548 L47.0346476,294.193548 L47.0346476,290.561529 Z M37.9545998,290.561529 L41.5866189,290.561529 L41.5866189,294.193548 L37.9545998,294.193548 L37.9545998,290.561529 Z M47.0346476,281.481481 L50.6666667,281.481481 L50.6666667,285.113501 L47.0346476,285.113501 L47.0346476,281.481481 Z M37.9545998,281.481481 L41.5866189,281.481481 L41.5866189,285.113501 L37.9545998,285.113501 L37.9545998,281.481481 Z M47.0346476,272.401434 L50.6666667,272.401434 L50.6666667,276.033453 L47.0346476,276.033453 L47.0346476,272.401434 Z M37.9545998,272.401434 L41.5866189,272.401434 L41.5866189,276.033453 L37.9545998,276.033453 L37.9545998,272.401434 Z M47.0346476,263.321386 L50.6666667,263.321386 L50.6666667,266.953405 L47.0346476,266.953405 L47.0346476,263.321386 Z M37.9545998,263.321386 L41.5866189,263.321386 L41.5866189,266.953405 L37.9545998,266.953405 L37.9545998,263.321386 Z M47.0346476,256.057348 L50.6666667,256.057348 L50.6666667,259.689367 L47.0346476,259.689367 L47.0346476,256.057348 Z M37.9545998,256.057348 L41.5866189,256.057348 L41.5866189,259.689367 L37.9545998,259.689367 L37.9545998,256.057348 Z M47.0346476,246.9773 L50.6666667,246.9773 L50.6666667,250.609319 L47.0346476,250.609319 L47.0346476,246.9773 Z M37.9545998,246.9773 L41.5866189,246.9773 L41.5866189,250.609319 L37.9545998,250.609319 L37.9545998,246.9773 Z M47.0346476,237.897252 L50.6666667,237.897252 L50.6666667,241.529271 L47.0346476,241.529271 L47.0346476,237.897252 Z M37.9545998,237.897252 L41.5866189,237.897252 L41.5866189,241.529271 L37.9545998,241.529271 L37.9545998,237.897252 Z M47.0346476,228.817204 L50.6666667,228.817204 L50.6666667,232.449223 L47.0346476,232.449223 L47.0346476,228.817204 Z M37.9545998,228.817204 L41.5866189,228.817204 L41.5866189,232.449223 L37.9545998,232.449223 L37.9545998,228.817204 Z M47.0346476,219.737157 L50.6666667,219.737157 L50.6666667,223.369176 L47.0346476,223.369176 L47.0346476,219.737157 Z M37.9545998,219.737157 L41.5866189,219.737157 L41.5866189,223.369176 L37.9545998,223.369176 L37.9545998,219.737157 Z M47.0346476,210.657109 L50.6666667,210.657109 L50.6666667,214.289128 L47.0346476,214.289128 L47.0346476,210.657109 Z M37.9545998,210.657109 L41.5866189,210.657109 L41.5866189,214.289128 L37.9545998,214.289128 L37.9545998,210.657109 Z M47.0346476,201.577061 L50.6666667,201.577061 L50.6666667,205.20908 L47.0346476,205.20908 L47.0346476,201.577061 Z M37.9545998,201.577061 L41.5866189,201.577061 L41.5866189,205.20908 L37.9545998,205.20908 L37.9545998,201.577061 Z M47.0346476,192.497013 L50.6666667,192.497013 L50.6666667,196.129032 L47.0346476,196.129032 L47.0346476,192.497013 Z M37.9545998,192.497013 L41.5866189,192.497013 L41.5866189,196.129032 L37.9545998,196.129032 L37.9545998,192.497013 Z M47.0346476,183.416965 L50.6666667,183.416965 L50.6666667,187.048984 L47.0346476,187.048984 L47.0346476,183.416965 Z M37.9545998,183.416965 L41.5866189,183.416965 L41.5866189,187.048984 L37.9545998,187.048984 L37.9545998,183.416965 Z M47.0346476,174.336918 L50.6666667,174.336918 L50.6666667,177.968937 L47.0346476,177.968937 L47.0346476,174.336918 Z M37.9545998,174.336918 L41.5866189,174.336918 L41.5866189,177.968937 L37.9545998,177.968937 L37.9545998,174.336918 Z M47.0346476,165.25687 L50.6666667,165.25687 L50.6666667,168.888889 L47.0346476,168.888889 L47.0346476,165.25687 Z M37.9545998,165.25687 L41.5866189,165.25687 L41.5866189,168.888889 L37.9545998,168.888889 L37.9545998,165.25687 Z M47.0346476,157.992832 L50.6666667,157.992832 L50.6666667,161.624851 L47.0346476,161.624851 L47.0346476,157.992832 Z M37.9545998,157.992832 L41.5866189,157.992832 L41.5866189,161.624851 L37.9545998,161.624851 L37.9545998,157.992832 Z M47.0346476,148.912784 L50.6666667,148.912784 L50.6666667,152.544803 L47.0346476,152.544803 L47.0346476,148.912784 Z M37.9545998,148.912784 L41.5866189,148.912784 L41.5866189,152.544803 L37.9545998,152.544803 L37.9545998,148.912784 Z M47.0346476,139.832736 L50.6666667,139.832736 L50.6666667,143.464755 L47.0346476,143.464755 L47.0346476,139.832736 Z M37.9545998,139.832736 L41.5866189,139.832736 L41.5866189,143.464755 L37.9545998,143.464755 L37.9545998,139.832736 Z M47.0346476,130.752688 L50.6666667,130.752688 L50.6666667,134.384707 L47.0346476,134.384707 L47.0346476,130.752688 Z M37.9545998,130.752688 L41.5866189,130.752688 L41.5866189,134.384707 L37.9545998,134.384707 L37.9545998,130.752688 Z M37.9545998,121.67264 L41.5866189,121.67264 L41.5866189,125.304659 L37.9545998,125.304659 L37.9545998,121.67264 Z M37.9545998,112.592593 L41.5866189,112.592593 L41.5866189,116.224612 L37.9545998,116.224612 L37.9545998,112.592593 Z M37.9545998,103.512545 L41.5866189,103.512545 L41.5866189,107.144564 L37.9545998,107.144564 L37.9545998,103.512545 Z M37.9545998,94.432497 L41.5866189,94.432497 L41.5866189,98.0645161 L37.9545998,98.0645161 L37.9545998,94.432497 Z M37.9545998,85.3524492 L41.5866189,85.3524492 L41.5866189,88.9844683 L37.9545998,88.9844683 L37.9545998,85.3524492 Z M37.9545998,76.2724014 L41.5866189,76.2724014 L41.5866189,79.9044205 L37.9545998,79.9044205 L37.9545998,76.2724014 Z M37.9545998,67.1923536 L41.5866189,67.1923536 L41.5866189,70.8243728 L37.9545998,70.8243728 L37.9545998,67.1923536 Z M37.9545998,58.1123059 L41.5866189,58.1123059 L41.5866189,61.744325 L37.9545998,61.744325 L37.9545998,58.1123059 Z M37.9545998,49.0322581 L41.5866189,49.0322581 L41.5866189,52.6642772 L37.9545998,52.6642772 L37.9545998,49.0322581 Z" id="Prostokąt_16_kopia_4" fill="#FFFFFF" opacity="0.2"></path>
                <path d="M47.0346476,272.401434 L50.6666667,272.401434 L50.6666667,276.033453 L47.0346476,276.033453 L47.0346476,272.401434 Z M37.9545998,256.057348 L41.5866189,256.057348 L41.5866189,259.689367 L37.9545998,259.689367 L37.9545998,256.057348 Z M37.9545998,201.577061 L41.5866189,201.577061 L41.5866189,205.20908 L37.9545998,205.20908 L37.9545998,201.577061 Z M47.0346476,201.577061 L50.6666667,201.577061 L50.6666667,205.20908 L47.0346476,205.20908 L47.0346476,201.577061 Z M37.9545998,174.336918 L41.5866189,174.336918 L41.5866189,177.968937 L37.9545998,177.968937 L37.9545998,174.336918 Z M37.9545998,139.832736 L41.5866189,139.832736 L41.5866189,143.464755 L37.9545998,143.464755 L37.9545998,139.832736 Z M37.9545998,103.512545 L41.5866189,103.512545 L41.5866189,107.144564 L37.9545998,107.144564 L37.9545998,103.512545 Z M37.9545998,85.3524492 L41.5866189,85.3524492 L41.5866189,88.9844683 L37.9545998,88.9844683 L37.9545998,85.3524492 Z M37.9545998,49.0322581 L41.5866189,49.0322581 L41.5866189,52.6642772 L37.9545998,52.6642772 L37.9545998,49.0322581 Z" id="Prostokąt_16_kopia_4-2" fill="#FFFFFF"></path>
            </g>
            <g id="Warstwa_8" transform="translate(88.439665, 21.065711)" fill-rule="nonzero">
                <g id="Group" transform="translate(0.000000, -0.000000)">
                    <polygon id="Path" fill="url(#linearGradient-5)" points="30.1457587 230.088411 21.9737157 88.4396655 24.8793309 82.6284349 24.3345281 82.265233 21.7921147 87.1684588 18.5232975 28.3297491 13.4384707 28.3297491 10.1696535 87.1684588 7.62724014 82.265233 7.08243728 82.6284349 9.98805257 88.4396655 1.81600956 230.088411"></polygon>
                    <path d="M25.7873357,83.8996416 L6.1744325,83.8996416 C4.54002389,83.8996416 3.08721625,82.4468339 3.08721625,80.8124253 L1.2903524e-14,66.6475508 C1.2903524e-14,65.0131422 1.45280765,63.5603345 3.08721625,63.5603345 L29.0561529,63.5603345 C30.6905615,63.5603345 32.1433692,65.0131422 32.1433692,66.6475508 L29.0561529,80.8124253 C28.874552,82.6284349 27.6033453,83.8996416 25.7873357,83.8996416 Z" id="Path" fill="url(#linearGradient-6)"></path>
                    <path d="M23.6081243,46.3082437 L8.17204301,46.3082437 C7.62724014,46.3082437 7.26403823,45.9450418 7.26403823,45.4002389 L7.26403823,45.4002389 C7.26403823,44.8554361 7.62724014,44.4922342 8.17204301,44.4922342 L23.6081243,44.4922342 C24.1529271,44.4922342 24.516129,44.8554361 24.516129,45.4002389 L24.516129,45.4002389 C24.69773,45.9450418 24.1529271,46.3082437 23.6081243,46.3082437 Z" id="Path" fill="url(#linearGradient-7)"></path>
                    <path d="M23.6081243,49.9402628 L8.17204301,49.9402628 C7.62724014,49.9402628 7.26403823,49.5770609 7.26403823,49.0322581 L7.26403823,49.0322581 C7.26403823,48.4874552 7.62724014,48.1242533 8.17204301,48.1242533 L23.6081243,48.1242533 C24.1529271,48.1242533 24.516129,48.4874552 24.516129,49.0322581 L24.516129,49.0322581 C24.69773,49.5770609 24.1529271,49.9402628 23.6081243,49.9402628 Z" id="Path" fill="url(#linearGradient-7)"></path>
                    <path d="M23.6081243,53.7538829 L8.17204301,53.7538829 C7.62724014,53.7538829 7.26403823,53.390681 7.26403823,52.8458781 L7.26403823,52.8458781 C7.26403823,52.3010753 7.62724014,51.9378734 8.17204301,51.9378734 L23.6081243,51.9378734 C24.1529271,51.9378734 24.516129,52.3010753 24.516129,52.8458781 L24.516129,52.8458781 C24.69773,53.20908 24.1529271,53.7538829 23.6081243,53.7538829 Z" id="Path" fill="url(#linearGradient-7)"></path>
                    <path d="M23.6081243,61.1995221 L8.17204301,61.1995221 C7.62724014,61.1995221 7.26403823,60.8363202 7.26403823,60.2915173 L7.26403823,60.2915173 C7.26403823,59.7467145 7.62724014,59.3835125 8.17204301,59.3835125 L23.6081243,59.3835125 C24.1529271,59.3835125 24.516129,59.7467145 24.516129,60.2915173 L24.516129,60.2915173 C24.69773,60.6547192 24.1529271,61.1995221 23.6081243,61.1995221 Z" id="Path" fill="url(#linearGradient-7)"></path>
                    <path d="M23.6081243,57.385902 L8.17204301,57.385902 C7.62724014,57.385902 7.26403823,57.0227001 7.26403823,56.4778973 L7.26403823,56.4778973 C7.26403823,55.9330944 7.62724014,55.5698925 8.17204301,55.5698925 L23.6081243,55.5698925 C24.1529271,55.5698925 24.516129,55.9330944 24.516129,56.4778973 L24.516129,56.4778973 C24.69773,57.0227001 24.1529271,57.385902 23.6081243,57.385902 Z" id="Path" fill="url(#linearGradient-7)"></path>
                    <path d="M20.8841099,41.7682198 L11.0776583,41.7682198 C10.1696535,41.7682198 9.62485066,41.041816 9.62485066,40.3154122 L8.17204301,33.2329749 C8.17204301,32.3249701 8.89844683,31.7801673 9.62485066,31.7801673 L22.5185185,31.7801673 C23.4265233,31.7801673 23.9713262,32.5065711 23.9713262,33.2329749 L22.5185185,40.3154122 C22.5185185,41.223417 21.7921147,41.7682198 20.8841099,41.7682198 Z" id="Path" fill="url(#linearGradient-8)"></path>
                    <rect id="Rectangle" fill="url(#linearGradient-9)" x="15.4360812" y="-1.2903524e-14" width="1.27120669" height="28.3297491"></rect>
                    <polygon id="Path" fill="url(#linearGradient-10)" points="29.0561529 230.451613 3.08721625 203.39307 25.9689367 179.784946 5.62962963 158.719235 23.7897252 139.832736 7.44563919 123.125448 22.1553166 108.052569 9.08004779 94.614098 19.9761051 83.5364397 20.339307 83.8996416 9.98805257 94.614098 22.8817204 108.052569 8.35364397 123.125448 24.69773 139.832736 6.35603345 158.719235 26.6953405 179.784946 3.81362007 203.39307 29.6009558 229.90681"></polygon>
                    <polygon id="Path" fill="url(#linearGradient-11)" points="2.36081243 230.451613 1.99761051 229.90681 27.7849462 203.39307 4.90322581 179.784946 25.2425329 158.719235 6.90083632 139.832736 23.2449223 123.125448 8.71684588 108.052569 21.6105137 94.614098 11.2592593 83.8996416 11.6224612 83.5364397 22.5185185 94.614098 9.4432497 108.052569 24.1529271 123.125448 7.8088411 139.832736 25.9689367 158.719235 5.62962963 179.784946 28.5113501 203.39307"></polygon>
                    <polygon id="Path" fill="#000000" opacity="0.1" points="22.7001195 230.088411 9.26164875 230.088411 15.4360812 83.8996416 16.525687 83.8996416"></polygon>
                    <rect id="Rectangle" fill="#FFFFFF" x="24.1529271" y="69.734767" width="1.81600956" height="9.08004779"></rect>
                    <rect id="Rectangle" fill="#FFFFFF" x="20.520908" y="69.734767" width="1.81600956" height="9.08004779"></rect>
                    <rect id="Rectangle" fill="#FFFFFF" x="16.8888889" y="69.734767" width="1.81600956" height="9.08004779"></rect>
                    <rect id="Rectangle" fill="#FFFFFF" x="13.2568698" y="69.734767" width="1.81600956" height="9.08004779"></rect>
                    <rect id="Rectangle" fill="#FFFFFF" x="9.62485066" y="69.734767" width="1.81600956" height="9.08004779"></rect>
                    <rect id="Rectangle" fill="#FFFFFF" x="5.99283154" y="69.734767" width="1.81600956" height="9.08004779"></rect>
                    <rect id="Rectangle" fill="#FFFFFF" x="15.4360812" y="-1.2903524e-14" width="1.27120669" height="4.35842294"></rect>
                </g>
                <rect id="Rectangle" fill="url(#linearGradient-12)" x="19.0681004" y="212.291517" width="1" height="5.62962963"></rect>
            </g>
            <g id="main" transform="translate(16.078217, 186.867384)">
                <path d="M7.71150812,45.5818399 C9.34591672,46.1266428 11.1619263,46.6714456 12.7963349,46.8530466 C31.3196324,53.390681 67.8214245,63.5603345 116.853683,63.5603345 C173.876383,63.5603345 216.915809,50.8482676 233.078294,45.4002389 C235.620708,47.5794504 234.531102,54.2986858 227.811867,59.2019116 C218.91342,65.739546 200.02692,71.1875747 200.02692,71.1875747 L35.4964544,71.1875747 C35.4964544,71.1875747 12.6147339,65.3763441 4.26108996,55.7514934 C-4.092554,46.1266428 1.90027754,43.4026284 7.71150812,45.5818399 Z" id="Kształt_101_kopia_2_4_" fill="url(#linearGradient-13)"></path>
                <path d="M7.71150812,45.5818399 C9.34591672,46.1266428 11.1619263,46.6714456 12.7963349,46.8530466 C31.3196324,53.390681 67.8214245,63.5603345 116.853683,63.5603345 C173.876383,63.5603345 216.915809,50.8482676 233.078294,45.4002389 C235.620708,47.5794504 234.531102,54.2986858 227.811867,59.2019116 C218.91342,65.739546 200.02692,71.1875747 200.02692,71.1875747 L35.4964544,71.1875747 C35.4964544,71.1875747 12.6147339,65.3763441 4.26108996,55.7514934 C-4.092554,46.1266428 1.90027754,43.4026284 7.71150812,45.5818399 Z" id="Kształt_101_kopia_2_1_" fill="#000000" fill-rule="nonzero" opacity="0.3"></path>
                <rect id="Prostokąt_9" fill="url(#linearGradient-14)" fill-rule="nonzero" x="43.6684974" y="56.1146953" width="149.094385" height="15.0728793"></rect>
                <rect id="Prostokąt_9_1_" fill="#000000" fill-rule="nonzero" opacity="0.15" x="43.6684974" y="56.1146953" width="149.094385" height="15.0728793"></rect>
                <rect id="Prostokąt_10" fill="#5249B6" fill-rule="nonzero" x="25.1451999" y="97.5197133" width="183.598566" height="5.08482676"></rect>
                <rect id="Prostokąt_10_kopia_3" fill="url(#linearGradient-15)" fill-rule="nonzero" x="25.6900027" y="96.4301075" width="183.416965" height="5.44802867"></rect>
                <rect id="Prostokąt_10_kopia" fill="#564DB8" fill-rule="nonzero" x="20.0603731" y="102.422939" width="193.76822" height="5.08482676"></rect>
                <rect id="Prostokąt_10_kopia_4" fill="url(#linearGradient-16)" fill-rule="nonzero" x="20.0603731" y="102.422939" width="193.76822" height="5.08482676"></rect>
                <rect id="Prostokąt_10_kopia_4_1_" fill="url(#linearGradient-17)" fill-rule="nonzero" x="20.2419741" y="101.878136" width="194.313023" height="5.44802867"></rect>
                <rect id="Prostokąt_10_kopia_2" fill="url(#linearGradient-18)" fill-rule="nonzero" x="14.7939454" y="107.326165" width="205.20908" height="9.08004779"></rect>
                <path d="M102.688808,97.5197133 L131.381759,97.5197133 L131.381759,102.60454 L102.688808,102.60454 L102.688808,97.5197133 Z M99.2383898,102.422939 L134.650576,102.422939 L134.650576,107.507766 L99.2383898,107.507766 L99.2383898,102.422939 Z M95.9695726,107.507766 L138.100994,107.507766 L138.100994,115.86141 L95.9695726,115.86141 L95.9695726,107.507766 Z" id="Prostokąt_11" fill="#000000" fill-rule="nonzero" opacity="0.2"></path>
                <rect id="Prostokąt_8" fill="url(#linearGradient-19)" fill-rule="nonzero" x="34.7700505" y="69.1899642" width="163.44086" height="27.2401434"></rect>
                <path d="M40.2180792,74.6379928 L67.4582226,74.6379928 L67.4582226,94.614098 L40.2180792,94.614098 L40.2180792,74.6379928 Z M71.0902417,74.6379928 L98.3303851,74.6379928 L98.3303851,94.614098 L71.0902417,94.614098 L71.0902417,74.6379928 Z M101.962404,74.6379928 L131.018557,74.6379928 L131.018557,94.614098 L101.962404,94.614098 L101.962404,74.6379928 Z M136.466586,74.6379928 L163.706729,74.6379928 L163.706729,94.614098 L136.466586,94.614098 L136.466586,74.6379928 Z M167.338748,74.6379928 L194.578892,74.6379928 L194.578892,94.614098 L167.338748,94.614098 L167.338748,74.6379928 Z" id="Prostokąt_8_kopia" fill="#000000" fill-rule="nonzero" opacity="0.3"></path>
                <path d="M49.298127,54.6618877 L56.5621652,54.6618877 L56.5621652,69.1899642 L49.298127,69.1899642 L49.298127,54.6618877 Z M60.1941843,54.6618877 L67.4582226,54.6618877 L67.4582226,69.1899642 L60.1941843,69.1899642 L60.1941843,54.6618877 Z M71.0902417,54.6618877 L78.3542799,54.6618877 L78.3542799,69.1899642 L71.0902417,69.1899642 L71.0902417,54.6618877 Z M81.986299,54.6618877 L89.2503373,54.6618877 L89.2503373,69.1899642 L81.986299,69.1899642 L81.986299,54.6618877 Z M92.8823564,54.6618877 L100.146395,54.6618877 L100.146395,69.1899642 L92.8823564,69.1899642 L92.8823564,54.6618877 Z M103.778414,54.6618877 L111.042452,54.6618877 L111.042452,69.1899642 L103.778414,69.1899642 L103.778414,54.6618877 Z M114.674471,54.6618877 L121.938509,54.6618877 L121.938509,69.1899642 L114.674471,69.1899642 L114.674471,54.6618877 Z M125.570528,54.6618877 L132.834567,54.6618877 L132.834567,69.1899642 L125.570528,69.1899642 L125.570528,54.6618877 Z M136.466586,54.6618877 L143.730624,54.6618877 L143.730624,69.1899642 L136.466586,69.1899642 L136.466586,54.6618877 Z M147.362643,54.6618877 L154.626681,54.6618877 L154.626681,69.1899642 L147.362643,69.1899642 L147.362643,54.6618877 Z M158.2587,54.6618877 L165.522739,54.6618877 L165.522739,69.1899642 L158.2587,69.1899642 L158.2587,54.6618877 Z M169.154758,54.6618877 L176.418796,54.6618877 L176.418796,69.1899642 L169.154758,69.1899642 L169.154758,54.6618877 Z M180.050815,54.6618877 L187.314853,54.6618877 L187.314853,69.1899642 L180.050815,69.1899642 L180.050815,54.6618877 Z" id="Prostokąt_12" fill="#000000" fill-rule="nonzero" opacity="0.3"></path>
                <path d="M169.154758,76.4540024 L169.154758,94.614098 L167.338748,94.614098 L167.338748,74.6379928 L194.578892,74.6379928 L194.578892,76.4540024 L169.154758,76.4540024 Z M138.282595,94.614098 L136.466586,94.614098 L136.466586,74.6379928 L163.706729,74.6379928 L163.706729,76.4540024 L138.282595,76.4540024 L138.282595,94.614098 Z M103.778414,94.614098 L101.962404,94.614098 L101.962404,74.6379928 L131.018557,74.6379928 L131.018557,76.4540024 L103.778414,76.4540024 L103.778414,94.614098 Z M72.9062513,94.614098 L71.0902417,94.614098 L71.0902417,74.6379928 L98.3303851,74.6379928 L98.3303851,76.4540024 L72.9062513,76.4540024 L72.9062513,94.614098 Z M42.0340888,94.614098 L40.2180792,94.614098 L40.2180792,74.6379928 L67.4582226,74.6379928 L67.4582226,76.4540024 L42.0340888,76.4540024 L42.0340888,94.614098 Z" id="Kształt_103" fill="#0F0F3B" opacity="0.2"></path>
                <path d="M194.760493,45.037037 C202.024531,46.1266428 220.91103,47.3978495 227.630266,45.037037 C233.259895,43.0394265 235.620708,46.8530466 233.623097,51.7562724 C213.465391,57.0227001 174.965988,64.6499403 118.669692,64.6499403 C61.2837901,64.6499403 20.423575,55.7514934 0.629070846,50.1218638 C-1.73174158,44.6738351 2.98988327,43.4026284 7.52990717,45.037037 C13.3411378,47.0346476 28.95882,46.3082437 35.1332524,45.7634409 C41.3076849,45.218638 47.3005165,43.7658303 47.3005165,43.4026284 L187.678055,43.4026284 C187.859656,43.2210275 189.494065,44.3106332 194.760493,45.037037 Z" id="Kształt_101_kopia_2-2_2_" fill="url(#linearGradient-20)"></path>
                <path d="M116.672082,25.9689367 C171.333969,25.9689367 201.661329,14.1648746 213.28379,8.35364397 C213.646992,11.8040621 211.830982,16.8888889 206.746156,20.702509 C200.753324,25.2425329 194.397291,29.2377539 187.678055,32.869773 L49.116526,32.869773 C49.116526,32.869773 33.1356419,27.0585424 24.781998,17.2520908 C19.6971712,11.0776583 19.8787722,7.26403823 22.4211855,5.44802867 C30.5932286,11.2592593 57.651771,25.9689367 116.672082,25.9689367 Z" id="Kształt_101_kopia_1_" fill="url(#linearGradient-21)"></path>
                <path d="M116.672082,25.9689367 C171.333969,25.9689367 201.661329,14.1648746 213.28379,8.35364397 C213.646992,11.8040621 211.830982,16.8888889 206.746156,20.702509 C200.753324,25.2425329 194.397291,29.2377539 187.678055,32.869773 L49.116526,32.869773 C49.116526,32.869773 33.1356419,27.0585424 24.781998,17.2520908 C19.6971712,11.0776583 19.8787722,7.26403823 22.4211855,5.44802867 C30.5932286,11.2592593 57.651771,25.9689367 116.672082,25.9689367 Z" id="Kształt_101_kopia" fill="#000000" fill-rule="nonzero" opacity="0.3"></path>
                <polygon id="Prostokąt_7" fill="url(#linearGradient-22)" fill-rule="nonzero" points="45.6661079 16.525687 187.314853 16.525687 187.314853 43.7658303 45.6661079 44.1290323"></polygon>
                <polygon id="Prostokąt_7_1_" fill="#000000" fill-rule="nonzero" opacity="0.15" points="45.6661079 16.525687 187.314853 16.525687 187.314853 43.7658303 45.6661079 44.1290323"></polygon>
                <path d="M51.1141366,32.869773 L56.5621652,32.869773 L56.5621652,43.7658303 L51.1141366,43.7658303 L51.1141366,32.869773 Z M60.1941843,32.869773 L65.642213,32.869773 L65.642213,43.7658303 L60.1941843,43.7658303 L60.1941843,32.869773 Z M69.2742321,32.869773 L74.7222608,32.869773 L74.7222608,43.7658303 L69.2742321,43.7658303 L69.2742321,32.869773 Z M78.3542799,32.869773 L83.8023086,32.869773 L83.8023086,43.7658303 L78.3542799,43.7658303 L78.3542799,32.869773 Z M87.4343277,32.869773 L92.8823564,32.869773 L92.8823564,43.7658303 L87.4343277,43.7658303 L87.4343277,32.869773 Z M96.5143755,32.869773 L101.962404,32.869773 L101.962404,43.7658303 L96.5143755,43.7658303 L96.5143755,32.869773 Z M105.594423,32.869773 L111.042452,32.869773 L111.042452,43.7658303 L105.594423,43.7658303 L105.594423,32.869773 Z M114.674471,32.869773 L120.1225,32.869773 L120.1225,43.7658303 L114.674471,43.7658303 L114.674471,32.869773 Z M123.754519,32.869773 L129.202548,32.869773 L129.202548,43.7658303 L123.754519,43.7658303 L123.754519,32.869773 Z M132.834567,32.869773 L138.282595,32.869773 L138.282595,43.7658303 L132.834567,43.7658303 L132.834567,32.869773 Z M141.914614,32.869773 L147.362643,32.869773 L147.362643,43.7658303 L141.914614,43.7658303 L141.914614,32.869773 Z M149.178653,32.869773 L154.626681,32.869773 L154.626681,43.7658303 L149.178653,43.7658303 L149.178653,32.869773 Z M158.2587,32.869773 L163.706729,32.869773 L163.706729,43.7658303 L158.2587,43.7658303 L158.2587,32.869773 Z M167.338748,32.869773 L172.786777,32.869773 L172.786777,43.7658303 L167.338748,43.7658303 L167.338748,32.869773 Z M176.418796,32.869773 L181.866825,32.869773 L181.866825,43.7658303 L176.418796,43.7658303 L176.418796,32.869773 Z M52.9301461,29.2377539 L54.7461557,29.2377539 L54.7461557,31.0537634 L52.9301461,31.0537634 L52.9301461,29.2377539 Z M62.0101939,29.2377539 L63.8262035,29.2377539 L63.8262035,31.0537634 L62.0101939,31.0537634 L62.0101939,29.2377539 Z M71.0902417,29.2377539 L72.9062513,29.2377539 L72.9062513,31.0537634 L71.0902417,31.0537634 L71.0902417,29.2377539 Z M80.1702895,29.2377539 L81.986299,29.2377539 L81.986299,31.0537634 L80.1702895,31.0537634 L80.1702895,29.2377539 Z M89.2503373,29.2377539 L91.0663468,29.2377539 L91.0663468,31.0537634 L89.2503373,31.0537634 L89.2503373,29.2377539 Z M98.3303851,29.2377539 L100.146395,29.2377539 L100.146395,31.0537634 L98.3303851,31.0537634 L98.3303851,29.2377539 Z M107.410433,29.2377539 L109.226442,29.2377539 L109.226442,31.0537634 L107.410433,31.0537634 L107.410433,29.2377539 Z M116.490481,29.2377539 L118.30649,29.2377539 L118.30649,31.0537634 L116.490481,31.0537634 L116.490481,29.2377539 Z M125.570528,29.2377539 L127.386538,29.2377539 L127.386538,31.0537634 L125.570528,31.0537634 L125.570528,29.2377539 Z M134.650576,29.2377539 L136.466586,29.2377539 L136.466586,31.0537634 L134.650576,31.0537634 L134.650576,29.2377539 Z M143.730624,29.2377539 L145.546634,29.2377539 L145.546634,31.0537634 L143.730624,31.0537634 L143.730624,29.2377539 Z M150.994662,29.2377539 L152.810672,29.2377539 L152.810672,31.0537634 L150.994662,31.0537634 L150.994662,29.2377539 Z M160.07471,29.2377539 L161.89072,29.2377539 L161.89072,31.0537634 L160.07471,31.0537634 L160.07471,29.2377539 Z M169.154758,29.2377539 L170.970767,29.2377539 L170.970767,31.0537634 L169.154758,31.0537634 L169.154758,29.2377539 Z M178.234806,29.2377539 L180.050815,29.2377539 L180.050815,31.0537634 L178.234806,31.0537634 L178.234806,29.2377539 Z" id="Prostokąt_14" fill="#000000" fill-rule="nonzero" opacity="0.3"></path>
                <path d="M52.9301461,29.2377539 L54.7461557,29.2377539 L54.7461557,31.0537634 L52.9301461,31.0537634 L52.9301461,29.2377539 Z M71.0902417,29.2377539 L72.9062513,29.2377539 L72.9062513,31.0537634 L71.0902417,31.0537634 L71.0902417,29.2377539 Z M89.2503373,29.2377539 L91.0663468,29.2377539 L91.0663468,31.0537634 L89.2503373,31.0537634 L89.2503373,29.2377539 Z M125.570528,29.2377539 L127.386538,29.2377539 L127.386538,31.0537634 L125.570528,31.0537634 L125.570528,29.2377539 Z M160.07471,29.2377539 L161.89072,29.2377539 L161.89072,31.0537634 L160.07471,31.0537634 L160.07471,29.2377539 Z" id="Prostokąt_14_kopia" fill="#FFFFFF"></path>
                <path d="M173.876383,6.90083632 C180.414017,9.4432497 199.118916,9.08004779 206.746156,5.08482676 C211.104579,2.90561529 213.646992,5.81123059 213.28379,9.98805257 C201.661329,15.7992832 171.51557,27.6033453 116.672082,27.6033453 C54.9277566,27.6033453 28.2324161,11.4408602 21.5131808,6.53763441 C22.7843875,4.72162485 25.6900027,4.17682198 28.4140171,5.08482676 C34.2252477,7.08243728 46.9373146,10.7144564 56.1989633,6.90083632 C59.6493815,5.44802867 62.7365977,3.08721625 64.9158092,-2.5807048e-14 C64.9158092,-2.5807048e-14 98.3303851,3.45041816 118.669692,3.45041816 C139.008999,3.45041816 167.157147,-2.5807048e-14 167.157147,-2.5807048e-14 C167.157147,-2.5807048e-14 169.154758,5.08482676 173.876383,6.90083632 Z" id="Kształt_101" fill="url(#linearGradient-23)"></path>
            </g>
            <g id="right" transform="translate(234.265233, 36.864994)">
                <g id="building_-_2" transform="translate(61.925926, 0.000000)">
                    <path d="M13.4384707,1.27120669 L57.0227001,1.27120669 C57.567503,1.27120669 57.9307049,1.6344086 57.9307049,2.17921147 L57.9307049,3.99522103 C57.9307049,4.54002389 57.567503,4.90322581 57.0227001,4.90322581 L13.4384707,4.90322581 C12.8936679,4.90322581 12.5304659,4.54002389 12.5304659,3.99522103 L12.5304659,2.17921147 C12.5304659,1.6344086 12.8936679,1.27120669 13.4384707,1.27120669 Z" id="Prostokąt_zaokrąglony_2" fill="url(#linearGradient-24)" fill-rule="nonzero"></path>
                    <rect id="Prostokąt_19" fill="#2D66DE" fill-rule="nonzero" x="19.9761051" y="5.26642772" width="27.6033453" height="16.525687"></rect>
                    <polygon id="Kształt_83_kopia_4" fill="url(#linearGradient-25)" points="-5.1614096e-14 168.162485 30.1457587 5.44802867 67.0107527 0 67.0107527 266.408602 1.81600956 266.408602"></polygon>
                    <path d="M18.7048984,252.425329 L18.3416965,248.793309 L58.4755078,248.793309 L58.4755078,252.425329 L18.7048984,252.425329 Z M17.6152927,239.531661 L58.4755078,239.531661 L58.4755078,243.16368 L17.9784946,243.16368 L17.6152927,239.531661 Z M16.8888889,230.451613 L58.6571087,230.451613 L58.6571087,234.083632 L17.2520908,234.083632 L16.8888889,230.451613 Z M16.1624851,221.189964 L58.6571087,221.189964 L58.6571087,224.821983 L16.525687,224.821983 L16.1624851,221.189964 Z M15.4360812,211.928315 L58.6571087,211.928315 L58.6571087,215.560335 L15.7992832,215.560335 L15.4360812,211.928315 Z M14.5280765,202.848268 L58.4755078,202.848268 L58.4755078,206.480287 L14.7096774,206.480287 L14.5280765,202.848268 Z M13.8016726,193.586619 L58.6571087,193.586619 L58.6571087,197.218638 L14.1648746,197.218638 L13.8016726,193.586619 Z M13.0752688,184.506571 L58.6571087,184.506571 L58.6571087,188.13859 L13.4384707,188.13859 L13.0752688,184.506571 Z M12.348865,175.244922 L58.6571087,175.244922 L58.6571087,178.876941 L12.5304659,178.876941 L12.348865,175.244922 Z M11.8040621,168.888889 L12.348865,166.164875 L58.6571087,166.164875 L58.6571087,169.796894 L11.8040621,169.796894 L11.8040621,168.888889 Z M13.9832736,156.903226 L58.6571087,156.903226 L58.6571087,160.535245 L13.2568698,160.535245 L13.9832736,156.903226 Z M15.6176822,147.641577 L58.6571087,147.641577 L58.6571087,151.273596 L14.8912784,151.273596 L15.6176822,147.641577 Z M17.2520908,138.561529 L58.6571087,138.561529 L58.6571087,142.193548 L16.525687,142.193548 L17.2520908,138.561529 Z M18.8864994,129.299881 L58.6571087,129.299881 L58.6571087,132.9319 L18.3416965,132.9319 L18.8864994,129.299881 Z M20.520908,120.038232 L58.6571087,120.038232 L58.6571087,123.670251 L19.7945042,123.670251 L20.520908,120.038232 Z M22.1553166,110.958184 L58.4755078,110.958184 L58.4755078,114.590203 L21.6105137,114.590203 L22.1553166,110.958184 Z M23.7897252,101.696535 L58.4755078,101.696535 L58.4755078,105.328554 L23.0633214,105.328554 L23.7897252,101.696535 Z M25.6057348,92.6164875 L58.6571087,92.6164875 L58.6571087,96.2485066 L24.8793309,96.2485066 L25.6057348,92.6164875 Z M27.2401434,83.3548387 L58.6571087,83.3548387 L58.6571087,86.9868578 L26.5137395,86.9868578 L27.2401434,83.3548387 Z M28.874552,74.09319 L58.6571087,74.09319 L58.6571087,77.7252091 L28.3297491,77.7252091 L28.874552,74.09319 Z M30.5089606,65.0131422 L58.6571087,65.0131422 L58.6571087,68.6451613 L29.9641577,68.6451613 L30.5089606,65.0131422 Z M32.1433692,55.7514934 L58.6571087,55.7514934 L58.6571087,59.3835125 L31.5985663,59.3835125 L32.1433692,55.7514934 Z M33.7777778,46.6714456 L58.4755078,46.6714456 L58.4755078,50.3034648 L33.051374,50.3034648 L33.7777778,46.6714456 Z M35.4121864,37.4097969 L58.4755078,37.4097969 L58.4755078,41.041816 L34.6857826,41.041816 L35.4121864,37.4097969 Z M37.2281959,28.1481481 L58.6571087,28.1481481 L58.6571087,31.7801673 L36.5017921,31.7801673 L37.2281959,28.1481481 Z M38.8626045,19.0681004 L58.6571087,19.0681004 L58.6571087,22.7001195 L38.1362007,22.7001195 L38.8626045,19.0681004 Z" id="Kształt_109" fill="#FFFFFF" opacity="0.2"></path>
                    <polygon id="Kształt_93_kopia_6" fill="url(#linearGradient-26)" points="1.6344086 168.888889 31.0537634 6.1744325 8.17204301 26.3321386 0.908004779 168.888889 0.908004779 267.135006 10.1696535 267.135006"></polygon>
                </g>
                <g id="building_-_1" transform="translate(0.000000, 33.959379)">
                    <polygon id="Kształt_83_1_" fill="url(#linearGradient-27)" points="1.81600956 95.5221027 43.2210275 0 50.4850657 0 59.9283154 51.7562724 59.9283154 230.633214 1.81600956 230.633214"></polygon>
                    <path d="M14.5280765,221.553166 L18.1600956,221.553166 L18.1600956,225.185185 L14.5280765,225.185185 L14.5280765,221.553166 Z M23.6081243,221.553166 L27.2401434,221.553166 L27.2401434,225.185185 L23.6081243,225.185185 L23.6081243,221.553166 Z M32.688172,221.553166 L36.3201912,221.553166 L36.3201912,225.185185 L32.688172,225.185185 L32.688172,221.553166 Z M41.7682198,221.553166 L45.4002389,221.553166 L45.4002389,225.185185 L41.7682198,225.185185 L41.7682198,221.553166 Z M50.8482676,221.553166 L54.4802867,221.553166 L54.4802867,225.185185 L50.8482676,225.185185 L50.8482676,221.553166 Z M14.5280765,212.473118 L18.1600956,212.473118 L18.1600956,216.105137 L14.5280765,216.105137 L14.5280765,212.473118 Z M23.6081243,212.473118 L27.2401434,212.473118 L27.2401434,216.105137 L23.6081243,216.105137 L23.6081243,212.473118 Z M32.688172,212.473118 L36.3201912,212.473118 L36.3201912,216.105137 L32.688172,216.105137 L32.688172,212.473118 Z M41.7682198,212.473118 L45.4002389,212.473118 L45.4002389,216.105137 L41.7682198,216.105137 L41.7682198,212.473118 Z M50.8482676,212.473118 L54.4802867,212.473118 L54.4802867,216.105137 L50.8482676,216.105137 L50.8482676,212.473118 Z M14.5280765,203.39307 L18.1600956,203.39307 L18.1600956,207.02509 L14.5280765,207.02509 L14.5280765,203.39307 Z M23.6081243,203.39307 L27.2401434,203.39307 L27.2401434,207.02509 L23.6081243,207.02509 L23.6081243,203.39307 Z M32.688172,203.39307 L36.3201912,203.39307 L36.3201912,207.02509 L32.688172,207.02509 L32.688172,203.39307 Z M41.7682198,203.39307 L45.4002389,203.39307 L45.4002389,207.02509 L41.7682198,207.02509 L41.7682198,203.39307 Z M50.8482676,203.39307 L54.4802867,203.39307 L54.4802867,207.02509 L50.8482676,207.02509 L50.8482676,203.39307 Z M14.5280765,194.313023 L18.1600956,194.313023 L18.1600956,197.945042 L14.5280765,197.945042 L14.5280765,194.313023 Z M23.6081243,194.313023 L27.2401434,194.313023 L27.2401434,197.945042 L23.6081243,197.945042 L23.6081243,194.313023 Z M32.688172,194.313023 L36.3201912,194.313023 L36.3201912,197.945042 L32.688172,197.945042 L32.688172,194.313023 Z M41.7682198,194.313023 L45.4002389,194.313023 L45.4002389,197.945042 L41.7682198,197.945042 L41.7682198,194.313023 Z M50.8482676,194.313023 L54.4802867,194.313023 L54.4802867,197.945042 L50.8482676,197.945042 L50.8482676,194.313023 Z M14.5280765,185.232975 L18.1600956,185.232975 L18.1600956,188.864994 L14.5280765,188.864994 L14.5280765,185.232975 Z M23.6081243,185.232975 L27.2401434,185.232975 L27.2401434,188.864994 L23.6081243,188.864994 L23.6081243,185.232975 Z M32.688172,185.232975 L36.3201912,185.232975 L36.3201912,188.864994 L32.688172,188.864994 L32.688172,185.232975 Z M41.7682198,185.232975 L45.4002389,185.232975 L45.4002389,188.864994 L41.7682198,188.864994 L41.7682198,185.232975 Z M50.8482676,185.232975 L54.4802867,185.232975 L54.4802867,188.864994 L50.8482676,188.864994 L50.8482676,185.232975 Z M14.5280765,176.152927 L18.1600956,176.152927 L18.1600956,179.784946 L14.5280765,179.784946 L14.5280765,176.152927 Z M23.6081243,176.152927 L27.2401434,176.152927 L27.2401434,179.784946 L23.6081243,179.784946 L23.6081243,176.152927 Z M32.688172,176.152927 L36.3201912,176.152927 L36.3201912,179.784946 L32.688172,179.784946 L32.688172,176.152927 Z M41.7682198,176.152927 L45.4002389,176.152927 L45.4002389,179.784946 L41.7682198,179.784946 L41.7682198,176.152927 Z M50.8482676,176.152927 L54.4802867,176.152927 L54.4802867,179.784946 L50.8482676,179.784946 L50.8482676,176.152927 Z M14.5280765,165.25687 L18.1600956,165.25687 L18.1600956,168.888889 L14.5280765,168.888889 L14.5280765,165.25687 Z M23.6081243,165.25687 L27.2401434,165.25687 L27.2401434,168.888889 L23.6081243,168.888889 L23.6081243,165.25687 Z M32.688172,165.25687 L36.3201912,165.25687 L36.3201912,168.888889 L32.688172,168.888889 L32.688172,165.25687 Z M41.7682198,165.25687 L45.4002389,165.25687 L45.4002389,168.888889 L41.7682198,168.888889 L41.7682198,165.25687 Z M50.8482676,165.25687 L54.4802867,165.25687 L54.4802867,168.888889 L50.8482676,168.888889 L50.8482676,165.25687 Z M14.5280765,156.176822 L18.1600956,156.176822 L18.1600956,159.808841 L14.5280765,159.808841 L14.5280765,156.176822 Z M23.6081243,156.176822 L27.2401434,156.176822 L27.2401434,159.808841 L23.6081243,159.808841 L23.6081243,156.176822 Z M32.688172,156.176822 L36.3201912,156.176822 L36.3201912,159.808841 L32.688172,159.808841 L32.688172,156.176822 Z M41.7682198,156.176822 L45.4002389,156.176822 L45.4002389,159.808841 L41.7682198,159.808841 L41.7682198,156.176822 Z M50.8482676,156.176822 L54.4802867,156.176822 L54.4802867,159.808841 L50.8482676,159.808841 L50.8482676,156.176822 Z M14.5280765,147.096774 L18.1600956,147.096774 L18.1600956,150.728793 L14.5280765,150.728793 L14.5280765,147.096774 Z M23.6081243,147.096774 L27.2401434,147.096774 L27.2401434,150.728793 L23.6081243,150.728793 L23.6081243,147.096774 Z M32.688172,147.096774 L36.3201912,147.096774 L36.3201912,150.728793 L32.688172,150.728793 L32.688172,147.096774 Z M41.7682198,147.096774 L45.4002389,147.096774 L45.4002389,150.728793 L41.7682198,150.728793 L41.7682198,147.096774 Z M50.8482676,147.096774 L54.4802867,147.096774 L54.4802867,150.728793 L50.8482676,150.728793 L50.8482676,147.096774 Z M14.5280765,138.016726 L18.1600956,138.016726 L18.1600956,141.648746 L14.5280765,141.648746 L14.5280765,138.016726 Z M23.6081243,138.016726 L27.2401434,138.016726 L27.2401434,141.648746 L23.6081243,141.648746 L23.6081243,138.016726 Z M32.688172,138.016726 L36.3201912,138.016726 L36.3201912,141.648746 L32.688172,141.648746 L32.688172,138.016726 Z M41.7682198,138.016726 L45.4002389,138.016726 L45.4002389,141.648746 L41.7682198,141.648746 L41.7682198,138.016726 Z M50.8482676,138.016726 L54.4802867,138.016726 L54.4802867,141.648746 L50.8482676,141.648746 L50.8482676,138.016726 Z M14.5280765,128.936679 L18.1600956,128.936679 L18.1600956,132.568698 L14.5280765,132.568698 L14.5280765,128.936679 Z M23.6081243,128.936679 L27.2401434,128.936679 L27.2401434,132.568698 L23.6081243,132.568698 L23.6081243,128.936679 Z M32.688172,128.936679 L36.3201912,128.936679 L36.3201912,132.568698 L32.688172,132.568698 L32.688172,128.936679 Z M41.7682198,128.936679 L45.4002389,128.936679 L45.4002389,132.568698 L41.7682198,132.568698 L41.7682198,128.936679 Z M50.8482676,128.936679 L54.4802867,128.936679 L54.4802867,132.568698 L50.8482676,132.568698 L50.8482676,128.936679 Z M14.5280765,119.856631 L18.1600956,119.856631 L18.1600956,123.48865 L14.5280765,123.48865 L14.5280765,119.856631 Z M23.6081243,119.856631 L27.2401434,119.856631 L27.2401434,123.48865 L23.6081243,123.48865 L23.6081243,119.856631 Z M32.688172,119.856631 L36.3201912,119.856631 L36.3201912,123.48865 L32.688172,123.48865 L32.688172,119.856631 Z M41.7682198,119.856631 L45.4002389,119.856631 L45.4002389,123.48865 L41.7682198,123.48865 L41.7682198,119.856631 Z M50.8482676,119.856631 L54.4802867,119.856631 L54.4802867,123.48865 L50.8482676,123.48865 L50.8482676,119.856631 Z M14.5280765,110.776583 L18.1600956,110.776583 L18.1600956,114.408602 L14.5280765,114.408602 L14.5280765,110.776583 Z M23.6081243,110.776583 L27.2401434,110.776583 L27.2401434,114.408602 L23.6081243,114.408602 L23.6081243,110.776583 Z M32.688172,110.776583 L36.3201912,110.776583 L36.3201912,114.408602 L32.688172,114.408602 L32.688172,110.776583 Z M41.7682198,110.776583 L45.4002389,110.776583 L45.4002389,114.408602 L41.7682198,114.408602 L41.7682198,110.776583 Z M50.8482676,110.776583 L54.4802867,110.776583 L54.4802867,114.408602 L50.8482676,114.408602 L50.8482676,110.776583 Z M14.5280765,101.696535 L18.1600956,101.696535 L18.1600956,105.328554 L14.5280765,105.328554 L14.5280765,101.696535 Z M23.6081243,101.696535 L27.2401434,101.696535 L27.2401434,105.328554 L23.6081243,105.328554 L23.6081243,101.696535 Z M32.688172,101.696535 L36.3201912,101.696535 L36.3201912,105.328554 L32.688172,105.328554 L32.688172,101.696535 Z M41.7682198,101.696535 L45.4002389,101.696535 L45.4002389,105.328554 L41.7682198,105.328554 L41.7682198,101.696535 Z M50.8482676,101.696535 L54.4802867,101.696535 L54.4802867,105.328554 L50.8482676,105.328554 L50.8482676,101.696535 Z M14.5280765,92.6164875 L18.1600956,92.6164875 L18.1600956,96.2485066 L14.5280765,96.2485066 L14.5280765,92.6164875 Z M23.6081243,92.6164875 L27.2401434,92.6164875 L27.2401434,96.2485066 L23.6081243,96.2485066 L23.6081243,92.6164875 Z M32.688172,92.6164875 L36.3201912,92.6164875 L36.3201912,96.2485066 L32.688172,96.2485066 L32.688172,92.6164875 Z M41.7682198,92.6164875 L45.4002389,92.6164875 L45.4002389,96.2485066 L41.7682198,96.2485066 L41.7682198,92.6164875 Z M50.8482676,92.6164875 L54.4802867,92.6164875 L54.4802867,96.2485066 L50.8482676,96.2485066 L50.8482676,92.6164875 Z M23.6081243,83.5364397 L27.2401434,83.5364397 L27.2401434,87.1684588 L23.6081243,87.1684588 L23.6081243,83.5364397 Z M32.688172,83.5364397 L36.3201912,83.5364397 L36.3201912,87.1684588 L32.688172,87.1684588 L32.688172,83.5364397 Z M41.7682198,83.5364397 L45.4002389,83.5364397 L45.4002389,87.1684588 L41.7682198,87.1684588 L41.7682198,83.5364397 Z M50.8482676,83.5364397 L54.4802867,83.5364397 L54.4802867,87.1684588 L50.8482676,87.1684588 L50.8482676,83.5364397 Z M23.6081243,74.4563919 L27.2401434,74.4563919 L27.2401434,78.088411 L23.6081243,78.088411 L23.6081243,74.4563919 Z M32.688172,74.4563919 L36.3201912,74.4563919 L36.3201912,78.088411 L32.688172,78.088411 L32.688172,74.4563919 Z M41.7682198,74.4563919 L45.4002389,74.4563919 L45.4002389,78.088411 L41.7682198,78.088411 L41.7682198,74.4563919 Z M50.8482676,74.4563919 L54.4802867,74.4563919 L54.4802867,78.088411 L50.8482676,78.088411 L50.8482676,74.4563919 Z M32.688172,65.3763441 L36.3201912,65.3763441 L36.3201912,69.0083632 L32.688172,69.0083632 L32.688172,65.3763441 Z M41.7682198,65.3763441 L45.4002389,65.3763441 L45.4002389,69.0083632 L41.7682198,69.0083632 L41.7682198,65.3763441 Z M50.8482676,65.3763441 L54.4802867,65.3763441 L54.4802867,69.0083632 L50.8482676,69.0083632 L50.8482676,65.3763441 Z M32.688172,56.2962963 L36.3201912,56.2962963 L36.3201912,59.9283154 L32.688172,59.9283154 L32.688172,56.2962963 Z M41.7682198,56.2962963 L45.4002389,56.2962963 L45.4002389,59.9283154 L41.7682198,59.9283154 L41.7682198,56.2962963 Z M50.8482676,56.2962963 L54.4802867,56.2962963 L54.4802867,59.9283154 L50.8482676,59.9283154 L50.8482676,56.2962963 Z M32.688172,47.2162485 L36.3201912,47.2162485 L36.3201912,50.8482676 L32.688172,50.8482676 L32.688172,47.2162485 Z M41.7682198,47.2162485 L45.4002389,47.2162485 L45.4002389,50.8482676 L41.7682198,50.8482676 L41.7682198,47.2162485 Z M50.8482676,47.2162485 L54.4802867,47.2162485 L54.4802867,50.8482676 L50.8482676,50.8482676 L50.8482676,47.2162485 Z M41.7682198,38.1362007 L45.4002389,38.1362007 L45.4002389,41.7682198 L41.7682198,41.7682198 L41.7682198,38.1362007 Z M41.7682198,29.0561529 L45.4002389,29.0561529 L45.4002389,32.688172 L41.7682198,32.688172 L41.7682198,29.0561529 Z M41.7682198,19.9761051 L45.4002389,19.9761051 L45.4002389,23.6081243 L41.7682198,23.6081243 L41.7682198,19.9761051 Z" id="Prostokąt_16_1_" fill="#FFFFFF" opacity="0.2"></path>
                    <path d="M14.5280765,221.553166 L18.1600956,221.553166 L18.1600956,225.185185 L14.5280765,225.185185 L14.5280765,221.553166 Z M32.688172,212.473118 L36.3201912,212.473118 L36.3201912,216.105137 L32.688172,216.105137 L32.688172,212.473118 Z M23.6081243,203.39307 L27.2401434,203.39307 L27.2401434,207.02509 L23.6081243,207.02509 L23.6081243,203.39307 Z M32.688172,194.313023 L36.3201912,194.313023 L36.3201912,197.945042 L32.688172,197.945042 L32.688172,194.313023 Z M32.688172,185.232975 L36.3201912,185.232975 L36.3201912,188.864994 L32.688172,188.864994 L32.688172,185.232975 Z M41.7682198,185.232975 L45.4002389,185.232975 L45.4002389,188.864994 L41.7682198,188.864994 L41.7682198,185.232975 Z M23.6081243,165.25687 L27.2401434,165.25687 L27.2401434,168.888889 L23.6081243,168.888889 L23.6081243,165.25687 Z M32.688172,138.016726 L36.3201912,138.016726 L36.3201912,141.648746 L32.688172,141.648746 L32.688172,138.016726 Z M50.8482676,128.936679 L54.4802867,128.936679 L54.4802867,132.568698 L50.8482676,132.568698 L50.8482676,128.936679 Z M14.5280765,119.856631 L18.1600956,119.856631 L18.1600956,123.48865 L14.5280765,123.48865 L14.5280765,119.856631 Z M32.688172,119.856631 L36.3201912,119.856631 L36.3201912,123.48865 L32.688172,123.48865 L32.688172,119.856631 Z M32.688172,92.6164875 L36.3201912,92.6164875 L36.3201912,96.2485066 L32.688172,96.2485066 L32.688172,92.6164875 Z M41.7682198,92.6164875 L45.4002389,92.6164875 L45.4002389,96.2485066 L41.7682198,96.2485066 L41.7682198,92.6164875 Z M41.7682198,56.2962963 L45.4002389,56.2962963 L45.4002389,59.9283154 L41.7682198,59.9283154 L41.7682198,56.2962963 Z M41.7682198,47.2162485 L45.4002389,47.2162485 L45.4002389,50.8482676 L41.7682198,50.8482676 L41.7682198,47.2162485 Z M41.7682198,29.0561529 L45.4002389,29.0561529 L45.4002389,32.688172 L41.7682198,32.688172 L41.7682198,29.0561529 Z" id="Prostokąt_16_kopia_1_" fill="#FFFFFF"></path>
                    <polygon id="Kształt_93_kopia" fill="url(#linearGradient-28)" points="7.26403823 95.5221027 43.2210275 0 9.26164875 28.5113501 -5.1614096e-14 95.7037037 -5.1614096e-14 230.633214 3.63201912 230.633214"></polygon>
                </g>
            </g>
        </g>
    </g>
</svg>