<?xml version="1.0" encoding="UTF-8"?>
<svg width="460px" height="320px" viewBox="0 0 460 320" version="1.1" xmlns="http://www.w3.org/2000/svg" xmlns:xlink="http://www.w3.org/1999/xlink">
    <title>tokyo</title>
    <defs>
        <linearGradient x1="50%" y1="0%" x2="50%" y2="100%" id="linearGradient-1">
            <stop stop-color="#2BA0DE" offset="0%"></stop>
            <stop stop-color="#473C9E" offset="100%"></stop>
        </linearGradient>
        <linearGradient x1="-1.0203069e-15%" y1="49.9995786%" x2="99.9998582%" y2="49.9995786%" id="linearGradient-2">
            <stop stop-color="#1D7EE8" offset="0%"></stop>
            <stop stop-color="#2EA7DB" offset="100%"></stop>
        </linearGradient>
        <linearGradient x1="100%" y1="50%" x2="0%" y2="50%" id="linearGradient-3">
            <stop stop-color="#3651BF" offset="0%"></stop>
            <stop stop-color="#2E5BDB" offset="100%"></stop>
        </linearGradient>
        <polygon id="path-4" points="60.5980066 80.7973422 0 80.7973422 0.201993355 66.0518272 60.5980066 0"></polygon>
        <linearGradient x1="-0.165217391%" y1="50%" x2="99.8347826%" y2="50%" id="linearGradient-6">
            <stop stop-color="#451088" offset="0%"></stop>
            <stop stop-color="#593179" offset="100%"></stop>
        </linearGradient>
        <linearGradient x1="-1.35341473e-13%" y1="50%" x2="100%" y2="50%" id="linearGradient-7">
            <stop stop-color="#451088" offset="0%"></stop>
            <stop stop-color="#593179" offset="100%"></stop>
        </linearGradient>
        <linearGradient x1="-0.212121212%" y1="50%" x2="99.7878788%" y2="50%" id="linearGradient-8">
            <stop stop-color="#451088" offset="0%"></stop>
            <stop stop-color="#593179" offset="100%"></stop>
        </linearGradient>
        <linearGradient x1="0.31884058%" y1="50%" x2="99.8695652%" y2="50%" id="linearGradient-9">
            <stop stop-color="#451088" offset="0%"></stop>
            <stop stop-color="#593179" offset="100%"></stop>
        </linearGradient>
        <linearGradient x1="0%" y1="50.0119956%" x2="100%" y2="50.0119956%" id="linearGradient-10">
            <stop stop-color="#2E59BF" offset="0%"></stop>
            <stop stop-color="#593192" offset="100%"></stop>
        </linearGradient>
        <linearGradient x1="0%" y1="50%" x2="100%" y2="50%" id="linearGradient-11">
            <stop stop-color="#2E59BF" offset="0%"></stop>
            <stop stop-color="#593192" offset="100%"></stop>
        </linearGradient>
        <linearGradient x1="3.82012224e-14%" y1="50%" x2="100%" y2="50%" id="linearGradient-12">
            <stop stop-color="#2E59BF" offset="0%"></stop>
            <stop stop-color="#593192" offset="100%"></stop>
        </linearGradient>
        <linearGradient x1="-0.128571429%" y1="50%" x2="99.8714286%" y2="50%" id="linearGradient-13">
            <stop stop-color="#4C3EA1" offset="0%"></stop>
            <stop stop-color="#2E3192" offset="100%"></stop>
        </linearGradient>
        <linearGradient x1="0.185840708%" y1="50%" x2="100.300885%" y2="50%" id="linearGradient-14">
            <stop stop-color="#4C3EA1" offset="0%"></stop>
            <stop stop-color="#2E3192" offset="100%"></stop>
        </linearGradient>
        <linearGradient x1="0.238095238%" y1="50%" x2="100.238095%" y2="50%" id="linearGradient-15">
            <stop stop-color="#4C3EA1" offset="0%"></stop>
            <stop stop-color="#2E3192" offset="100%"></stop>
        </linearGradient>
        <linearGradient x1="7.4%" y1="50%" x2="88.2%" y2="50%" id="linearGradient-16">
            <stop stop-color="#3651BF" offset="0%"></stop>
            <stop stop-color="#2E5BDB" offset="100%"></stop>
        </linearGradient>
        <linearGradient x1="99.8103448%" y1="50%" x2="-0.0402298851%" y2="50%" id="linearGradient-17">
            <stop stop-color="#4531A7" offset="0%"></stop>
            <stop stop-color="#423179" offset="100%"></stop>
        </linearGradient>
        <linearGradient x1="0.270114943%" y1="50%" x2="100.114943%" y2="50%" id="linearGradient-18">
            <stop stop-color="#4531A7" offset="0%"></stop>
            <stop stop-color="#423179" offset="100%"></stop>
        </linearGradient>
        <linearGradient x1="100%" y1="50%" x2="0%" y2="50%" id="linearGradient-19">
            <stop stop-color="#2E3192" offset="0%"></stop>
            <stop stop-color="#4C3EA1" offset="100%"></stop>
        </linearGradient>
        <linearGradient x1="99.8109091%" y1="50%" x2="-0.189090909%" y2="50%" id="linearGradient-20">
            <stop stop-color="#451088" offset="0%"></stop>
            <stop stop-color="#593179" offset="100%"></stop>
        </linearGradient>
        <linearGradient x1="100%" y1="50%" x2="0%" y2="50%" id="linearGradient-21">
            <stop stop-color="#451088" offset="0%"></stop>
            <stop stop-color="#593179" offset="100%"></stop>
        </linearGradient>
        <linearGradient x1="100%" y1="50%" x2="0%" y2="50%" id="linearGradient-22">
            <stop stop-color="#451088" offset="0%"></stop>
            <stop stop-color="#593179" offset="100%"></stop>
        </linearGradient>
        <linearGradient x1="99.8781002%" y1="50%" x2="-0.121599455%" y2="50%" id="linearGradient-23">
            <stop stop-color="#451088" offset="0%"></stop>
            <stop stop-color="#593179" offset="100%"></stop>
        </linearGradient>
        <linearGradient x1="73.6%" y1="50%" x2="33.2%" y2="50%" id="linearGradient-24">
            <stop stop-color="#451088" offset="0%"></stop>
            <stop stop-color="#593179" offset="100%"></stop>
        </linearGradient>
        <linearGradient x1="71.1%" y1="50%" x2="30.7%" y2="50%" id="linearGradient-25">
            <stop stop-color="#451088" offset="0%"></stop>
            <stop stop-color="#593179" offset="100%"></stop>
        </linearGradient>
        <linearGradient x1="0%" y1="50%" x2="100%" y2="50%" id="linearGradient-26">
            <stop stop-color="#3651BF" offset="0%"></stop>
            <stop stop-color="#2E5BDB" offset="100%"></stop>
        </linearGradient>
        <linearGradient x1="0%" y1="50%" x2="100%" y2="50%" id="linearGradient-27">
            <stop stop-color="#2E42BF" offset="0%"></stop>
            <stop stop-color="#593192" offset="100%"></stop>
        </linearGradient>
        <linearGradient x1="0%" y1="50%" x2="100%" y2="50%" id="linearGradient-28">
            <stop stop-color="#2E59BF" offset="0%"></stop>
            <stop stop-color="#593192" offset="100%"></stop>
        </linearGradient>
        <linearGradient x1="0%" y1="50%" x2="100%" y2="50%" id="linearGradient-29">
            <stop stop-color="#2E40BF" offset="0%"></stop>
            <stop stop-color="#593192" offset="100%"></stop>
        </linearGradient>
        <linearGradient x1="0.221818182%" y1="50%" x2="100.221818%" y2="50%" id="linearGradient-30">
            <stop stop-color="#451088" offset="0%"></stop>
            <stop stop-color="#593179" offset="100%"></stop>
        </linearGradient>
        <linearGradient x1="3.1%" y1="50%" x2="104.1%" y2="50%" id="linearGradient-31">
            <stop stop-color="#451088" offset="0%"></stop>
            <stop stop-color="#593179" offset="100%"></stop>
        </linearGradient>
        <linearGradient x1="0%" y1="50%" x2="100%" y2="50%" id="linearGradient-32">
            <stop stop-color="#451088" offset="0%"></stop>
            <stop stop-color="#593179" offset="100%"></stop>
        </linearGradient>
        <linearGradient x1="0.179040045%" y1="50%" x2="100.178619%" y2="50%" id="linearGradient-33">
            <stop stop-color="#451088" offset="0%"></stop>
            <stop stop-color="#593179" offset="100%"></stop>
        </linearGradient>
        <linearGradient x1="0.55%" y1="50%" x2="101.6%" y2="50%" id="linearGradient-34">
            <stop stop-color="#451088" offset="0%"></stop>
            <stop stop-color="#593179" offset="100%"></stop>
        </linearGradient>
        <linearGradient x1="0%" y1="50%" x2="100%" y2="50%" id="linearGradient-35">
            <stop stop-color="#451088" offset="0%"></stop>
            <stop stop-color="#593179" offset="100%"></stop>
        </linearGradient>
        <linearGradient x1="0.8%" y1="50%" x2="101.85%" y2="50%" id="linearGradient-36">
            <stop stop-color="#451088" offset="0%"></stop>
            <stop stop-color="#593179" offset="100%"></stop>
        </linearGradient>
        <linearGradient x1="27.3%" y1="50%" x2="67.7%" y2="50%" id="linearGradient-37">
            <stop stop-color="#451088" offset="0%"></stop>
            <stop stop-color="#593179" offset="100%"></stop>
        </linearGradient>
        <linearGradient x1="29.8%" y1="50%" x2="70.2%" y2="50%" id="linearGradient-38">
            <stop stop-color="#451088" offset="0%"></stop>
            <stop stop-color="#593179" offset="100%"></stop>
        </linearGradient>
    </defs>
    <g id="tokyo" stroke="none" stroke-width="1" fill="none" fill-rule="evenodd">
        <rect id="Rectangle" fill="url(#linearGradient-1)" x="0" y="0" width="460" height="320"></rect>
        <g id="Tokyo" transform="translate(29.000000, 16.000000)">
            <path d="M19.1893688,111.096346 L23.2292359,111.096346 L23.2292359,119.17608 L19.1893688,119.17608 L19.1893688,111.096346 Z M41.4086379,111.096346 L45.448505,111.096346 L45.448505,119.17608 L41.4086379,119.17608 L41.4086379,111.096346 Z" id="Shape" fill="#000000" fill-rule="nonzero" opacity="0.3"></path>
            <path d="M274.104983,50.4983389 C265.419269,55.3461794 252.491694,59.1840532 244.41196,55.9521595 C232.090365,51.1043189 213.304983,48.6803987 210.07309,51.1043189 C206.841196,53.5282392 192.095681,63.4259136 170.078405,51.9122924 C161.392691,47.4684385 151.495017,45.6504983 141.799336,47.0644518 L26.0571429,145.839203 L25.6531561,303.39402 L377.324087,303.39402 L377.324087,165.432558 C377.525581,165.432558 316.321595,96.1488372 274.104983,50.4983389 Z" id="Path" fill="url(#linearGradient-2)" fill-rule="nonzero"></path>
            <polygon id="Path" fill="#000000" fill-rule="nonzero" opacity="0.2" points="329.249169 269.05515 329.249169 226.636545 300.9701 226.636545 300.9701 250.875748 286.830565 250.875748 286.830565 210.881063 262.591362 194.923588 262.591362 250.875748 260.571429 250.875748 260.571429 220.576744 234.312292 220.576744 234.312292 236.736213 185.833887 236.736213 185.833887 211.689037 169.674419 197.549502 169.674419 248.855814 159.574751 248.855814 159.574751 220.576744 84.8372093 220.576744 84.8372093 269.05515 30.2990033 269.05515 30.2990033 303.39402 379.747508 303.39402 379.747508 269.05515"></polygon>
            <polyline id="Path" fill="url(#linearGradient-3)" fill-rule="nonzero" points="395.906977 303.39402 395.906977 71.1016611 319.149502 155.130897 319.149502 303.39402 395.906977 303.39402"></polyline>
            <path d="M329.249169,214.516944 L385.807309,214.516944 L385.807309,220.576744 L329.249169,220.576744 L329.249169,214.516944 Z M329.249169,224.616611 L385.807309,224.616611 L385.807309,230.676412 L329.249169,230.676412 L329.249169,224.616611 Z M329.249169,236.736213 L385.807309,236.736213 L385.807309,242.796013 L329.249169,242.796013 L329.249169,236.736213 Z M329.249169,248.855814 L385.807309,248.855814 L385.807309,254.915615 L329.249169,254.915615 L329.249169,248.855814 Z M329.249169,260.975415 L385.807309,260.975415 L385.807309,267.035216 L329.249169,267.035216 L329.249169,260.975415 Z M329.249169,190.277741 L385.807309,190.277741 L385.807309,196.337542 L329.249169,196.337542 L329.249169,190.277741 Z M329.249169,202.397342 L385.807309,202.397342 L385.807309,208.457143 L329.249169,208.457143 L329.249169,202.397342 Z" id="Shape" fill="#FFFFFF" fill-rule="nonzero" opacity="0.15"></path>
            <g id="Group" opacity="0.6" transform="translate(331.269103, 95.340864)">
                <g id="Clipped">
                    <mask id="mask-5" fill="white">
                        <use xlink:href="#path-4"></use>
                    </mask>
                    <g id="C"></g>
                    <g id="Group" mask="url(#mask-5)" fill="#FFFFFF" fill-rule="nonzero" opacity="0.2">
                        <g transform="translate(-2.019934, 4.039867)" id="Shape">
                            <path d="M0,22.2192691 L56.5581395,22.2192691 L56.5581395,28.2790698 L0,28.2790698 L0,22.2192691 Z M0,34.3388704 L56.5581395,34.3388704 L56.5581395,40.3986711 L0,40.3986711 L0,34.3388704 Z M0,0 L56.5581395,0 L56.5581395,6.05980066 L0,6.05980066 L0,0 Z M0,12.1196013 L56.5581395,12.1196013 L56.5581395,18.179402 L0,18.179402 L0,12.1196013 Z M0,46.4584718 L56.5581395,46.4584718 L56.5581395,52.5182724 L0,52.5182724 L0,46.4584718 Z M0,58.5780731 L56.5581395,58.5780731 L56.5581395,64.6378738 L0,64.6378738 L0,58.5780731 Z"></path>
                        </g>
                    </g>
                </g>
            </g>
            <path d="M170.280399,51.9122924 C192.297674,63.4259136 207.043189,53.5282392 210.275083,51.1043189 C213.506977,48.6803987 232.292359,51.1043189 244.613953,55.9521595 C252.693688,59.1840532 265.621262,55.3461794 274.306977,50.4983389 L246.2299,20.8053156 C212.699003,-12.7255814 172.704319,20.8053156 172.704319,20.8053156 L142.001329,47.0644518 C151.69701,45.6504983 161.594684,47.4684385 170.280399,51.9122924 L170.280399,51.9122924 Z" id="Path" fill="#BDE6FF" fill-rule="nonzero" opacity="0.8"></path>
            <path d="M223.000664,203.205316 L216.536877,127.255814 L215.728904,109.278405 L214.112957,98.5727575 L212.49701,61.8099668 L210.275083,61.8099668 L208.659136,98.5727575 L207.043189,109.278405 L207.043189,127.255814 L199.771429,203.205316 C195.731561,256.329568 164.624585,288.042525 164.624585,288.042525 L174.320266,288.042525 C191.085714,264.409302 208.659136,264.409302 208.659136,264.409302 L208.659136,288.042525 L214.31495,288.042525 L214.31495,264.409302 C214.31495,264.409302 231.888372,264.409302 248.653821,288.042525 L257.541528,288.042525 C224.616611,252.895681 223.000664,203.205316 223.000664,203.205316 L223.000664,203.205316 Z M208.457143,257.945515 C204.013289,258.551495 199.569435,259.561462 195.327575,261.177409 L197.751495,254.713621 L208.457143,254.713621 L208.457143,257.945515 Z M208.457143,251.279734 L198.761462,251.279734 L201.185382,244.007973 L208.457143,244.007973 L208.457143,251.279734 Z M208.457143,240.77608 L201.993355,240.77608 L203.609302,233.504319 L208.457143,233.504319 L208.457143,240.77608 Z M208.457143,230.070432 L203.609302,230.070432 L204.417276,222.798671 L208.457143,222.798671 L208.457143,230.070432 Z M208.457143,219.566777 L205.225249,219.566777 L206.033223,215.52691 L208.457143,215.52691 L208.457143,219.566777 L208.457143,219.566777 Z M214.31495,215.52691 L216.73887,215.52691 L217.546844,219.566777 L214.31495,219.566777 L214.31495,215.52691 L214.31495,215.52691 Z M214.31495,222.798671 L218.354817,222.798671 L219.162791,230.070432 L214.31495,230.070432 L214.31495,222.798671 Z M214.31495,233.302326 L219.162791,233.302326 L220.778738,240.574086 L214.31495,240.574086 L214.31495,233.302326 Z M214.31495,244.007973 L221.586711,244.007973 L224.010631,251.279734 L214.31495,251.279734 L214.31495,244.007973 Z M214.31495,257.945515 L214.31495,254.713621 L225.020598,254.713621 L227.444518,261.177409 C223.000664,259.561462 218.758804,258.349502 214.31495,257.945515 Z" id="Shape" fill="url(#linearGradient-6)" fill-rule="nonzero"></path>
            <polygon id="Path" fill="#FFFFFF" fill-rule="nonzero" opacity="0.1" points="206.841196 110.086379 215.728904 110.086379 215.728904 114.934219 206.841196 114.934219"></polygon>
            <polygon id="Path" fill="url(#linearGradient-7)" fill-rule="nonzero" points="219.970764 127.255814 203.609302 127.255814 201.185382 115.136213 222.394684 115.136213"></polygon>
            <polygon id="Path" fill="url(#linearGradient-8)" fill-rule="nonzero" points="226.434551 206.437209 196.337542 206.437209 191.489701 191.691694 231.484385 191.691694"></polygon>
            <polygon id="Path" fill="url(#linearGradient-9)" fill-rule="nonzero" points="207.245183 97.9667774 215.930897 97.9667774 218.354817 101.198671 218.354817 106.854485 215.930897 110.086379 207.245183 110.086379 204.417276 106.450498 204.417276 101.198671"></polygon>
            <path d="M219.970764,127.255814 L203.609302,127.255814 L201.185382,115.136213 L222.394684,115.136213 L219.970764,127.255814 Z M226.434551,206.437209 L196.337542,206.437209 L191.489701,191.691694 L231.484385,191.691694 L226.434551,206.437209 Z M207.245183,97.9667774 L215.930897,97.9667774 L218.354817,101.198671 L218.354817,106.854485 L215.930897,110.086379 L207.245183,110.086379 L204.417276,106.450498 L204.417276,101.198671 L207.245183,97.9667774 Z" id="Shape" fill="#000000" fill-rule="nonzero" opacity="0.15"></path>
            <path d="M221.586711,196.741528 C221.990698,196.741528 222.394684,197.145515 222.394684,197.549502 L222.394684,200.781395 C222.394684,201.185382 221.990698,201.589369 221.586711,201.589369 C221.182724,201.589369 220.778738,201.185382 220.778738,200.781395 L220.778738,197.549502 C220.778738,196.943522 221.182724,196.741528 221.586711,196.741528 Z M217.546844,196.741528 C217.950831,196.741528 218.354817,197.145515 218.354817,197.549502 L218.354817,200.781395 C218.354817,201.185382 217.950831,201.589369 217.546844,201.589369 C217.142857,201.589369 216.73887,201.185382 216.73887,200.781395 L216.73887,197.549502 C216.73887,196.943522 216.940864,196.741528 217.546844,196.741528 Z M213.506977,196.741528 C213.910963,196.741528 214.31495,197.145515 214.31495,197.549502 L214.31495,200.781395 C214.31495,201.185382 213.910963,201.589369 213.506977,201.589369 C213.10299,201.589369 212.699003,201.185382 212.699003,200.781395 L212.699003,197.549502 C212.699003,196.943522 212.900997,196.741528 213.506977,196.741528 Z M209.265116,196.741528 C209.669103,196.741528 210.07309,197.145515 210.07309,197.549502 L210.07309,200.781395 C210.07309,201.185382 209.669103,201.589369 209.265116,201.589369 C208.86113,201.589369 208.457143,201.185382 208.457143,200.781395 L208.457143,197.549502 C208.457143,196.943522 208.86113,196.741528 209.265116,196.741528 Z M205.225249,196.741528 C205.629236,196.741528 206.033223,197.145515 206.033223,197.549502 L206.033223,200.781395 C206.033223,201.185382 205.629236,201.589369 205.225249,201.589369 C204.821262,201.589369 204.417276,201.185382 204.417276,200.781395 L204.417276,197.549502 C204.417276,196.943522 204.821262,196.741528 205.225249,196.741528 Z M201.185382,196.741528 C201.589369,196.741528 201.993355,197.145515 201.993355,197.549502 L201.993355,200.781395 C201.993355,201.185382 201.589369,201.589369 201.185382,201.589369 C200.781395,201.589369 200.377409,201.185382 200.377409,200.781395 L200.377409,197.549502 C200.377409,196.943522 200.781395,196.741528 201.185382,196.741528 Z" id="Shape" fill="#FFFFFF" fill-rule="nonzero"></path>
            <polygon id="Path" fill="url(#linearGradient-10)" fill-rule="nonzero" points="6.05980066 118.166113 62.6179402 118.166113 62.6179402 303.39402 6.05980066 303.39402"></polygon>
            <polygon id="Path" fill="#000000" fill-rule="nonzero" opacity="0.3" points="5.65581395 118.368106 62.6179402 118.368106 62.6179402 124.6299 5.65581395 124.6299"></polygon>
            <polygon id="Path" fill="url(#linearGradient-11)" fill-rule="nonzero" points="0 126.447841 0 303.39402 6.05980066 303.39402 6.05980066 118.166113"></polygon>
            <polygon id="Path" fill="#000000" fill-rule="nonzero" opacity="0.15" points="0 126.447841 0 303.39402 6.05980066 303.39402 6.05980066 118.166113"></polygon>
            <polygon id="Path" fill="url(#linearGradient-12)" fill-rule="nonzero" points="133.517608 303.39402 122.609967 116.752159 126.447841 109.076412 125.84186 108.672425 122.407973 115.136213 117.96412 37.5707641 111.500332 37.5707641 106.854485 115.136213 103.622591 108.672425 102.814618 109.076412 106.854485 116.752159 95.9468439 303.39402"></polygon>
            <path d="M127.659801,110.894352 L101.602658,110.894352 C99.3807309,110.894352 97.5627907,109.076412 97.5627907,106.854485 L93.5229236,88.069103 C93.5229236,85.8471761 95.3408638,84.0292359 97.5627907,84.0292359 L131.901661,84.0292359 C134.123588,84.0292359 135.941528,85.8471761 135.941528,88.069103 L131.901661,106.854485 C131.901661,109.076412 130.083721,110.894352 127.659801,110.894352 Z" id="Path" fill="url(#linearGradient-13)" fill-rule="nonzero"></path>
            <g id="D-link" transform="translate(103.218605, 58.780066)" fill="url(#linearGradient-14)" fill-rule="nonzero">
                <path d="M1.21196013,0 L21.613289,0 C22.2192691,0 22.8252492,0.605980066 22.8252492,1.21196013 C22.8252492,1.8179402 22.2192691,2.42392027 21.613289,2.42392027 L1.21196013,2.42392027 C0.605980066,2.42392027 1.43524911e-14,1.8179402 1.43524911e-14,1.21196013 C1.43524911e-14,0.403986711 0.605980066,0 1.21196013,0 Z" id="D"></path>
            </g>
            <g id="D-link" transform="translate(103.218605, 63.627907)" fill="url(#linearGradient-14)" fill-rule="nonzero">
                <path d="M1.21196013,0 L21.613289,0 C22.2192691,0 22.8252492,0.605980066 22.8252492,1.21196013 C22.8252492,1.8179402 22.2192691,2.42392027 21.613289,2.42392027 L1.21196013,2.42392027 C0.605980066,2.42392027 1.43524911e-14,1.8179402 1.43524911e-14,1.21196013 C1.43524911e-14,0.403986711 0.605980066,0 1.21196013,0 Z" id="D"></path>
            </g>
            <g id="E-link" transform="translate(103.218605, 68.475748)" fill="url(#linearGradient-14)" fill-rule="nonzero">
                <path d="M1.21196013,0 L21.613289,0 C22.2192691,0 22.8252492,0.605980066 22.8252492,1.21196013 C22.8252492,1.8179402 22.2192691,2.42392027 21.613289,2.42392027 L1.21196013,2.42392027 C0.605980066,2.42392027 1.43524911e-14,1.8179402 1.43524911e-14,1.21196013 C1.43524911e-14,0.605980066 0.605980066,0 1.21196013,0 Z" id="E"></path>
            </g>
            <g id="D-link" transform="translate(103.218605, 78.373422)" fill="url(#linearGradient-14)" fill-rule="nonzero">
                <path d="M1.21196013,0 L21.613289,0 C22.2192691,0 22.8252492,0.605980066 22.8252492,1.21196013 C22.8252492,1.8179402 22.2192691,2.42392027 21.613289,2.42392027 L1.21196013,2.42392027 C0.605980066,2.42392027 1.43524911e-14,1.8179402 1.43524911e-14,1.21196013 C1.43524911e-14,0.403986711 0.605980066,0 1.21196013,0 Z" id="D"></path>
            </g>
            <g id="E-link" transform="translate(103.218605, 73.323588)" fill="url(#linearGradient-14)" fill-rule="nonzero">
                <path d="M1.21196013,0 L21.613289,0 C22.2192691,0 22.8252492,0.605980066 22.8252492,1.21196013 C22.8252492,1.8179402 22.2192691,2.42392027 21.613289,2.42392027 L1.21196013,2.42392027 C0.605980066,2.42392027 1.43524911e-14,1.8179402 1.43524911e-14,1.21196013 C1.43524911e-14,0.605980066 0.605980066,0 1.21196013,0 Z" id="E"></path>
            </g>
            <path d="M121.196013,55.144186 L108.066445,55.144186 C106.854485,55.144186 106.046512,54.3362126 106.046512,53.1242525 L104.026578,43.8325581 C104.026578,42.620598 104.834551,41.8126246 106.046512,41.8126246 L123.215947,41.8126246 C124.427907,41.8126246 125.23588,42.620598 125.23588,43.8325581 L123.215947,53.1242525 C123.215947,54.3362126 122.407973,55.144186 121.196013,55.144186 Z" id="Path" fill="url(#linearGradient-15)" fill-rule="nonzero"></path>
            <polygon id="Path" fill="url(#linearGradient-16)" fill-rule="nonzero" points="113.924252 7.17624557e-15 115.540199 7.17624557e-15 115.540199 37.5707641 113.924252 37.5707641"></polygon>
            <polygon id="Path" fill="url(#linearGradient-17)" fill-rule="nonzero" points="132.103654 303.596013 97.5627907 269.05515 127.861794 237.544186 100.794684 209.871096 125.033887 184.82392 103.420598 162.604651 122.81196 142.809302 105.642525 125.033887 119.984053 110.288372 120.38804 110.894352 106.652492 125.033887 123.821927 142.809302 104.632558 162.604651 126.043854 184.82392 102.006645 209.871096 128.871761 237.544186 98.5727575 269.05515 132.709635 304"></polygon>
            <polygon id="Path" fill="url(#linearGradient-18)" fill-rule="nonzero" points="96.7548173 303.596013 96.1488372 304 130.285714 269.05515 99.986711 237.544186 126.851827 209.871096 102.612625 184.82392 124.225914 162.604651 105.036545 142.809302 122.20598 125.033887 108.470432 110.894352 108.874419 110.288372 123.41794 125.033887 106.046512 142.809302 125.437874 162.604651 103.824585 184.82392 128.063787 209.871096 100.996678 237.544186 131.295681 269.05515"></polygon>
            <polygon id="Path" fill="#000000" fill-rule="nonzero" opacity="0.1" points="123.619934 303.39402 105.642525 303.39402 113.924252 110.894352 115.540199 110.894352"></polygon>
            <path d="M125.23588,91.3009967 L128.467774,91.3009967 L128.467774,103.622591 L125.23588,103.622591 L125.23588,91.3009967 Z M121.196013,91.3009967 L124.427907,91.3009967 L124.427907,103.622591 L121.196013,103.622591 L121.196013,91.3009967 Z M117.156146,91.3009967 L120.38804,91.3009967 L120.38804,103.622591 L117.156146,103.622591 L117.156146,91.3009967 Z M113.116279,91.3009967 L116.348173,91.3009967 L116.348173,103.622591 L113.116279,103.622591 L113.116279,91.3009967 Z M108.874419,91.3009967 L112.106312,91.3009967 L112.106312,103.622591 L108.874419,103.622591 L108.874419,91.3009967 Z M104.834551,91.3009967 L108.066445,91.3009967 L108.066445,103.622591 L104.834551,103.622591 L104.834551,91.3009967 Z M100.794684,91.3009967 L104.026578,91.3009967 L104.026578,103.622591 L100.794684,103.622591 L100.794684,91.3009967 Z M113.924252,3.02990033 L115.540199,3.02990033 L115.540199,8.68571429 L113.924252,8.68571429 L113.924252,3.02990033 Z" id="Shape" fill="#FFFFFF" fill-rule="nonzero"></path>
            <polygon id="Path" fill="#000000" fill-rule="nonzero" opacity="0.3" points="43.4285714 82.8172757 45.448505 82.8172757 45.448505 111.096346 43.4285714 111.096346"></polygon>
            <polygon id="Path" fill="url(#linearGradient-19)" fill-rule="nonzero" points="402.976744 303.39402 395.906977 303.39402 395.906977 71.1016611 402.976744 79.3833887"></polygon>
            <path d="M275.518937,250.471761 L277.134884,252.087708 C277.134884,252.087708 279.558804,257.743522 319.149502,275.72093 C319.149502,275.72093 328.643189,276.528904 331.06711,270.87309 C331.06711,270.87309 330.259136,277.53887 324.199336,279.760797 L310.665781,276.528904 L275.518937,256.127575 L275.518937,250.471761 L275.518937,250.471761 Z" id="Path" fill="url(#linearGradient-20)" fill-rule="nonzero"></path>
            <path d="M275.518937,250.471761 L277.134884,251.279734 C277.134884,251.279734 285.214618,260.975415 319.149502,275.72093 C319.149502,275.72093 328.643189,276.528904 331.06711,270.87309 C331.06711,270.87309 330.259136,277.53887 324.199336,279.760797 L310.665781,276.528904 L275.518937,256.127575 L275.518937,250.471761 L275.518937,250.471761 Z" id="Path" fill="#000000" fill-rule="nonzero" opacity="0.3"></path>
            <polygon id="Path" fill="url(#linearGradient-21)" fill-rule="nonzero" points="311.069767 281.174751 315.109635 281.174751 315.109635 303.39402 311.069767 303.39402"></polygon>
            <polygon id="Path" fill="#000000" fill-rule="nonzero" opacity="0.3" points="311.069767 281.174751 315.109635 281.174751 315.109635 303.39402 311.069767 303.39402"></polygon>
            <polygon id="Path" fill="url(#linearGradient-22)" fill-rule="nonzero" points="240.372093 281.174751 311.069767 281.174751 311.069767 303.39402 240.372093 303.39402"></polygon>
            <path d="M233.100332,277.134884 C233.100332,277.134884 275.518937,258.147508 275.518937,249.663787 C275.518937,258.147508 317.937542,277.134884 317.937542,277.134884 C320.765449,278.14485 328.643189,275.11495 328.643189,275.11495 C328.643189,280.770764 318.947508,280.770764 318.947508,280.770764 L232.292359,280.770764 C232.292359,280.770764 222.596678,280.770764 222.596678,275.11495 C222.394684,274.912957 229.262458,278.14485 233.100332,277.134884 Z" id="Path" fill="url(#linearGradient-23)" fill-rule="nonzero"></path>
            <path d="M233.100332,277.942857 C233.100332,277.942857 271.883056,259.965449 275.11495,250.875748 C275.11495,250.673754 275.316944,250.673754 275.518937,250.673754 C275.518937,250.673754 275.72093,250.673754 275.72093,250.875748 C279.154817,259.763455 317.735548,277.134884 317.735548,277.134884 C319.755482,278.14485 328.441196,275.11495 328.441196,275.11495 C328.441196,280.770764 318.745515,280.770764 318.745515,280.770764 L232.292359,280.770764 C232.292359,280.770764 222.596678,280.770764 222.596678,275.11495 C222.394684,274.912957 228.454485,278.14485 233.100332,277.942857 Z" id="Path" fill="#000000" fill-rule="nonzero" opacity="0.1"></path>
            <path d="M242.392027,283.194684 L254.511628,283.194684 L254.511628,303.39402 L242.392027,303.39402 L242.392027,283.194684 Z M296.930233,283.194684 L256.531561,283.194684 L256.531561,303.39402 L309.049834,303.39402 L309.049834,283.194684 L296.930233,283.194684 Z" id="Shape" fill="#FFFFFF" fill-rule="nonzero" opacity="0.3"></path>
            <polygon id="Path" fill="url(#linearGradient-21)" fill-rule="nonzero" points="319.149502 281.174751 323.189369 281.174751 323.189369 303.39402 319.149502 303.39402"></polygon>
            <polygon id="Path" fill="#000000" fill-rule="nonzero" opacity="0.3" points="319.149502 281.174751 323.189369 281.174751 323.189369 303.39402 319.149502 303.39402"></polygon>
            <polygon id="Path" fill="url(#linearGradient-21)" fill-rule="nonzero" points="260.571429 281.174751 264.611296 281.174751 264.611296 303.39402 260.571429 303.39402"></polygon>
            <polygon id="Path" fill="url(#linearGradient-21)" fill-rule="nonzero" points="286.830565 281.174751 290.870432 281.174751 290.870432 303.39402 286.830565 303.39402"></polygon>
            <polygon id="Path" fill="url(#linearGradient-21)" fill-rule="nonzero" points="230.272425 281.174751 234.312292 281.174751 234.312292 303.39402 230.272425 303.39402"></polygon>
            <polygon id="Path" fill="url(#linearGradient-21)" fill-rule="nonzero" points="317.129568 281.174751 321.169435 281.174751 321.169435 303.39402 317.129568 303.39402"></polygon>
            <path d="M260.571429,281.174751 L264.611296,281.174751 L264.611296,303.39402 L260.571429,303.39402 L260.571429,281.174751 Z M286.830565,281.174751 L290.870432,281.174751 L290.870432,303.39402 L286.830565,303.39402 L286.830565,281.174751 Z M230.272425,281.174751 L234.312292,281.174751 L234.312292,303.39402 L230.272425,303.39402 L230.272425,281.174751 Z M317.129568,281.174751 L321.169435,281.174751 L321.169435,303.39402 L317.129568,303.39402 L317.129568,281.174751 Z" id="Shape" fill="#000000" fill-rule="nonzero" opacity="0.1"></path>
            <g id="F-link" transform="translate(246.229900, 280.770764)" fill="url(#linearGradient-24)" fill-rule="nonzero">
                <polygon id="F" points="0.605980066 0 1.41395349 0 1.41395349 7.2717608 0.605980066 7.2717608"></polygon>
            </g>
            <g id="F-link" opacity="0.3" transform="translate(246.229900, 280.770764)" fill="#000000" fill-rule="nonzero">
                <polygon id="F" points="0.605980066 0 1.41395349 0 1.41395349 7.2717608 0.605980066 7.2717608"></polygon>
            </g>
            <circle id="Oval" fill="#FFFFFF" fill-rule="nonzero" cx="247.239867" cy="290.062458" r="2.82790698"></circle>
            <g id="F-link" transform="translate(301.778073, 280.770764)" fill="url(#linearGradient-25)" fill-rule="nonzero">
                <polygon id="F" points="0.605980066 0 1.41395349 0 1.41395349 7.2717608 0.605980066 7.2717608"></polygon>
            </g>
            <g id="F-link" opacity="0.3" transform="translate(301.778073, 280.770764)" fill="#000000" fill-rule="nonzero">
                <polygon id="F" points="0.605980066 0 1.41395349 0 1.41395349 7.2717608 0.605980066 7.2717608"></polygon>
            </g>
            <g id="Group" transform="translate(12.119601, 57.972093)" fill="#FFFFFF" fill-rule="nonzero">
                <circle id="Oval" cx="290.668439" cy="232.090365" r="2.82790698"></circle>
                <polygon id="Path" points="198.155482 0 197.549502 8.88770764 200.781395 8.88770764 200.579402 0"></polygon>
                <path d="M317.129568,215.122924 L373.687708,215.122924 L373.687708,221.182724 L317.129568,221.182724 L317.129568,215.122924 Z M317.129568,227.242525 L373.687708,227.242525 L373.687708,233.302326 L317.129568,233.302326 L317.129568,227.242525 Z" id="Shape" opacity="0.15"></path>
                <path d="M0,93.9269103 L42.4186047,93.9269103 L42.4186047,99.986711 L0,99.986711 L0,93.9269103 Z M0,104.026578 L42.4186047,104.026578 L42.4186047,110.086379 L0,110.086379 L0,104.026578 Z M0,114.126246 L42.4186047,114.126246 L42.4186047,120.186047 L0,120.186047 L0,114.126246 Z M0,73.7275748 L42.4186047,73.7275748 L42.4186047,79.7873754 L0,79.7873754 L0,73.7275748 Z M0,83.8272425 L42.4186047,83.8272425 L42.4186047,89.8870432 L0,89.8870432 L0,83.8272425 Z M0,146.445183 L42.4186047,146.445183 L42.4186047,152.504983 L0,152.504983 L0,146.445183 Z M0,156.54485 L42.4186047,156.54485 L42.4186047,162.604651 L0,162.604651 L0,156.54485 Z M0,166.644518 L42.4186047,166.644518 L42.4186047,172.704319 L0,172.704319 L0,166.644518 Z M0,126.245847 L42.4186047,126.245847 L42.4186047,132.305648 L0,132.305648 L0,126.245847 Z M0,136.345515 L42.4186047,136.345515 L42.4186047,142.405316 L0,142.405316 L0,136.345515 Z M0,176.744186 L42.4186047,176.744186 L42.4186047,182.803987 L0,182.803987 L0,176.744186 Z M0,209.063123 L42.4186047,209.063123 L42.4186047,215.122924 L0,215.122924 L0,209.063123 Z M0,219.162791 L42.4186047,219.162791 L42.4186047,225.222591 L0,225.222591 L0,219.162791 Z M0,229.262458 L42.4186047,229.262458 L42.4186047,235.322259 L0,235.322259 L0,229.262458 Z M0,186.843854 L42.4186047,186.843854 L42.4186047,192.903654 L0,192.903654 L0,186.843854 Z M0,196.943522 L42.4186047,196.943522 L42.4186047,203.003322 L0,203.003322 L0,196.943522 Z" id="Shape" opacity="0.1"></path>
            </g>
            <polygon id="Path" fill="url(#linearGradient-26)" fill-rule="nonzero" points="42.4186047 182.198007 90.89701 182.198007 90.89701 271.075083 42.4186047 271.075083"></polygon>
            <polygon id="Path" fill="#000000" fill-rule="nonzero" opacity="0.3" points="42.4186047 182.198007 90.89701 182.198007 90.89701 188.257807 42.4186047 188.257807"></polygon>
            <polygon id="Path" fill="url(#linearGradient-27)" fill-rule="nonzero" points="36.358804 193.913621 36.358804 273.095017 42.4186047 273.095017 42.4186047 181.592027"></polygon>
            <polygon id="Path" fill="#000000" fill-rule="nonzero" opacity="0.15" points="36.358804 193.913621 36.358804 273.095017 42.4186047 273.095017 42.4186047 181.592027"></polygon>
            <path d="M48.4784053,212.49701 L82.8172757,212.49701 L82.8172757,218.556811 L48.4784053,218.556811 L48.4784053,212.49701 Z M48.4784053,224.616611 L82.8172757,224.616611 L82.8172757,230.676412 L48.4784053,230.676412 L48.4784053,224.616611 Z M48.4784053,192.297674 L82.8172757,192.297674 L82.8172757,198.357475 L48.4784053,198.357475 L48.4784053,192.297674 Z M48.4784053,202.397342 L82.8172757,202.397342 L82.8172757,208.457143 L48.4784053,208.457143 L48.4784053,202.397342 Z" id="Shape" fill="#FFFFFF" fill-rule="nonzero" opacity="0.1"></path>
            <polygon id="Path" fill="url(#linearGradient-28)" fill-rule="nonzero" points="28.2790698 234.716279 100.996678 234.716279 100.996678 303.39402 28.2790698 303.39402"></polygon>
            <polygon id="Path" fill="#000000" fill-rule="nonzero" opacity="0.3" points="28.2790698 234.716279 100.996678 234.716279 100.996678 240.77608 28.2790698 240.77608"></polygon>
            <polyline id="Path" fill="url(#linearGradient-29)" fill-rule="nonzero" points="24.2392027 246.83588 24.2392027 303.39402 28.2790698 303.39402 28.2790698 234.716279"></polyline>
            <polygon id="Path" fill="#000000" fill-rule="nonzero" opacity="0.15" points="24.2392027 246.633887 24.2392027 303.39402 28.2790698 303.39402 28.2790698 234.312292"></polygon>
            <path d="M146.445183,250.471761 L144.829236,252.087708 C144.829236,252.087708 142.405316,257.743522 102.814618,275.72093 C102.814618,275.72093 93.3209302,276.528904 90.89701,270.87309 C90.89701,270.87309 91.7049834,277.53887 97.7647841,279.760797 L111.298339,276.528904 L146.445183,256.127575 L146.445183,250.471761 Z" id="Path" fill="url(#linearGradient-30)" fill-rule="nonzero"></path>
            <path d="M146.445183,250.471761 L144.829236,251.279734 C144.829236,251.279734 136.749502,260.975415 102.814618,275.72093 C102.814618,275.72093 93.3209302,276.528904 90.89701,270.87309 C90.89701,270.87309 91.7049834,277.53887 97.7647841,279.760797 L111.298339,276.528904 L146.445183,256.127575 L146.445183,250.471761 Z" id="Path" fill="#000000" fill-rule="nonzero" opacity="0.3"></path>
            <polygon id="Path" fill="url(#linearGradient-31)" fill-rule="nonzero" points="109.076412 281.174751 113.116279 281.174751 113.116279 303.39402 109.076412 303.39402"></polygon>
            <polygon id="Path" fill="#000000" fill-rule="nonzero" opacity="0.3" points="109.076412 281.174751 113.116279 281.174751 113.116279 303.39402 109.076412 303.39402"></polygon>
            <polygon id="Path" fill="url(#linearGradient-32)" fill-rule="nonzero" points="113.116279 281.174751 183.813953 281.174751 183.813953 303.39402 113.116279 303.39402"></polygon>
            <path d="M189.065781,277.134884 C189.065781,277.134884 146.647176,258.147508 146.647176,249.663787 C146.647176,258.147508 104.228571,277.134884 104.228571,277.134884 C101.400664,278.14485 93.5229236,275.11495 93.5229236,275.11495 C93.5229236,280.770764 103.218605,280.770764 103.218605,280.770764 L189.873754,280.770764 C189.873754,280.770764 199.569435,280.770764 199.569435,275.11495 C199.771429,275.11495 193.105648,278.346844 189.065781,277.134884 Z" id="Path" fill="url(#linearGradient-33)" fill-rule="nonzero"></path>
            <path d="M189.065781,277.942857 C189.065781,277.942857 150.283056,259.965449 147.051163,250.875748 C147.051163,250.673754 146.849169,250.673754 146.647176,250.673754 C146.647176,250.673754 146.445183,250.673754 146.445183,250.875748 C143.011296,259.763455 104.430565,277.134884 104.430565,277.134884 C102.410631,278.14485 93.7249169,275.11495 93.7249169,275.11495 C93.7249169,280.770764 103.420598,280.770764 103.420598,280.770764 L190.075748,280.770764 C190.075748,280.770764 199.771429,280.770764 199.771429,275.11495 C199.771429,274.912957 193.913621,278.14485 189.065781,277.942857 Z" id="Path" fill="#000000" fill-rule="nonzero" opacity="0.1"></path>
            <path d="M169.674419,283.194684 L181.79402,283.194684 L181.79402,303.39402 L169.674419,303.39402 L169.674419,283.194684 Z M155.33289,283.194684 L115.136213,283.194684 L115.136213,303.39402 L167.654485,303.39402 L167.654485,283.194684 L155.33289,283.194684 Z" id="Shape" fill="#FFFFFF" fill-rule="nonzero" opacity="0.3"></path>
            <polygon id="Path" fill="url(#linearGradient-34)" fill-rule="nonzero" points="100.996678 281.174751 105.036545 281.174751 105.036545 303.39402 100.996678 303.39402"></polygon>
            <polygon id="Path" fill="#000000" fill-rule="nonzero" opacity="0.3" points="100.996678 281.174751 105.036545 281.174751 105.036545 303.39402 100.996678 303.39402"></polygon>
            <polygon id="Path" fill="url(#linearGradient-35)" fill-rule="nonzero" points="157.554817 281.174751 161.594684 281.174751 161.594684 303.39402 157.554817 303.39402"></polygon>
            <polygon id="Path" fill="url(#linearGradient-35)" fill-rule="nonzero" points="133.315615 281.174751 137.355482 281.174751 137.355482 303.39402 133.315615 303.39402"></polygon>
            <polygon id="Path" fill="url(#linearGradient-35)" fill-rule="nonzero" points="189.873754 281.174751 193.913621 281.174751 193.913621 303.39402 189.873754 303.39402"></polygon>
            <polygon id="Path" fill="url(#linearGradient-36)" fill-rule="nonzero" points="100.996678 281.174751 105.036545 281.174751 105.036545 303.39402 100.996678 303.39402"></polygon>
            <path d="M157.554817,281.174751 L161.594684,281.174751 L161.594684,303.39402 L157.554817,303.39402 L157.554817,281.174751 Z M133.315615,281.174751 L137.355482,281.174751 L137.355482,303.39402 L133.315615,303.39402 L133.315615,281.174751 Z M189.873754,281.174751 L193.913621,281.174751 L193.913621,303.39402 L189.873754,303.39402 L189.873754,281.174751 Z M100.996678,281.174751 L105.036545,281.174751 L105.036545,303.39402 L100.996678,303.39402 L100.996678,281.174751 Z" id="Shape" fill="#000000" fill-rule="nonzero" opacity="0.1"></path>
            <g id="F-link" transform="translate(173.714286, 280.770764)" fill="url(#linearGradient-37)" fill-rule="nonzero">
                <polygon id="F" points="0.605980066 0 1.41395349 0 1.41395349 7.2717608 0.605980066 7.2717608"></polygon>
            </g>
            <g id="F-link" opacity="0.3" transform="translate(173.714286, 280.770764)" fill="#000000" fill-rule="nonzero">
                <polygon id="F" points="0.605980066 0 1.41395349 0 1.41395349 7.2717608 0.605980066 7.2717608"></polygon>
            </g>
            <circle id="Oval" fill="#FFFFFF" fill-rule="nonzero" cx="174.724252" cy="290.062458" r="2.82790698"></circle>
            <g id="F-link" transform="translate(118.166113, 280.770764)" fill="url(#linearGradient-38)" fill-rule="nonzero">
                <polygon id="F" points="0.605980066 0 1.41395349 0 1.41395349 7.2717608 0.605980066 7.2717608"></polygon>
            </g>
            <g id="F-link" opacity="0.3" transform="translate(118.166113, 280.770764)" fill="#000000" fill-rule="nonzero">
                <polygon id="F" points="0.605980066 0 1.41395349 0 1.41395349 7.2717608 0.605980066 7.2717608"></polygon>
            </g>
            <g id="Group" transform="translate(34.338870, 247.845847)" fill="#FFFFFF" fill-rule="nonzero">
                <circle id="Oval" cx="84.8372093" cy="42.2166113" r="2.82790698"></circle>
                <path d="M43.2265781,20.4013289 L59.1840532,20.4013289 L59.1840532,25.8551495 L43.2265781,25.8551495 L43.2265781,20.4013289 Z M43.2265781,30.70299 L59.1840532,30.70299 L59.1840532,36.1568106 L43.2265781,36.1568106 L43.2265781,30.70299 Z M43.2265781,41.2066445 L59.1840532,41.2066445 L59.1840532,46.6604651 L43.2265781,46.6604651 L43.2265781,41.2066445 Z M43.2265781,5.74099646e-14 L59.1840532,5.74099646e-14 L59.1840532,5.4538206 L43.2265781,5.4538206 L43.2265781,5.74099646e-14 Z M43.2265781,10.0996678 L59.1840532,10.0996678 L59.1840532,15.5534884 L43.2265781,15.5534884 L43.2265781,10.0996678 Z" id="Shape" opacity="0.08"></path>
                <g id="G-link" opacity="0.08" transform="translate(22.219269, 1.009967)">
                    <path d="M0,20.1993355 L16.1594684,20.1993355 L16.1594684,26.2591362 L0,26.2591362 L0,20.1993355 Z M0,30.2990033 L16.1594684,30.2990033 L16.1594684,36.358804 L0,36.358804 L0,30.2990033 Z M0,40.3986711 L16.1594684,40.3986711 L16.1594684,46.4584718 L0,46.4584718 L0,40.3986711 Z M0,0 L16.1594684,0 L16.1594684,6.05980066 L0,6.05980066 L0,0 Z M0,10.0996678 L16.1594684,10.0996678 L16.1594684,16.1594684 L0,16.1594684 L0,10.0996678 Z" id="G"></path>
                </g>
                <g id="G-link" opacity="0.08" transform="translate(-0.000000, 1.009967)">
                    <path d="M0,20.1993355 L16.1594684,20.1993355 L16.1594684,26.2591362 L0,26.2591362 L0,20.1993355 Z M0,30.2990033 L16.1594684,30.2990033 L16.1594684,36.358804 L0,36.358804 L0,30.2990033 Z M0,40.3986711 L16.1594684,40.3986711 L16.1594684,46.4584718 L0,46.4584718 L0,40.3986711 Z M0,0 L16.1594684,0 L16.1594684,6.05980066 L0,6.05980066 L0,0 Z M0,10.0996678 L16.1594684,10.0996678 L16.1594684,16.1594684 L0,16.1594684 L0,10.0996678 Z" id="G"></path>
                </g>
            </g>
        </g>
    </g>
</svg>