<?xml version="1.0" encoding="UTF-8"?>
<svg width="365px" height="365px" viewBox="0 0 365 365" version="1.1" xmlns="http://www.w3.org/2000/svg" xmlns:xlink="http://www.w3.org/1999/xlink">
    <title>img1</title>
    <defs>
        <linearGradient x1="0.024693272%" y1="49.9568291%" x2="99.9018242%" y2="49.9568291%" id="linearGradient-1">
            <stop stop-color="#AFCDFD" offset="0%"></stop>
            <stop stop-color="#D7E6FE" offset="100%"></stop>
        </linearGradient>
        <linearGradient x1="0%" y1="49.9577705%" x2="100.002879%" y2="49.9577705%" id="linearGradient-2">
            <stop stop-color="#AFCDFD" offset="0%"></stop>
            <stop stop-color="#D7E6FE" offset="100%"></stop>
        </linearGradient>
        <linearGradient x1="-0.0193278%" y1="49.7544643%" x2="99.9425641%" y2="49.7544643%" id="linearGradient-3">
            <stop stop-color="#97BEFC" offset="0%"></stop>
            <stop stop-color="#ABCAFF" offset="100%"></stop>
        </linearGradient>
        <linearGradient x1="-0.00272727273%" y1="49.8139673%" x2="100%" y2="49.8139673%" id="linearGradient-4">
            <stop stop-color="#AFCDFD" offset="0%"></stop>
            <stop stop-color="#D7E6FE" offset="100%"></stop>
        </linearGradient>
        <linearGradient x1="-0.093564254%" y1="50.0333051%" x2="99.75861%" y2="50.0333051%" id="linearGradient-5">
            <stop stop-color="#AFCDFD" offset="0%"></stop>
            <stop stop-color="#D7E6FE" offset="100%"></stop>
        </linearGradient>
    </defs>
    <g id="img1" stroke="none" stroke-width="1" fill="none" fill-rule="evenodd">
        <rect fill="#FFFFFF" x="0" y="0" width="365" height="365"></rect>
        <g id="no-contract" transform="translate(62.000000, 63.000000)">
            <path d="M218.483805,37.0317117 C229.88296,43.6812188 239.065613,59.8300218 239.065613,73.129036 C239.065613,86.4280502 229.88296,91.8109845 218.483805,85.1614774 C207.08465,78.5119703 197.901997,62.3631673 197.901997,49.0641531 C197.901997,35.7651389 207.08465,30.3822046 218.483805,37.0317117 Z" id="Elipsa_2915" stroke="#007BFC" stroke-width="2"></path>
            <polyline id="Kształt_2951" stroke="#007BFC" stroke-width="2" stroke-linecap="round" points="216.900589 50.0140827 216.900589 61.0965945 224.816669 72.1791064"></polyline>
            <g id="paper" transform="translate(0.791608, 0.849011)">
                <path d="M102.909039,10.3762798 L102.909039,43.3071721 L0,102.836093 L0,64.3639446 C0,64.3639446 0,64.205623 0,63.7306582 C0,56.2895431 4.11636154,55.0229703 9.97426066,58.5060455 C11.2408334,59.1393319 14.2489438,58.5060455 15.1988734,59.4559751 L102.909039,10.3762798 Z" id="Prostokąt_2894_kopia" stroke="#101C4F" fill="#FFFFFF" fill-rule="nonzero" stroke-linecap="round" stroke-linejoin="round"></path>
                <path d="M72.5112918,201.62877 C72.5112918,201.62877 32.2976059,178.197173 32.1392843,178.038852 C25.4897772,173.764169 21.2150941,166.639697 20.7401293,158.881938 C20.7401293,158.881938 20.7401293,90.3286866 20.7401293,77.3463156 C20.7401293,70.2218437 15.6738382,61.5141558 9.34097427,57.8727591 C7.59943669,56.7645079 4.90796953,55.9728999 2.69146716,57.0811511 L99.7426066,0.718662294 C99.7426066,0.718662294 103.384003,-1.33951848 108.291973,1.51027028 C114.624837,5.15166703 120.166093,13.8593549 120.166093,20.9838268 C120.166093,21.1421484 120.166093,90.8036514 120.166093,101.886163 C120.641057,109.960565 124.440776,117.243358 131.090283,121.518041 C146.130835,130.067408 170.037396,143.524743 170.037396,143.524743 L72.5112918,201.62877 Z" id="Prostokąt_2894" stroke="#101C4F" stroke-width="0.9637" fill="#FFFFFF" fill-rule="nonzero" stroke-linecap="round" stroke-linejoin="round"></path>
                <g id="Group" transform="translate(41.955223, 55.482103)">
                    <path d="M0,37.9971835 L66.4950711,0 M0,25.3314556 L28.4978876,9.49929587 M0,50.6629113 L66.4950711,12.6657278 M0,63.3286391 L66.4950711,25.3314556 M0,88.6600947 L53.8293432,58.5789912 M0,75.9943669 L66.4950711,37.9971835" id="Kształt_2907_kopia_3"></path>
                </g>
                <path d="M68.869895,169.489485 C68.869895,169.489485 83.2771604,162.9983 79.9524069,171.072701 C76.6276533,179.147103 69.9781462,185.479967 78.3691909,178.988781 C86.7602356,172.497596 86.2852708,166.323054 86.2852708,166.323054 C86.2852708,166.323054 83.5938036,174.714098 91.0349187,171.072701 C98.4760338,167.431305 93.4097427,158.565295 97.3677826,161.573406 C101.325823,164.581516 102.909039,166.798018 106.867078,161.573406" id="Kształt_2902" stroke="#101C4F" stroke-linecap="round" stroke-linejoin="round"></path>
            </g>
            <g id="feather" transform="translate(106.075470, 0.000000)" fill-rule="nonzero">
                <path d="M19.7901997,118.250691 C19.7901997,118.250691 -3.48307515,101.785245 45.1216554,50.0140827 C53.1960568,41.4647164 114.149872,-9.98980285 126.023992,1.72599538 C137.898112,13.4417936 91.0349187,42.7312892 72.1946486,76.7704327 C47.1798361,121.10048 23.9065613,119.833907 23.9065613,119.833907 L19.7901997,118.250691 Z" id="Kształt_2901" fill="url(#linearGradient-1)"></path>
                <path d="M0,164.005633 C0,164.005633 19.6318781,117.459083 30.71439,94.8190949 C53.0377352,49.3807963 100.217571,20.8829087 100.217571,20.8829087 C100.217571,20.8829087 52.8794136,60.4633081 37.0472539,91.6526629 C26.4397068,112.551114 9.65761746,152.7648 9.65761746,152.7648 L0,164.005633 Z" id="Kształt_2900" fill="#9CC1FD"></path>
            </g>
            <g id="bottle" transform="translate(0.000000, 153.041862)" fill-rule="nonzero">
                <path d="M61.7454231,53.3939588 C61.7454231,53.3939588 62.3787095,61.3100387 52.7210921,67.484581 C41.0052938,74.9256961 21.0567725,74.4507313 9.02433107,67.484581 C2.21650237,63.6848627 0,58.7768932 0,53.710602 L0,18.8798505 C0.633286391,14.9218106 3.79971835,10.9637706 9.02433107,7.95566029 C21.0567725,0.989509986 40.6886506,0.989509986 52.7210921,7.95566029 C58.1040264,10.9637706 60.9538151,14.9218106 61.5871015,18.8798505 L61.7454231,18.8798505 L61.7454231,53.3939588 Z" id="Elipsa_2892_kopia" fill="url(#linearGradient-2)"></path>
                <path d="M9.02433107,7.95566029 C21.0567725,0.989509986 40.6886506,0.989509986 52.7210921,7.95566029 C64.7535335,14.9218106 64.7535335,26.0043224 52.7210921,32.9704727 C40.6886506,39.936623 21.0567725,39.936623 9.02433107,32.9704727 C-3.00811036,26.0043224 -3.00811036,14.763489 9.02433107,7.95566029 Z" id="Elipsa_2892_kopia_4" fill="url(#linearGradient-3)"></path>
                <path d="M47.4964793,16.8216698 L47.4964793,16.8216698 C47.4964793,19.3548153 45.7549418,21.7296393 42.4301882,23.7878201 C34.6724299,27.5875384 25.6480988,27.5875384 17.7320189,23.7878201 C14.2489438,21.8879609 12.6657278,19.3548153 12.6657278,16.8216698 L12.6657278,7.79733869 C13.6156574,5.42251472 15.357195,3.68097715 17.7320189,2.73104756 C25.4897772,-0.910349187 34.5141083,-0.910349187 42.4301882,2.73104756 C45.1216554,4.15594194 47.0215145,5.89747952 47.4964793,7.95566029 L47.4964793,16.8216698 Z" id="Elipsa_2892_kopia_2" fill="url(#linearGradient-4)"></path>
                <path d="M21.0567725,4.94754993 C26.75635,2.41440437 33.2475355,2.41440437 38.947113,4.94754993 C43.8550826,7.48069549 43.8550826,11.4387354 38.947113,13.8135594 C33.2475355,16.346705 26.75635,16.346705 21.0567725,13.8135594 C16.148803,11.2804138 16.148803,7.3223739 21.0567725,4.94754993 Z" id="Elipsa_2892_kopia_3" fill="#79A5EB"></path>
            </g>
            <path d="M150.880483,152.289835 L231.624498,106.851536 C234.474286,105.26832 239.223934,110.492933 239.223934,110.492933 L152.780342,240 C152.780342,240 145.65587,238.416784 145.65587,235.725317 L145.65587,160.364236 C145.972513,156.881161 148.030694,153.873051 150.880483,152.289835 Z" id="Prostokąt_zaokrąglony_1356_kopia_10" fill="#0066FF" fill-rule="nonzero"></path>
            <path d="M155.630131,155.456267 L235.424216,110.967898 C238.274005,109.384682 240.648829,110.334611 240.648829,113.026079 L240.648829,186.803943 C240.332185,190.128697 238.432326,193.136807 235.424216,194.720023 L155.630131,239.208392 C152.780342,240.791608 150.405518,239.841678 150.405518,237.150211 L150.405518,163.372347 C150.722161,160.047593 152.62202,157.039483 155.630131,155.456267 Z" id="Prostokąt_zaokrąglony_1356_kopia_9" fill="#007BFC" fill-rule="nonzero"></path>
            <g id="x" transform="translate(181.911516, 150.073332)" stroke="#FFFFFF" stroke-linecap="round" stroke-linejoin="round" stroke-width="2">
                <line x1="0" y1="16.6237678" x2="28.8145308" y2="33.2475355" id="Kształt_2955"></line>
                <line x1="28.8145308" y1="0" x2="-2.24988522e-14" y2="49.8713033" id="Kształt_2955_kopia"></line>
            </g>
            <path d="M42.7468314,147.381865 C42.4301882,147.381865 42.2718666,147.223544 42.113545,146.906901 C41.9552234,146.590257 42.113545,146.115293 42.4301882,145.798649 L96.2595314,115.717546 C96.5761746,115.559224 97.0511394,115.717546 97.3677826,116.034189 C97.5261042,116.350832 97.3677826,116.825797 97.0511394,117.14244 L43.2217962,147.223544 C43.0634746,147.381865 42.905153,147.381865 42.7468314,147.381865 Z M42.7468314,134.716137 C42.4301882,134.716137 42.2718666,134.557816 42.113545,134.241173 C41.9552234,133.92453 41.9552234,133.449565 42.4301882,133.132922 L108.925259,95.1357381 C109.241902,94.9774165 109.716867,94.9774165 110.03351,95.4523813 C110.350154,95.927346 110.191832,96.2439892 109.716867,96.5606324 L43.2217962,134.557816 C43.0634746,134.716137 42.905153,134.716137 42.7468314,134.716137 Z M42.7468314,122.05041 C42.4301882,122.05041 42.2718666,121.892088 42.113545,121.575445 C41.9552234,121.258802 41.9552234,120.783837 42.4301882,120.467194 L108.925259,82.4700102 C109.241902,82.3116886 109.716867,82.3116886 110.03351,82.7866534 C110.191832,83.1032966 110.191832,83.5782614 109.716867,83.8949046 L43.2217962,121.892088 C43.0634746,122.05041 42.905153,122.05041 42.7468314,122.05041 Z M42.7468314,109.384682 C42.4301882,109.384682 42.2718666,109.22636 42.113545,108.909717 C41.9552234,108.593074 41.9552234,108.118109 42.4301882,107.801466 L108.925259,69.8042824 C109.241902,69.6459608 109.716867,69.6459608 110.03351,70.1209256 C110.350154,70.5958904 110.191832,70.9125336 109.716867,71.2291768 L43.2217962,109.22636 C43.0634746,109.384682 42.905153,109.384682 42.7468314,109.384682 Z M42.7468314,96.718954 C42.4301882,96.718954 42.2718666,96.5606324 42.113545,96.2439892 C41.9552234,95.927346 41.9552234,95.4523813 42.4301882,95.1357381 L108.925259,57.1385546 C109.241902,56.980233 109.716867,56.980233 110.03351,57.4551978 C110.191832,57.771841 110.191832,58.2468058 109.716867,58.563449 L43.2217962,96.5606324 C43.0634746,96.718954 42.905153,96.718954 42.7468314,96.718954 Z M42.7468314,84.0532262 C42.4301882,84.0532262 42.2718666,83.8949046 42.113545,83.5782614 C41.9552234,83.2616182 42.113545,82.7866534 42.4301882,82.4700102 L70.9280758,66.6378505 C71.244719,66.4795289 71.7196838,66.6378505 72.036327,66.9544937 C72.1946486,67.2711369 72.036327,67.7461016 71.7196838,68.0627448 L43.2217962,83.8949046 C43.0634746,84.0532262 42.905153,84.0532262 42.7468314,84.0532262 Z" id="Shape" fill="url(#linearGradient-5)" fill-rule="nonzero"></path>
        </g>
    </g>
</svg>