<?xml version="1.0" encoding="UTF-8"?>
<svg width="365px" height="365px" viewBox="0 0 365 365" version="1.1" xmlns="http://www.w3.org/2000/svg" xmlns:xlink="http://www.w3.org/1999/xlink">
    <title>img2</title>
    <defs>
        <linearGradient x1="0.0504433498%" y1="49.9449036%" x2="99.9912315%" y2="49.9449036%" id="linearGradient-1">
            <stop stop-color="#AFCDFD" offset="0%"></stop>
            <stop stop-color="#D7E6FE" offset="100%"></stop>
        </linearGradient>
    </defs>
    <g id="img2" stroke="none" stroke-width="1" fill="none" fill-rule="evenodd">
        <rect fill="#FFFFFF" x="0" y="0" width="365" height="365"></rect>
        <g id="locations" transform="translate(62.000000, 63.000000)">
            <g id="Grupa_102">
                <path d="M137.248588,117.402465 L136.294369,113.267513 L139.316064,110.245818 L143.291979,115.334989 C143.291979,115.334989 145.995601,119.628978 144.246199,119.469941 C142.496796,119.310904 137.248588,117.402465 137.248588,117.402465 Z M128.183502,190.400266 L132.159417,181.335179 L132.159417,165.272483 L123.094331,153.185701 L122.140111,137.123004 L134.226893,127.103698 L139.157028,130.125393 L146.154638,127.103698 L156.173944,134.101308 L162.217335,136.168784 L176.212556,133.147089 L180.188471,139.19048 L170.169165,160.342348 L166.19325,169.407434 L159.19564,171.47491 L151.243809,180.539996 L143.291979,189.605083 L142.973906,190.082193 C138.202808,191.672559 133.272673,192.944851 128.342539,193.740035 L128.183502,190.400266 L128.183502,190.400266 Z M33.0796134,143.166395 L46.1206148,143.802541 L58.2073967,149.845932 C58.2073967,149.845932 51.8459325,165.590556 58.2073967,165.113446 C64.5688608,164.636336 63.296568,170.202617 63.296568,170.202617 L57.4122137,174.337569 C47.2338711,165.749592 38.8049311,155.09414 33.0796134,143.166395 Z M188.299338,63.8071299 L175.258336,61.7396541 L168.260726,67.783045 L159.19564,62.6938737 L159.19564,54.583007 L156.173944,49.4938357 L147.108858,40.4287493 L140.111247,40.4287493 L134.067856,34.3853584 L129.137722,42.4962251 L135.181112,44.563701 L148.222114,54.583007 L139.157028,60.6263979 L140.111247,64.6023129 L146.154638,64.6023129 L147.108858,70.6457039 L154.106468,76.6890948 L146.154638,80.6650098 L145.200418,85.7541811 L132.159417,92.7517917 L126.116026,106.906049 L121.185891,109.927745 L121.185891,101.021695 L108.14489,111.041001 L107.19067,119.151868 L113.234061,114.062696 L116.255757,116.130172 L115.142501,120.106087 L121.185891,123.127783 L120.231672,133.147089 L108.14489,125.036222 L98.125584,122.968746 L93.1954493,113.90366 L86.1978388,109.927745 L78.2460086,98.9542192 L78.2460086,83.8457419 L69.1809223,72.7131797 L55.0266646,70.8047405 L47.0748345,77.802351 L30.853101,70.6457039 C31.3302108,69.373411 31.9663572,68.1011182 32.6025036,66.8288254 L51.0507495,50.7661285 L71.0893615,48.6986527 L88.106278,49.6528723 L87.1520584,45.6769572 L88.106278,41.7010421 L87.1520584,36.6118708 L90.1737539,34.544395 L106.236451,41.5420055 L116.255757,28.5010041 L123.253367,24.525089 L130.250978,27.5467845 L138.202808,20.5491739 L192.275253,60.7854345 L188.299338,63.8071299 Z" id="Kształt_698" fill="url(#linearGradient-1)" fill-rule="nonzero"></path>
                <circle id="Elipsa_768" stroke="#101C4F" stroke-linecap="round" stroke-linejoin="round" cx="114.347317" cy="104.361464" r="89.8556806"></circle>
                <path d="M191.639107,57.9227756 C193.547546,58.8769952 193.229473,58.7179586 194.978875,59.8312149 C239.350087,85.9132177 239.350087,128.057918 194.978875,154.13992 C150.607663,180.221923 78.5640818,180.221923 34.1928696,154.298957 C-10.1783426,128.375991 -10.1783426,86.0722543 34.1928696,59.9902515 C35.6241991,59.0360318 35.6241991,59.0360318 37.2145651,58.2408488" id="Elipsa_768_kopia_10" stroke="#101C4F" stroke-linecap="round" stroke-linejoin="round"></path>
                <path d="M124.207587,193.740035 C121.185891,195.966547 117.52805,198.511133 114.347317,200.419572 C69.3399589,226.501575 32.9205768,205.349707 32.9205768,153.344737 C32.9205768,101.339768 69.3399589,37.8841637 114.347317,11.8021608 C159.354676,-14.2798421 195.774058,6.87202609 195.774058,58.8769952 C195.774058,61.5806175 195.774058,63.0119469 195.455985,65.7155692" id="Elipsa_768_kopia_3" stroke="#101C4F" stroke-linecap="round" stroke-linejoin="round"></path>
                <path d="M104.328012,193.740035 C107.349707,195.966547 111.007549,198.511133 114.347317,200.419572 C159.354676,226.501575 195.774058,205.349707 195.774058,153.185701 C195.774058,101.021695 159.354676,37.2480172 114.347317,11.1660144 C69.3399589,-14.9159885 32.9205768,6.23587968 32.9205768,58.558922 C32.9205768,61.2625443 32.9205768,63.0119469 33.0796134,65.7155692" id="Elipsa_768_kopia_7" stroke="#101C4F" stroke-linecap="round" stroke-linejoin="round"></path>
                <path d="M3.81687847,119.151868 C5.88435431,119.151868 7.63375694,120.90127 7.63375694,122.968746 C7.63375694,125.036222 5.88435431,126.785625 3.81687847,126.785625 C1.74940263,126.785625 0,125.036222 0,122.968746 C0,122.968746 0,122.968746 0,122.968746 C0,120.90127 1.74940263,119.151868 3.81687847,119.151868 C3.81687847,119.151868 3.81687847,119.151868 3.81687847,119.151868 Z" id="Elipsa_2843_kopia" fill="#007BFC" fill-rule="nonzero"></path>
                <circle id="Elipsa_2843_kopia_2" fill="#007BFC" fill-rule="nonzero" cx="179.393288" cy="86.2312909" r="3.81687847"></circle>
                <path d="M70.9303249,48.6986527 C72.9978007,48.6986527 74.7472034,50.4480553 74.7472034,52.5155311 C74.7472034,54.583007 72.9978007,56.3324096 70.9303249,56.3324096 C68.8628491,56.3324096 67.1134464,54.583007 67.1134464,52.5155311 C67.1134464,52.5155311 67.1134464,52.5155311 67.1134464,52.5155311 C67.1134464,50.4480553 68.8628491,48.6986527 70.9303249,48.6986527 Z" id="Elipsa_2843_kopia_3" fill="#007BFC" fill-rule="nonzero"></path>
            </g>
            <g id="pin" transform="translate(174.781227, 117.823861)" fill-rule="nonzero">
                <path d="M16.8578799,95.4776752 C27.3542957,89.4342843 44.5302488,89.4342843 55.0266646,95.4776752 C65.5230804,101.521066 65.5230804,111.381336 55.0266646,117.583763 C44.5302488,123.786191 27.3542957,123.627154 16.8578799,117.583763 C6.36146412,111.540372 6.36146412,101.521066 16.8578799,95.4776752 Z" id="Elipsa_1309" stroke="#007BFC" fill="#FFFFFF"></path>
                <path d="M59.1616163,8.48465343 C55.9808842,6.57621419 49.7784567,2.91837233 48.1880907,1.6460795 C43.0989194,-0.898506142 36.1013089,-0.739469539 28.3085153,3.87259195 C12.7229282,12.9376783 0,35.0437661 0,53.0149022 C0,81.959564 25.7639297,101.36203 26.8771859,102.157213 C27.1952591,102.475286 37.5326383,108.995786 37.8507115,108.35964 M30.6940644,29.1594118 L30.6940644,29.1594118 C36.5784187,25.8196431 41.3495168,28.5232654 41.3495168,35.3618393 C41.3495168,42.2004132 36.5784187,50.6293532 30.6940644,53.8100853 C24.8097101,56.9908173 20.1976486,54.4462317 20.1976486,47.6076577 C20.5157218,40.1329374 24.4916368,33.2943635 30.6940644,29.1594118" id="Kształt_1743_kopia" fill="#0066FF"></path>
                <path d="M38.6458945,9.91598286 C23.0603074,18.9810692 10.3373792,41.087157 10.3373792,59.0582932 C10.3373792,88.0029549 36.1013089,107.40542 37.2145651,108.200603 C37.6916749,108.518677 38.1687847,108.518677 38.6458945,108.200603 C39.2820409,107.88253 39.7591507,107.40542 40.0772239,106.769274 C41.1904802,104.542762 66.9544098,54.4462317 66.9544098,26.4557896 C66.9544098,17.7087764 63.7736778,11.1882757 59.0025797,8.32561683 C53.7543718,5.30392137 46.4386881,5.62199458 38.6458945,9.91598286 Z M38.6458945,32.3401439 C44.5302488,29.0003752 49.3013469,31.7039975 49.3013469,38.5425714 C49.3013469,45.3811453 44.5302488,53.8100853 38.6458945,56.9908173 C32.7615402,60.1715494 28.1494787,57.6269637 28.1494787,50.7883898 C28.4675519,43.3136695 32.443467,36.4750955 38.6458945,32.3401439 L38.6458945,32.3401439 Z" id="Kształt_1743" fill="#007BFC"></path>
            </g>
        </g>
    </g>
</svg>