<?xml version="1.0" encoding="UTF-8"?>
<svg width="365px" height="365px" viewBox="0 0 365 365" version="1.1" xmlns="http://www.w3.org/2000/svg" xmlns:xlink="http://www.w3.org/1999/xlink">
    <title>img3</title>
    <defs>
        <linearGradient x1="0.0448275862%" y1="50.0532137%" x2="100%" y2="50.0532137%" id="linearGradient-1">
            <stop stop-color="#AFCDFD" offset="0%"></stop>
            <stop stop-color="#D7E6FE" offset="100%"></stop>
        </linearGradient>
        <linearGradient x1="-0.0291415545%" y1="49.9224368%" x2="100.057423%" y2="49.9224368%" id="linearGradient-2">
            <stop stop-color="#97BEFC" offset="0%"></stop>
            <stop stop-color="#ABCAFF" offset="100%"></stop>
        </linearGradient>
        <linearGradient x1="6.07586207%" y1="72.2629039%" x2="93.8793103%" y2="28.1065426%" id="linearGradient-3">
            <stop stop-color="#AFCDFD" offset="0%"></stop>
            <stop stop-color="#D7E6FE" offset="100%"></stop>
        </linearGradient>
    </defs>
    <g id="img3" stroke="none" stroke-width="1" fill="none" fill-rule="evenodd">
        <rect fill="#FFFFFF" x="0" y="0" width="365" height="365"></rect>
        <g id="distributed-design" transform="translate(54.000000, 63.000000)">
            <g id="block_1_" transform="translate(0.858132, 5.139507)" stroke="#101C4F">
                <path d="M96.3382501,98.8361561 C95.8311385,100.357491 94.8169154,101.709788 93.4646179,102.385937 L58.135846,123.346548 C53.9099164,125.713069 46.303243,125.544032 41.4011646,122.670399 L4.21298363,101.709788 C1.17031428,100.019416 -0.18198321,97.6528958 0.156091163,95.6244496 L0.156091163,66.7190907 L96.3382501,71.7902063 L96.3382501,98.8361561 Z" id="Prostokąt_zaokrąglony_1402_kopia_3"></path>
                <path d="M2.86068614,63.1693098 L40.0488671,42.2086987 C44.2747967,39.8421781 51.8814701,40.0112153 56.7835485,42.8848475 L92.2813576,63.8454586 C97.183436,66.7190907 97.6905476,70.9450204 93.4646179,73.311541 L58.135846,94.4411892 C53.9099164,96.8077099 46.303243,96.6386727 41.4011646,93.7650405 L4.04394644,72.6353922 C-0.858131954,69.9307973 -1.36524351,65.5358304 2.86068614,63.1693098 Z" id="Prostokąt_zaokrąglony_1402_kopia_4" fill="#FFFFFF"></path>
                <path d="M96.3382501,58.2672314 C95.8311385,59.7885661 94.8169154,61.1408636 93.4646179,61.8170123 L58.135846,82.7776234 C53.9099164,85.144144 46.303243,84.9751068 41.4011646,82.1014747 L4.21298363,61.1408636 C1.17031428,59.4504917 -0.18198321,57.0839711 0.156091163,55.0555249 L0.156091163,26.150166 C0.494165535,24.6288314 1.50838865,23.2765339 3.02972333,22.6003851 L39.8798299,1.63977405 C44.1057596,-0.726746556 51.7124329,-0.55770937 56.6145113,2.31592279 L92.1123204,23.2765339 C95.1549898,24.9669057 96.5072873,27.3334263 96.1692129,29.5309098 L96.1692129,58.2672314 L96.3382501,58.2672314 Z" id="Prostokąt_zaokrąglony_1402_kopia_8" fill="#FFFFFF"></path>
            </g>
            <g id="block">
                <path d="M256.936523,98.3974358 C256.429411,99.9187705 255.415188,101.271068 254.062891,101.947217 L218.05797,123.414939 C213.663003,125.950497 206.05633,125.612423 200.985214,122.738791 L162.951847,101.271068 C159.909178,99.5806961 158.894955,97.2141755 158.894955,95.0166921 L158.894955,65.6042217 L256.936523,70.8443745 L256.936523,98.3974358 Z" id="Prostokąt_zaokrąglony_1402_kopia_5" fill="url(#linearGradient-1)"></path>
                <path d="M161.768587,63.0686639 L199.46388,41.7699785 C203.858847,39.2344207 211.46552,39.572495 216.536635,42.4461272 L252.710593,63.9138498 C257.781709,66.787482 258.28882,71.1824488 253.893854,73.5489694 L218.05797,95.0166921 C213.663003,97.5522499 206.05633,97.2141755 200.985214,94.3405433 L163.120885,72.8728207 C158.049769,69.9991885 157.542657,65.6042217 161.768587,63.0686639 L161.768587,63.0686639 Z" id="Prostokąt_zaokrąglony_1402_kopia_5-2" fill="url(#linearGradient-2)"></path>
                <path d="M256.936523,59.0117714 C256.429411,60.5331061 255.415188,61.8854036 254.062891,62.5615523 L218.05797,83.6912006 C213.663003,86.2267584 206.05633,85.888684 200.985214,83.0150519 L162.951847,61.7163664 C159.909178,60.0259946 158.894955,58.3356227 158.894955,55.6310277 L158.894955,26.3875945 C159.233029,24.8662598 160.247252,23.5139623 161.768587,22.8378136 L199.46388,1.70816533 C203.858847,-0.827392459 211.46552,-0.489318086 216.536635,2.38431408 L252.710593,23.6829995 C256.767486,25.880483 256.936523,29.599301 256.936523,31.2896729 L256.936523,59.0117714 Z" id="Prostokąt_zaokrąglony_1402_kopia_8-2" fill="url(#linearGradient-3)"></path>
                <path d="M98.041568,209.961979 C97.5344564,211.483313 96.5202333,212.835611 95.1679358,213.51176 L59.1630152,234.979482 C54.7680483,237.51504 47.1613749,237.176966 42.0902594,234.303333 L4.05689247,212.835611 C1.01422312,211.145239 0,208.778718 0,206.581235 L0,177.168765 L98.041568,182.408917 L98.041568,209.961979 Z" id="Prostokąt_zaokrąglony_1402_kopia_5_1_" fill="url(#linearGradient-1)"></path>
                <path d="M2.87363216,174.633207 L40.5689247,153.334521 C44.9638915,150.798964 52.5705649,151.137038 57.6416805,154.01067 L93.8156383,175.478393 C98.8867539,178.352025 99.3938655,182.746992 94.9988986,185.113512 L59.1630152,206.581235 C54.7680483,209.116793 47.1613749,208.778718 42.0902594,205.905086 L4.22592965,184.437364 C-0.845185931,181.563731 -1.35229749,177.168765 2.87363216,174.633207 Z" id="Prostokąt_zaokrąglony_1402_kopia_5-2_1_" fill="url(#linearGradient-2)"></path>
                <path d="M98.041568,170.576314 C97.5344564,172.097649 96.5202333,173.449946 95.1679358,174.126095 L59.1630152,195.255743 C54.7680483,197.791301 47.1613749,197.453227 42.0902594,194.579595 L4.05689247,173.280909 C1.01422312,171.590537 0,169.900166 0,167.195571 L0,137.952137 C0.338074372,136.430803 1.35229749,135.078505 2.87363216,134.402356 L40.5689247,113.272708 C44.9638915,110.73715 52.5705649,111.075225 57.6416805,113.948857 L93.8156383,135.247542 C97.8725308,137.445026 98.041568,141.163844 98.041568,142.854216 L98.041568,170.576314 Z" id="Prostokąt_zaokrąglony_1402_kopia_8-2_1_" fill="url(#linearGradient-3)"></path>
            </g>
            <g id="Grupa_75" transform="translate(75.221548, 81.137849)">
                <path d="M0,37.2059744 C0,37.2059744 38.7095156,57.8285111 49.020784,64.2519242 C55.6132342,68.3088167 55.2751599,70.6753373 49.020784,74.3941554 C44.1187056,77.2677875 42.4283337,79.465271 37.188181,82.8460147 C30.5957307,87.0719443 35.3287719,90.7907624 42.2592965,94.6786177 C50.2040443,99.0735846 96.3511961,123.414939 96.3511961,123.414939" id="Kształt_1266" stroke="#007BFC" stroke-linecap="round" stroke-linejoin="round"></path>
                <path d="M180.869789,132.711985 C180.362678,134.233319 179.348455,135.585617 177.996157,136.261766 L142.667385,157.222377 C138.441455,159.588897 130.834782,159.41986 125.932704,156.546228 L88.7445227,135.585617 C85.7018534,133.895245 84.6876303,131.866799 84.6876303,129.500278 L84.6876303,100.594919 L180.869789,105.666035 L180.869789,132.711985 Z" id="Prostokąt_zaokrąglony_1402_kopia_6" stroke="#101C4F" fill="#FFFFFF"></path>
                <path d="M87.3922252,97.0451383 L124.580406,76.0845272 C128.806336,73.7180066 136.413009,73.8870438 141.315088,76.760676 L176.812897,97.7212871 C181.714975,100.594919 182.222087,104.820849 177.996157,107.187369 L142.667385,128.147981 C138.441455,130.514501 130.834782,130.345464 125.932704,127.471832 L88.7445227,106.511221 C83.6734071,103.806626 83.1662956,99.4116589 87.3922252,97.0451383 Z" id="Prostokąt_zaokrąglony_1402_kopia_6-2" stroke="#101C4F" fill="#FFFFFF"></path>
                <line x1="104.803055" y1="59.1808086" x2="104.803055" y2="98.0593614" id="Kształt_1245_kopia" stroke="#101C4F"></line>
                <polygon id="Kształt_1249_kopia" stroke="#101C4F" stroke-width="2" fill="#101C4F" stroke-linecap="round" stroke-linejoin="round" points="101.422312 94.6786177 103.957869 99.7497333 106.493427 94.6786177"></polygon>
                <line x1="135.229749" y1="74.3941554" x2="135.229749" y2="113.272708" id="Kształt_1245_kopia_2" stroke="#101C4F"></line>
                <polygon id="Kształt_1249_kopia_2" stroke="#101C4F" stroke-width="2" fill="#101C4F" stroke-linecap="round" stroke-linejoin="round" points="131.849005 109.891964 134.384563 114.96308 136.920121 109.891964"></polygon>
                <line x1="163.966071" y1="62.5615523" x2="163.966071" y2="101.440105" id="Kształt_1245_kopia_3" stroke="#101C4F"></line>
                <polygon id="Kształt_1249_kopia_3" stroke="#101C4F" stroke-width="2" fill="#101C4F" stroke-linecap="round" stroke-linejoin="round" points="160.585327 98.0593614 163.120885 103.130477 165.656442 98.0593614"></polygon>
                <path d="M181.714975,59.0117714 C181.207864,60.5331061 180.19364,61.8854036 178.841343,62.5615523 L142.836422,83.6912006 C138.441455,86.2267584 130.834782,85.888684 125.763666,83.0150519 L87.7302996,61.7163664 C84.6876303,60.0259946 83.6734071,58.3356227 83.6734071,55.6310277 L83.6734071,26.3875945 C84.0114815,24.8662598 85.0257046,23.5139623 86.5470393,22.8378136 L124.242332,1.70816533 C128.637299,-0.827392459 136.243972,-0.489318086 141.315088,2.38431408 L177.489045,23.6829995 C181.545938,25.880483 181.714975,29.599301 181.714975,31.2896729 L181.714975,59.0117714 Z" id="Prostokąt_zaokrąglony_1402_kopia_8-2_2_" fill="#007BFC"></path>
            </g>
        </g>
    </g>
</svg>