<?xml version="1.0" encoding="UTF-8"?>
<svg width="365px" height="365px" viewBox="0 0 365 365" version="1.1" xmlns="http://www.w3.org/2000/svg" xmlns:xlink="http://www.w3.org/1999/xlink">
    <title>img4</title>
    <defs>
        <linearGradient x1="0%" y1="49.9990375%" x2="100%" y2="49.9990375%" id="linearGradient-1">
            <stop stop-color="#97BEFC" offset="0%"></stop>
            <stop stop-color="#ABCAFF" offset="100%"></stop>
        </linearGradient>
        <linearGradient x1="0%" y1="49.9975339%" x2="100.11236%" y2="49.9975339%" id="linearGradient-2">
            <stop stop-color="#97BEFC" offset="0%"></stop>
            <stop stop-color="#ABCAFF" offset="100%"></stop>
        </linearGradient>
        <linearGradient x1="0%" y1="50%" x2="100.214797%" y2="50%" id="linearGradient-3">
            <stop stop-color="#AFCDFD" offset="0%"></stop>
            <stop stop-color="#D7E6FE" offset="100%"></stop>
        </linearGradient>
        <linearGradient x1="-8.08531985e-15%" y1="50.0002265%" x2="100%" y2="50.0002265%" id="linearGradient-4">
            <stop stop-color="#AFCDFD" offset="0%"></stop>
            <stop stop-color="#D7E6FE" offset="100%"></stop>
        </linearGradient>
        <linearGradient x1="-0.00200058663%" y1="50.0012659%" x2="100%" y2="50.0012659%" id="linearGradient-5">
            <stop stop-color="#97BEFC" offset="0%"></stop>
            <stop stop-color="#ABCAFF" offset="100%"></stop>
        </linearGradient>
        <linearGradient x1="8.05902778%" y1="56.1236196%" x2="92.3402778%" y2="36.3274478%" id="linearGradient-6">
            <stop stop-color="#97BEFC" offset="0%"></stop>
            <stop stop-color="#ABCAFF" offset="100%"></stop>
        </linearGradient>
        <linearGradient x1="8.25613619%" y1="63.8470996%" x2="91.6613852%" y2="36.196773%" id="linearGradient-7">
            <stop stop-color="#AFCDFD" offset="0%"></stop>
            <stop stop-color="#D7E6FE" offset="100%"></stop>
        </linearGradient>
    </defs>
    <g id="img4" stroke="none" stroke-width="1" fill="none" fill-rule="evenodd">
        <rect fill="#FFFFFF" x="0" y="0" width="365" height="365"></rect>
        <g id="developers" transform="translate(64.000000, 63.000000)">
            <g id="browser">
                <path d="M55.2177486,74.2678718 L55.2177486,53.6006574 C55.5332786,51.0764174 56.9531635,49.0254725 59.0041085,47.7633525 L117.692687,14.7904684 C119.743632,13.5283484 121.479047,14.3171734 121.479047,16.3681183 L121.479047,36.4042728 L55.2177486,74.2678718 Z" id="Prostokąt_zaokrąglony_1356_kopia_10" fill="url(#linearGradient-1)"></path>
                <path d="M129.367297,31.9868529 L129.367297,7.84880855 C129.367297,7.84880855 132.207067,6.11339359 135.993426,3.90468365 C144.986031,-1.30156122 159.500411,-1.30156122 168.335251,3.90468365 C169.597371,4.69350863 170.543961,7.05998357 171.490551,7.84880855 L129.367297,31.9868529 Z" id="Prostokąt_zaokrąglony_1356_kopia_13" fill="url(#linearGradient-2)"></path>
                <g id="browser-2" transform="translate(44.963024, 6.288235)">
                    <path d="M4.57518488,71.4504664 L126.369762,1.71833823 C130.629417,-0.805901707 134.100247,-0.805901707 134.100247,3.45375318 L134.100247,119.56879 C134.100247,123.828445 130.629417,127.614805 126.369762,130.139045 L4.57518488,199.871173 C0.315529992,202.395413 -1.12098772e-14,199.240113 -1.12098772e-14,194.980458 L-1.12098772e-14,82.0207211 C-1.12098772e-14,77.7610662 0.315529992,73.8169414 4.57518488,71.4504664 Z" id="Prostokąt_zaokrąglony_1356" stroke="#333C5E"></path>
                    <path d="M11.3590797,79.6542462 C12.4634347,79.0231862 13.4100247,79.4964812 13.4100247,80.4430712 C13.2522597,81.7051911 12.4634347,82.8095461 11.3590797,83.2828411 C10.2547247,83.9139011 9.46589975,83.4406061 9.46589975,82.4940161 C9.62366475,81.2318962 10.4124897,80.1275412 11.3590797,79.6542462 Z M22.8759244,73.1858814 C23.9802794,72.5548214 24.7691044,73.0281164 24.7691044,73.9747063 C24.6113394,75.2368263 23.8225144,76.3411813 22.8759244,76.8144763 C21.7715694,77.4455363 20.9827445,76.9722413 20.9827445,76.0256513 C20.9827445,74.9212963 21.7715694,73.8169414 22.8759244,73.1858814 L22.8759244,73.1858814 Z M34.2350041,66.8752815 C35.3393591,66.2442215 36.1281841,66.7175165 36.1281841,67.6641065 C35.9704191,68.9262265 35.1815941,70.0305814 34.2350041,70.5038764 C33.1306491,71.1349364 32.3418242,70.6616414 32.3418242,69.7150515 C32.3418242,68.4529315 33.1306491,67.5063415 34.2350041,66.8752815 L34.2350041,66.8752815 Z" id="Elipsa_1360_kopia_2" stroke="#007BFC" stroke-width="2" fill="#007BFC"></path>
                </g>
                <path d="M174.172555,47.7633525 L232.703369,14.7904684 C234.754314,13.5283484 236.489729,14.3171734 236.489729,16.3681183 L236.489729,70.9548069 C236.174199,73.4790468 234.754314,75.5299918 232.703369,76.7921118 L174.172555,109.764996 C172.121611,111.027116 170.386196,110.238291 170.386196,108.187346 L170.386196,53.6006574 C170.701726,51.0764174 172.121611,48.8677075 174.172555,47.7633525 Z" id="Prostokąt_zaokrąglony_1356_kopia_8" fill="url(#linearGradient-3)"></path>
                <path d="M92.1347576,95.0928513 L150.665571,62.1199671 C152.716516,60.8578472 154.451931,61.6466721 154.451931,63.6976171 L154.451931,118.284306 C154.136401,120.808546 152.716516,122.859491 150.665571,124.121611 L92.1347576,157.094495 C90.0838127,158.356615 88.3483977,157.56779 88.3483977,155.516845 L88.3483977,100.930156 C88.6639277,98.4059162 90.0838127,96.1972062 92.1347576,95.0928513 Z" id="Prostokąt_zaokrąglony_1356_kopia_9" fill="url(#linearGradient-3)"></path>
                <g id="Grupa_62" transform="translate(0.000000, 92.039524)">
                    <path d="M68.7855382,79.4115857 C68.7855382,79.4115857 58.0575185,86.0377155 42.7543139,94.5570253 C41.9654889,95.1880853 41.3344289,95.6613803 40.5456039,96.1346752 C31.2374692,101.65645 16.2497946,101.65645 7.09942482,96.1346752 C3.15529992,93.7682003 0.946589975,90.7706654 0.315529992,87.6153655 L2.62731496e-16,87.7731305 L2.62731496e-16,23.7205421 C0.315529992,19.4608872 2.68200493,15.6745273 6.31059984,13.6235824 C12.6211997,9.5216925 14.9876746,7.94404254 14.9876746,7.94404254 C17.1963846,6.68192257 18.9317995,7.47074755 18.9317995,9.5216925 L29.9753492,36.0262118 C33.2884141,36.0262118 36.4437141,35.3951518 39.441249,34.1330319 C55.6910435,24.9826621 68.7855382,17.4099423 68.7855382,17.4099423 C70.8364832,16.1478223 72.5718981,16.9366473 72.5718981,18.9875923 L72.5718981,73.5742808 C72.2563681,76.0985208 70.8364832,78.1494657 68.7855382,79.4115857 L68.7855382,79.4115857 Z" id="Prostokąt_zaokrąglony_1356_kopia_12" fill="url(#linearGradient-4)"></path>
                    <path d="M33.1306491,36.0262118 C24.4535744,38.2349218 14.0410846,37.2883318 6.94165982,33.0286769 C-2.36647494,27.506902 -2.20870994,18.5142973 6.94165982,12.9925224 C11.6746097,10.1527525 22.8759244,3.36885766 28.8709942,0.529087735 C32.6573541,-1.36409222 33.1306491,2.26450269 33.1306491,4.47321263 L33.1306491,36.0262118 L33.1306491,36.0262118 Z" id="Prostokąt_zaokrąglony_1356_kopia_15" fill="url(#linearGradient-5)"></path>
                </g>
            </g>
            <path d="M36.601479,22.0476582 L48.2760887,26.3073131 L36.601479,44.2925226 M16.4075596,33.5645029 L4.73294988,51.3919474 L16.4075596,55.9671323 M23.8225144,55.0205423 L30.2908792,20.7855382" id="Kształt_1556_kopia_5" stroke="#007BFC" stroke-width="2" stroke-linecap="round" stroke-linejoin="round"></path>
            <g id="keyboard" transform="translate(80.460148, 157.488907)">
                <line x1="24.6113394" y1="44.4108463" x2="0" y2="29.8964667" id="Kształt_1557" stroke="#007BFC"></line>
                <path d="M147.036976,27.0566968 L10.7280197,52.6146261 C10.7280197,52.6146261 10.8857847,53.7189811 10.8857847,55.2966311 C10.7280197,56.243221 11.0435497,57.347576 11.9901397,57.820871 L54.4289236,81.8011504 C56.3221035,82.7477403 58.6885785,82.7477403 60.5817584,81.8011504 L145.932621,32.5784717 C146.405916,32.4207067 146.879211,31.9474117 147.036976,31.4741167 L147.036976,27.0566968 Z" id="Kształt_1556_kopia_4" fill="url(#linearGradient-6)"></path>
                <path d="M145.774856,24.5324569 L138.517666,20.588332 L103.809367,0.709942482 C101.916187,-0.236647494 99.5497124,-0.236647494 97.6565325,0.709942482 L11.9901397,49.9326212 C11.5168447,50.0903862 11.0435497,50.5636812 10.8857847,51.0369762 C10.5702547,51.9835661 11.0435497,53.0879211 11.9901397,53.5612161 L54.4289236,77.5414955 C56.3221035,78.4880855 58.6885785,78.4880855 60.5817584,77.5414955 L145.932621,28.3188168 C146.405916,28.1610518 146.879211,27.6877568 147.036976,27.2144618 C147.194741,26.1101068 146.721446,25.0057518 145.774856,24.5324569 C145.774856,24.6902219 145.774856,24.6902219 145.774856,24.5324569 L145.774856,24.5324569 Z" id="Kształt_1556_kopia" fill="url(#linearGradient-7)"></path>
                <path d="M31.7107642,50.8792112 L37.705834,54.3500411 L43.7009039,50.8792112 L37.705834,47.4083813 L31.7107642,50.8792112 Z M41.9654889,44.8841413 L47.9605588,48.3549712 L53.9556286,44.8841413 L47.9605588,41.4133114 L41.9654889,44.8841413 Z M52.2202136,39.0468365 L58.2152835,42.5176664 L64.2103533,39.0468365 L58.2152835,35.5760066 L52.2202136,39.0468365 Z M62.3171734,33.2095316 L68.3122432,36.6803615 L74.3073131,33.2095316 L68.3122432,29.7387017 L62.3171734,33.2095316 Z M72.5718981,27.3722268 L78.566968,30.8430567 L84.5620378,27.3722268 L78.566968,23.9013969 L72.5718981,27.3722268 Z M82.6688578,21.5349219 L88.6639277,25.0057518 L94.6589975,21.5349219 L88.6639277,18.064092 L82.6688578,21.5349219 Z M92.9235826,15.6976171 L98.9186524,19.168447 L104.913722,15.6976171 L98.9186524,12.2267872 L92.9235826,15.6976171 Z M41.9654889,56.558751 L47.9605588,60.0295809 L53.9556286,56.558751 L47.9605588,53.0879211 L41.9654889,56.558751 Z M52.2202136,50.7214462 L58.2152835,54.1922761 L64.2103533,50.7214462 L58.2152835,47.2506163 L52.2202136,50.7214462 Z M62.4749384,44.8841413 L68.4700082,48.3549712 L74.4650781,44.8841413 L68.4700082,41.4133114 L62.4749384,44.8841413 Z M72.4141331,39.0468365 L78.409203,42.5176664 L84.4042728,39.0468365 L78.409203,35.5760066 L72.4141331,39.0468365 Z M82.8266228,33.2095316 L88.8216927,36.6803615 L94.8167625,33.2095316 L88.8216927,29.7387017 L82.8266228,33.2095316 Z M92.9235826,27.3722268 L98.9186524,30.8430567 L104.913722,27.3722268 L98.9186524,23.9013969 L92.9235826,27.3722268 Z M103.020542,21.5349219 L109.015612,25.0057518 L115.010682,21.5349219 L109.015612,18.064092 L103.020542,21.5349219 Z M52.0624486,62.3960559 L58.0575185,65.8668858 L64.0525883,62.3960559 L58.0575185,58.925226 L52.0624486,62.3960559 Z M62.3171734,56.558751 L68.3122432,60.0295809 L74.3073131,56.558751 L68.3122432,53.0879211 L62.3171734,56.558751 Z M72.5718981,50.7214462 L78.566968,54.1922761 L84.5620378,50.7214462 L78.566968,47.2506163 L72.5718981,50.7214462 Z M82.6688578,44.8841413 L88.6639277,48.3549712 L94.6589975,44.8841413 L88.6639277,41.4133114 L82.6688578,44.8841413 Z M92.9235826,39.0468365 L98.9186524,42.5176664 L104.913722,39.0468365 L98.9186524,35.5760066 L92.9235826,39.0468365 Z M103.020542,33.2095316 L109.015612,36.6803615 L115.010682,33.2095316 L109.015612,29.7387017 L103.020542,33.2095316 Z M113.275267,27.3722268 L119.270337,30.8430567 L125.265407,27.3722268 L119.270337,23.9013969 L113.275267,27.3722268 Z" id="Kształt_1556_kopia_3" fill="#007BFC"></path>
            </g>
            <g id="wp" transform="translate(116.746097, 83.599250)">
                <path d="M3.7863599,33.5807003 L62.3171734,0.607816192 C64.3681183,-0.654303775 66.1035333,0.134521204 66.1035333,2.18546615 L66.1035333,56.7721547 C65.7880033,59.2963947 64.3681183,61.3473396 62.3171734,62.6094596 L3.7863599,95.5823437 C1.73541495,96.8444637 0,96.0556387 0,94.0046938 L0,39.4180052 C0.315529992,36.8937652 1.73541495,34.6850553 3.7863599,33.5807003 Z" id="Prostokąt_zaokrąglony_1356_kopia_6" fill="#007BFC"></path>
                <path d="M11.0435497,50.4615549 L16.8808546,47.306255 M22.0870994,44.3087201 L56.7953985,25.2191556 M18.4585045,57.4032147 L48.5916187,40.8378901 M11.0435497,72.5486543 L19.4050945,67.9734694 M25.0846343,64.8181695 L56.7953985,47.306255" id="Kształt_1573" stroke="#FFFFFF" stroke-width="2" stroke-linecap="round" stroke-linejoin="round"></path>
            </g>
        </g>
    </g>
</svg>