<?xml version="1.0" encoding="UTF-8"?>
<svg width="365px" height="365px" viewBox="0 0 365 365" version="1.1" xmlns="http://www.w3.org/2000/svg" xmlns:xlink="http://www.w3.org/1999/xlink">
    <title>img5</title>
    <defs>
        <linearGradient x1="0%" y1="50.0001754%" x2="100%" y2="50.0001754%" id="linearGradient-1">
            <stop stop-color="#AFCDFD" offset="0%"></stop>
            <stop stop-color="#D7E6FE" offset="100%"></stop>
        </linearGradient>
        <linearGradient x1="-0.116086957%" y1="50.0457539%" x2="100%" y2="50.0457539%" id="linearGradient-2">
            <stop stop-color="#AFCDFD" offset="0%"></stop>
            <stop stop-color="#D7E6FE" offset="100%"></stop>
        </linearGradient>
        <linearGradient x1="8.08353511e-15%" y1="49.9779247%" x2="99.8862344%" y2="49.9779247%" id="linearGradient-3">
            <stop stop-color="#AFCDFD" offset="0%"></stop>
            <stop stop-color="#D7E6FE" offset="100%"></stop>
        </linearGradient>
    </defs>
    <g id="img5" stroke="none" stroke-width="1" fill="none" fill-rule="evenodd">
        <rect fill="#FFFFFF" x="0" y="0" width="365" height="365"></rect>
        <g id="choose-os" transform="translate(57.000000, 63.000000)">
            <g id="shelf-left" fill-rule="nonzero">
                <polygon id="Kształt_696_kopia_2" stroke="#142149" fill="#FFFFFF" stroke-linecap="round" stroke-linejoin="round" points="80.5479452 8.21917808 60.8219178 0 0 34.5205479 0 164.383562 18.0821918 174.246575"></polygon>
                <polygon id="Kształt_657" stroke="#142149" fill="#FFFFFF" stroke-linecap="round" stroke-linejoin="round" points="18.0821918 174.246575 80.5479452 136.438356 80.5479452 8.21917808 18.0821918 42.739726"></polygon>
                <polyline id="Kształt_531" stroke="#142149" fill="#FFFFFF" stroke-linecap="round" stroke-linejoin="round" points="65.7534247 16.4383562 65.7534247 124.931507 19.7260274 152.876712"></polyline>
                <polygon id="Kształt_531_kopia" stroke="#142149" fill="#FFFFFF" points="80.5479452 103.561644 18.0821918 139.726027 18.0821918 120 65.7534247 93.6986301 80.5479452 99.2876712 80.5479452 96.9863014"></polygon>
                <polygon id="Kształt_531_kopia_2" stroke="#142149" fill="#FFFFFF" points="80.5479452 73.9726027 18.0821918 110.136986 18.0821918 90.4109589 65.7534247 64.109589 80.5479452 69.6986301 80.5479452 67.3972603"></polygon>
                <polygon id="Kształt_531_kopia_3" stroke="#142149" fill="#FFFFFF" stroke-linecap="round" stroke-linejoin="round" points="80.5479452 44.3835616 18.0821918 80.5479452 18.0821918 60.8219178 65.7534247 34.5205479 80.5479452 40.109589 80.5479452 37.8082192"></polygon>
                <path d="M41.9178082,49.9726027 L41.9178082,31.2328767 L58.3561644,38.7945205 L58.3561644,57.5342466 L41.9178082,49.9726027 Z M53.4246575,70.0273973 L53.4246575,89.0958904 L36.9863014,81.0410959 L36.9863014,71.1780822 L45.2054795,66.2465753 L53.4246575,70.0273973 Z M43.5616438,124.931507 L27.1232877,117.369863 L27.1232877,106.356164 L34.1917808,102.246575 L43.5616438,106.356164 L43.5616438,124.931507 L43.5616438,124.931507 Z M18.9041096,47.1780822 L32.0547945,53.260274 L32.0547945,73.1506849 L18.9041096,67.0684932 L18.9041096,48.1643836 L18.9041096,47.1780822 Z" id="Prostokąt_545_kopia_4" fill="url(#linearGradient-1)"></path>
            </g>
            <g id="shelf-left-2" transform="translate(170.958904, 0.000000)" fill-rule="nonzero">
                <polygon id="Kształt_696_kopia_2-2" stroke="#142149" fill="#FFFFFF" stroke-linecap="round" stroke-linejoin="round" points="0 8.21917808 19.7260274 0 80.5479452 34.5205479 80.5479452 164.383562 62.4657534 174.246575"></polygon>
                <polygon id="Kształt_657-2" stroke="#142149" fill="#FFFFFF" stroke-linecap="round" stroke-linejoin="round" points="62.4657534 174.246575 0 136.438356 0 8.21917808 62.4657534 42.739726"></polygon>
                <polyline id="Kształt_531-2" stroke="#142149" fill="#FFFFFF" stroke-linecap="round" stroke-linejoin="round" points="14.7945205 16.4383562 14.7945205 124.931507 60.8219178 152.876712"></polyline>
                <polygon id="Kształt_531_kopia-2" stroke="#142149" fill="#FFFFFF" points="0 103.561644 0 96.9863014 0 99.2876712 14.7945205 93.6986301 62.4657534 120 62.4657534 139.726027"></polygon>
                <polygon id="Kształt_531_kopia_2-2" stroke="#142149" fill="#FFFFFF" stroke-linecap="round" stroke-linejoin="round" points="0 73.9726027 0 67.3972603 0 69.6986301 14.7945205 64.109589 62.4657534 90.4109589 62.4657534 110.136986"></polygon>
                <polygon id="Kształt_531_kopia_3-2" stroke="#142149" fill="#FFFFFF" stroke-linecap="round" stroke-linejoin="round" points="0 44.3835616 0 37.8082192 0 40.109589 14.7945205 34.5205479 62.4657534 60.8219178 62.4657534 80.5479452"></polygon>
                <path d="M40.2739726,50.1369863 L40.2739726,30.5753425 L23.8356164,38.1369863 L23.8356164,57.6986301 L40.2739726,50.1369863 Z M27.1232877,70.3561644 L27.1232877,88.7671233 L43.5616438,81.2054795 L43.7260274,71.0136986 L35.8356164,66.4109589 L27.1232877,70.3561644 Z M37.8082192,125.424658 L55.0684932,117.534247 L55.0684932,106.027397 L47.3424658,101.589041 L38.630137,105.69863 L38.4657534,125.424658 L37.8082192,125.424658 Z M60.6575342,47.5068493 L48.4931507,53.260274 L48.4931507,73.1506849 L61.6438356,67.0684932 L61.6438356,47.0136986 L60.6575342,47.5068493 Z" id="Prostokąt_545_kopia_5" fill="url(#linearGradient-2)"></path>
            </g>
            <g id="discs-old_kopia_3" transform="translate(54.904110, 59.260274)">
                <g id="disc-bottom" transform="translate(0.000000, 56.383562)" fill-rule="nonzero">
                    <path d="M79.2328767,40.8493151 C74.9589041,38.7123288 69.8630137,38.7123288 65.5890411,40.8493151 C64.6027397,41.3424658 63.9452055,42 63.2876712,42.8219178 C62.1369863,40.1917808 63.1232877,37.0684932 65.5890411,35.5890411 C69.8630137,33.4520548 74.9589041,33.4520548 79.2328767,35.5890411 C81.6986301,37.0684932 82.6849315,40.1917808 81.5342466,42.8219178 C80.8767123,42 80.0547945,41.3424658 79.2328767,40.8493151 Z" id="Elipsa_1306_kopia_13" fill="#8DAEE3"></path>
                    <path d="M72.6575342,124.356164 C8.05479452,124.356164 0.493150685,87.6986301 0.493150685,87.6986301 L0.493150685,37.2328767 L0.821917808,37.2328767 C2.30136986,28.0273973 9.36986301,19.1506849 21.6986301,12.0821918 C49.9726027,-4.02739726 95.5068493,-4.02739726 123.780822,12.0821918 C136.109589,19.1506849 143.013699,28.1917808 144.657534,37.3972603 L144.986301,37.3972603 L144.986301,87.8630137 C144.821918,87.6986301 137.260274,124.356164 72.6575342,124.356164 Z" id="Elipsa_1306_kopia_15" fill="url(#linearGradient-3)"></path>
                    <path d="M123.616438,71.0958904 C95.3424658,87.369863 49.4794521,87.369863 21.2054795,71.0958904 C-7.06849315,54.8219178 -7.06849315,28.5205479 21.2054795,12.2465753 C49.4794521,-4.02739726 95.3424658,-4.02739726 123.616438,12.2465753 C151.890411,28.5205479 151.890411,54.8219178 123.616438,71.0958904 Z" id="Elipsa_1306_kopia" fill="#9DC1FD"></path>
                </g>
                <line x1="28.9315068" y1="103.479452" x2="28.9315068" y2="64.0273973" id="Kształt_1245" stroke="#101C4F"></line>
                <polygon id="Kształt_1249" stroke="#101C4F" stroke-width="2" fill="#101C4F" fill-rule="nonzero" stroke-linecap="round" stroke-linejoin="round" points="27.2876712 100.191781 29.7534247 105.123288 32.2191781 100.191781"></polygon>
                <line x1="114.410959" y1="103.479452" x2="114.410959" y2="64.0273973" id="Kształt_1245_kopia" stroke="#101C4F"></line>
                <polygon id="Kształt_1249_kopia" stroke="#101C4F" stroke-width="2" fill="#101C4F" fill-rule="nonzero" stroke-linecap="round" stroke-linejoin="round" points="112.767123 100.191781 115.232877 105.123288 117.69863 100.191781"></polygon>
                <g id="disc-top" transform="translate(0.575342, 0.000000)" fill-rule="nonzero">
                    <path d="M142.931507,44.7945205 C142.767123,55.3150685 135.863014,65.6712329 122.054795,73.5616438 C94.109589,89.6712329 48.9041096,89.6712329 20.9589041,73.5616438 C6.98630137,65.5068493 0.0821917808,55.1506849 0.0821917808,44.630137 L0.0821917808,38.5479452 L44.630137,39.0410959 C43.8082192,43.6438356 46.2739726,48.4109589 52.3561644,51.8630137 C63.0410959,57.9452055 80.1369863,57.9452055 90.8219178,51.8630137 C96.5753425,48.5753425 99.2054795,43.9726027 98.7123288,39.6986301 L143.09589,40.1917808 C142.931507,40.0273973 142.931507,44.3013699 142.931507,44.7945205 Z" id="Elipsa_1306_kopia_9" fill="#0066FF"></path>
                    <path d="M122.054795,70.109589 C94.109589,86.2191781 48.9041096,86.2191781 20.9589041,70.109589 C-6.98630137,54 -6.98630137,28.1917808 20.9589041,12.0821918 C48.9041096,-4.02739726 94.109589,-4.02739726 122.054795,12.0821918 C150,28.1917808 149.835616,54 122.054795,70.109589 Z" id="Elipsa_1306" fill="#007BFC"></path>
                </g>
            </g>
        </g>
    </g>
</svg>